<svg version="1.1" viewBox="0.0 0.0 622.9317585301837 271.51706036745406" fill="none" stroke="none" stroke-linecap="square" stroke-miterlimit="10" xmlns:xlink="http://www.w3.org/1999/xlink" xmlns="http://www.w3.org/2000/svg"><clipPath id="p.0"><path d="m0 0l622.93176 0l0 271.51706l-622.93176 0l0 -271.51706z" clip-rule="nonzero"/></clipPath><g clip-path="url(#p.0)"><path fill="#000000" fill-opacity="0.0" d="m0 0l622.93176 0l0 271.51706l-622.93176 0z" fill-rule="evenodd"/><path shape-rendering="crispEdges" fill="#ffd966" d="m174.09186 73.91863l42.66667 0l0 37.66667l-42.66667 0l0 -37.66667z" fill-rule="nonzero"/><path shape-rendering="crispEdges" fill="#ffd966" d="m216.75853 73.91863l42.66667 0l0 37.66667l-42.66667 0l0 -37.66667z" fill-rule="nonzero"/><path shape-rendering="crispEdges" fill="#ffd966" d="m259.4252 73.91863l42.666656 0l0 37.66667l-42.666656 0l0 -37.66667z" fill-rule="nonzero"/><path shape-rendering="crispEdges" fill="#ffd966" d="m302.09186 73.91863l42.666687 0l0 37.66667l-42.666687 0l0 -37.66667z" fill-rule="nonzero"/><path shape-rendering="crispEdges" fill="#ffd966" d="m344.75854 73.91863l42.666656 0l0 37.66667l-42.666656 0l0 -37.66667z" fill-rule="nonzero"/><path stroke="#000000" stroke-width="1.3333333333333333" stroke-linecap="butt" d="m88.75853 73.25197l0 39.0" fill-rule="nonzero"/><path stroke="#000000" stroke-width="1.3333333333333333" stroke-linecap="butt" d="m131.4252 73.25197l0 39.0" fill-rule="nonzero"/><path stroke="#000000" stroke-width="1.3333333333333333" stroke-linecap="butt" d="m174.09186 73.25197l0 39.0" fill-rule="nonzero"/><path stroke="#000000" stroke-width="1.3333333333333333" stroke-linecap="butt" d="m216.75853 73.25197l0 39.0" fill-rule="nonzero"/><path stroke="#000000" stroke-width="1.3333333333333333" stroke-linecap="butt" d="m259.4252 73.25197l0 39.0" fill-rule="nonzero"/><path stroke="#000000" stroke-width="1.3333333333333333" stroke-linecap="butt" d="m302.09186 73.25197l0 39.0" fill-rule="nonzero"/><path stroke="#000000" stroke-width="1.3333333333333333" stroke-linecap="butt" d="m344.75854 73.25197l0 39.0" fill-rule="nonzero"/><path stroke="#000000" stroke-width="1.3333333333333333" stroke-linecap="butt" d="m387.4252 73.25197l0 39.0" fill-rule="nonzero"/><path stroke="#000000" stroke-width="1.3333333333333333" stroke-linecap="butt" d="m430.09186 73.25197l0 39.0" fill-rule="nonzero"/><path stroke="#000000" stroke-width="1.3333333333333333" stroke-linecap="butt" d="m472.75854 73.25197l0 39.0" fill-rule="nonzero"/><path stroke="#000000" stroke-width="1.3333333333333333" stroke-linecap="butt" d="m515.4252 73.25197l0 39.0" fill-rule="nonzero"/><path stroke="#000000" stroke-width="1.3333333333333333" stroke-linecap="butt" d="m88.091866 73.91863l428.0 0" fill-rule="nonzero"/><path stroke="#000000" stroke-width="1.3333333333333333" stroke-linecap="butt" d="m88.091866 111.585304l428.0 0" fill-rule="nonzero"/><path fill="#000000" d="m113.78811 96.95051l0 1.328125l-7.390625 0l0 -1.328125l3.296875 0l0 -8.0l-2.25 1.15625l-0.0625 0l-0.28125 -0.921875l0 -0.0625l2.9375 -1.984375l1.0625 0l0 9.8125l2.6875 0z" fill-rule="nonzero"/><path fill="#000000" d="m156.45477 96.93488l0 1.34375l-7.390625 0l0 -1.078125l4.0 -4.265625q0.921875 -1.0 1.25 -1.578125q0.34375 -0.578125 0.34375 -1.171875q0 -0.9375 -0.625 -1.4375q-0.625 -0.5 -1.75 -0.5q-1.546875 0 -2.875 0.890625l0 -1.40625q1.328125 -0.78125 2.9375 -0.78125q1.140625 0 1.984375 0.375q0.859375 0.375 1.3125 1.0625q0.46875 0.6875 0.46875 1.609375q0 0.84375 -0.40625 1.703125q-0.40625 0.859375 -1.203125 1.6875l-3.4375 3.546875l5.390625 0z" fill-rule="nonzero"/><path fill="#000000" d="m197.04332 92.46613q0.96875 0.390625 1.515625 1.125q0.5625 0.71875 0.5625 1.671875q0 0.9375 -0.53125 1.671875q-0.53125 0.71875 -1.484375 1.125q-0.9375 0.40625 -2.15625 0.40625q-0.875 0 -1.65625 -0.21875q-0.765625 -0.21875 -1.5625 -0.6875l0 -1.46875l0.0625 0q0.8125 0.5625 1.5625 0.828125q0.765625 0.25 1.578125 0.25q1.21875 0 1.96875 -0.546875q0.75 -0.5625 0.75 -1.46875q0 -0.9375 -0.84375 -1.484375q-0.84375 -0.5625 -2.265625 -0.5625l-0.703125 0l0 -1.265625l0.703125 0q1.375 0 2.125 -0.46875q0.75 -0.46875 0.75 -1.3125q0 -0.84375 -0.671875 -1.3125q-0.65625 -0.484375 -1.78125 -0.484375q-0.6875 0 -1.359375 0.203125q-0.65625 0.203125 -1.484375 0.65625l-0.0625 0l0 -1.390625q1.4375 -0.78125 3.0 -0.78125q1.140625 0 2.0 0.359375q0.859375 0.359375 1.328125 1.015625q0.484375 0.65625 0.484375 1.515625q0 0.890625 -0.5 1.578125q-0.484375 0.6875 -1.328125 1.046875z" fill-rule="nonzero"/><path fill="#000000" d="m242.49123 95.66926l-1.765625 0l0 2.609375l-1.40625 0l0 -2.609375l-5.28125 0l0 -1.078125l0.109375 -0.015625l-0.109375 -0.03125l5.28125 -7.40625l1.40625 0l0 7.25l1.765625 0l0 1.28125zm-3.171875 -1.28125l0 -5.34375l-3.6875 5.34375l3.6875 0z" fill-rule="nonzero"/><path fill="#000000" d="m281.01727 91.29426q0.984375 0 1.765625 0.46875q0.796875 0.453125 1.234375 1.28125q0.4375 0.8125 0.4375 1.828125q0 1.0625 -0.5 1.875q-0.5 0.8125 -1.40625 1.265625q-0.90625 0.4375 -2.109375 0.4375q-0.921875 0 -1.8125 -0.265625q-0.875 -0.265625 -1.5625 -0.75l0 -1.53125l0.0625 0q0.65625 0.5625 1.5625 0.921875q0.90625 0.34375 1.734375 0.34375q1.140625 0 1.859375 -0.640625q0.71875 -0.65625 0.71875 -1.703125q0 -1.0 -0.640625 -1.625q-0.625 -0.640625 -1.640625 -0.640625q-1.15625 0 -2.203125 0.859375l-0.0625 0l-1.046875 -0.4375l0 -0.078125l0.703125 -5.765625l5.8125 0l0 1.3125l-4.6875 0l-0.40625 3.421875q1.078125 -0.578125 2.1875 -0.578125z" fill-rule="nonzero"/><path fill="#000000" d="m323.76205 91.41926q1.109375 0 1.9375 0.421875q0.84375 0.421875 1.3125 1.1875q0.46875 0.765625 0.46875 1.78125q0 1.0625 -0.515625 1.90625q-0.5 0.828125 -1.40625 1.296875q-0.890625 0.453125 -2.015625 0.453125q-1.984375 0 -3.078125 -1.4375q-1.09375 -1.4375 -1.09375 -4.03125q0 -1.875 0.5625 -3.234375q0.5625 -1.359375 1.609375 -2.078125q1.0625 -0.734375 2.484375 -0.734375q0.78125 0 1.515625 0.21875q0.75 0.203125 1.40625 0.578125l0 1.40625l-0.0625 0q-0.65625 -0.453125 -1.359375 -0.6875q-0.703125 -0.25 -1.40625 -0.25q-1.453125 0 -2.28125 1.109375q-0.828125 1.09375 -0.921875 3.140625q0.65625 -0.546875 1.328125 -0.796875q0.6875 -0.25 1.515625 -0.25zm-0.25 5.78125q0.6875 0 1.25 -0.296875q0.5625 -0.3125 0.875 -0.84375q0.328125 -0.546875 0.328125 -1.21875q0 -0.984375 -0.65625 -1.5625q-0.640625 -0.578125 -1.6875 -0.578125q-1.3125 0 -2.703125 0.96875q0.109375 1.734375 0.765625 2.640625q0.65625 0.890625 1.828125 0.890625z" fill-rule="nonzero"/><path fill="#000000" d="m370.1475 87.13801l0 1.078125l-4.90625 10.0625l-1.609375 0l0 -0.0625l4.953125 -9.765625l-6.1875 0l0 -1.3125l7.75 0z" fill-rule="nonzero"/><path fill="#000000" d="m408.76727 98.46613q-1.15625 0 -2.09375 -0.40625q-0.921875 -0.421875 -1.453125 -1.15625q-0.515625 -0.75 -0.515625 -1.6875q0 -0.9375 0.515625 -1.65625q0.515625 -0.71875 1.328125 -1.015625q-0.734375 -0.25 -1.1875 -0.953125q-0.4375 -0.71875 -0.4375 -1.59375q0 -0.921875 0.484375 -1.609375q0.5 -0.6875 1.375 -1.0625q0.875 -0.375 1.96875 -0.375q1.109375 0 1.984375 0.375q0.875 0.375 1.359375 1.0625q0.5 0.6875 0.5 1.609375q0 0.859375 -0.4375 1.578125q-0.4375 0.703125 -1.203125 0.96875q0.875 0.3125 1.359375 1.046875q0.5 0.71875 0.5 1.625q0 0.953125 -0.53125 1.6875q-0.515625 0.734375 -1.4375 1.15625q-0.921875 0.40625 -2.078125 0.40625zm0 -6.59375q1.140625 0 1.765625 -0.484375q0.625 -0.484375 0.625 -1.359375q0 -0.890625 -0.625 -1.359375q-0.625 -0.484375 -1.78125 -0.484375q-1.140625 0 -1.765625 0.484375q-0.625 0.46875 -0.625 1.359375q0 0.875 0.625 1.359375q0.640625 0.484375 1.78125 0.484375zm-0.03125 5.34375q1.25 0 1.921875 -0.515625q0.671875 -0.515625 0.671875 -1.484375q0 -0.96875 -0.671875 -1.5q-0.671875 -0.53125 -1.90625 -0.53125q-1.21875 0 -1.890625 0.53125q-0.671875 0.53125 -0.671875 1.5q0 0.96875 0.65625 1.484375q0.671875 0.515625 1.890625 0.515625z" fill-rule="nonzero"/><path fill="#000000" d="m451.34018 86.95051q2.046875 0 3.09375 1.390625q1.046875 1.390625 1.046875 4.09375q0 2.96875 -1.21875 4.5q-1.203125 1.53125 -3.546875 1.53125q-0.8125 0 -1.46875 -0.1875q-0.65625 -0.203125 -1.34375 -0.671875l0 -1.4375l0.0625 0q1.3125 0.984375 2.875 0.984375q1.5 0 2.25 -1.0q0.765625 -1.0 0.84375 -3.109375q-1.21875 0.96875 -2.84375 0.96875q-1.734375 0 -2.734375 -0.90625q-0.984375 -0.90625 -0.984375 -2.484375q0 -1.109375 0.484375 -1.9375q0.5 -0.84375 1.40625 -1.28125q0.90625 -0.453125 2.078125 -0.453125zm-2.453125 3.59375q0 1.03125 0.640625 1.609375q0.640625 0.578125 1.75 0.578125q1.359375 0 2.65625 -0.96875q-0.09375 -1.828125 -0.71875 -2.671875q-0.625 -0.84375 -1.859375 -0.84375q-1.109375 0 -1.796875 0.640625q-0.671875 0.625 -0.671875 1.65625z" fill-rule="nonzero"/><path fill="#000000" d="m492.8281 96.95051l0 1.328125l-7.390625 0l0 -1.328125l3.296875 0l0 -8.0l-2.25 1.15625l-0.0625 0l-0.28125 -0.921875l0 -0.0625l2.9375 -1.984375l1.0625 0l0 9.8125l2.6875 0zm6.2168884 1.515625q-2.078125 0 -3.0625 -1.5625q-0.984375 -1.578125 -0.984375 -4.1875q0 -2.609375 0.984375 -4.1875q0.984375 -1.578125 3.0625 -1.578125q2.09375 0 3.078125 1.578125q0.984375 1.578125 0.984375 4.1875q0 2.609375 -0.984375 4.1875q-0.984375 1.5625 -3.078125 1.5625zm0 -1.28125q1.453125 0 1.984375 -1.1875q0.546875 -1.1875 0.546875 -3.28125q0 -2.09375 -0.546875 -3.28125q-0.53125 -1.203125 -1.984375 -1.203125q-1.4375 0 -1.984375 1.203125q-0.53125 1.1875 -0.53125 3.28125q0 2.09375 0.53125 3.28125q0.546875 1.1875 1.984375 1.1875z" fill-rule="nonzero"/><path shape-rendering="crispEdges" fill="#ffd966" d="m174.09186 150.78477l42.66667 0l0 40.0l-42.66667 0l0 -40.0z" fill-rule="nonzero"/><path shape-rendering="crispEdges" fill="#ffd966" d="m216.75853 150.78477l42.66667 0l0 40.0l-42.66667 0l0 -40.0z" fill-rule="nonzero"/><path shape-rendering="crispEdges" fill="#ffd966" d="m259.4252 150.78477l42.666656 0l0 40.0l-42.666656 0l0 -40.0z" fill-rule="nonzero"/><path shape-rendering="crispEdges" fill="#ffd966" d="m302.09186 150.78477l42.666687 0l0 40.0l-42.666687 0l0 -40.0z" fill-rule="nonzero"/><path shape-rendering="crispEdges" fill="#ffd966" d="m344.75854 150.78477l42.666656 0l0 40.0l-42.666656 0l0 -40.0z" fill-rule="nonzero"/><path stroke="#000000" stroke-width="1.3333333333333333" stroke-linecap="butt" d="m88.75853 150.1181l0 41.333344" fill-rule="nonzero"/><path stroke="#000000" stroke-width="1.3333333333333333" stroke-linecap="butt" d="m131.4252 150.1181l0 41.333344" fill-rule="nonzero"/><path stroke="#000000" stroke-width="1.3333333333333333" stroke-linecap="butt" d="m174.09186 150.1181l0 41.333344" fill-rule="nonzero"/><path stroke="#000000" stroke-width="1.3333333333333333" stroke-linecap="butt" d="m216.75853 150.1181l0 41.333344" fill-rule="nonzero"/><path stroke="#000000" stroke-width="1.3333333333333333" stroke-linecap="butt" d="m259.4252 150.1181l0 41.333344" fill-rule="nonzero"/><path stroke="#000000" stroke-width="1.3333333333333333" stroke-linecap="butt" d="m302.09186 150.1181l0 41.333344" fill-rule="nonzero"/><path stroke="#000000" stroke-width="1.3333333333333333" stroke-linecap="butt" d="m344.75854 150.1181l0 41.333344" fill-rule="nonzero"/><path stroke="#000000" stroke-width="1.3333333333333333" stroke-linecap="butt" d="m387.4252 150.1181l0 41.333344" fill-rule="nonzero"/><path stroke="#000000" stroke-width="1.3333333333333333" stroke-linecap="butt" d="m430.09186 150.1181l0 41.333344" fill-rule="nonzero"/><path stroke="#000000" stroke-width="1.3333333333333333" stroke-linecap="butt" d="m472.75854 150.1181l0 41.333344" fill-rule="nonzero"/><path stroke="#000000" stroke-width="1.3333333333333333" stroke-linecap="butt" d="m515.4252 150.1181l0 41.333344" fill-rule="nonzero"/><path stroke="#000000" stroke-width="1.3333333333333333" stroke-linecap="butt" d="m88.091866 150.78477l428.0 0" fill-rule="nonzero"/><path stroke="#000000" stroke-width="1.3333333333333333" stroke-linecap="butt" d="m88.091866 190.78477l428.0 0" fill-rule="nonzero"/><path fill="#000000" d="m113.78811 173.81665l0 1.328125l-7.390625 0l0 -1.328125l3.296875 0l0 -8.0l-2.25 1.15625l-0.0625 0l-0.28125 -0.921875l0 -0.0625l2.9375 -1.984375l1.0625 0l0 9.8125l2.6875 0z" fill-rule="nonzero"/><path fill="#000000" d="m156.45477 173.80103l0 1.34375l-7.390625 0l0 -1.078125l4.0 -4.265625q0.921875 -1.0 1.25 -1.578125q0.34375 -0.578125 0.34375 -1.171875q0 -0.9375 -0.625 -1.4375q-0.625 -0.5 -1.75 -0.5q-1.546875 0 -2.875 0.890625l0 -1.40625q1.328125 -0.78125 2.9375 -0.78125q1.140625 0 1.984375 0.375q0.859375 0.375 1.3125 1.0625q0.46875 0.6875 0.46875 1.609375q0 0.84375 -0.40625 1.703125q-0.40625 0.859375 -1.203125 1.6875l-3.4375 3.546875l5.390625 0z" fill-rule="nonzero"/><path fill="#000000" d="m197.04332 169.33228q0.96875 0.390625 1.515625 1.125q0.5625 0.71875 0.5625 1.671875q0 0.9375 -0.53125 1.671875q-0.53125 0.71875 -1.484375 1.125q-0.9375 0.40625 -2.15625 0.40625q-0.875 0 -1.65625 -0.21875q-0.765625 -0.21875 -1.5625 -0.6875l0 -1.46875l0.0625 0q0.8125 0.5625 1.5625 0.828125q0.765625 0.25 1.578125 0.25q1.21875 0 1.96875 -0.546875q0.75 -0.5625 0.75 -1.46875q0 -0.9375 -0.84375 -1.484375q-0.84375 -0.5625 -2.265625 -0.5625l-0.703125 0l0 -1.265625l0.703125 0q1.375 0 2.125 -0.46875q0.75 -0.46875 0.75 -1.3125q0 -0.84375 -0.671875 -1.3125q-0.65625 -0.484375 -1.78125 -0.484375q-0.6875 0 -1.359375 0.203125q-0.65625 0.203125 -1.484375 0.65625l-0.0625 0l0 -1.390625q1.4375 -0.78125 3.0 -0.78125q1.140625 0 2.0 0.359375q0.859375 0.359375 1.328125 1.015625q0.484375 0.65625 0.484375 1.515625q0 0.890625 -0.5 1.578125q-0.484375 0.6875 -1.328125 1.046875z" fill-rule="nonzero"/><path fill="#000000" d="m242.49123 172.5354l-1.765625 0l0 2.609375l-1.40625 0l0 -2.609375l-5.28125 0l0 -1.078125l0.109375 -0.015625l-0.109375 -0.03125l5.28125 -7.40625l1.40625 0l0 7.25l1.765625 0l0 1.28125zm-3.171875 -1.28125l0 -5.34375l-3.6875 5.34375l3.6875 0z" fill-rule="nonzero"/><path fill="#000000" d="m281.01727 168.1604q0.984375 0 1.765625 0.46875q0.796875 0.453125 1.234375 1.28125q0.4375 0.8125 0.4375 1.828125q0 1.0625 -0.5 1.875q-0.5 0.8125 -1.40625 1.265625q-0.90625 0.4375 -2.109375 0.4375q-0.921875 0 -1.8125 -0.265625q-0.875 -0.265625 -1.5625 -0.75l0 -1.53125l0.0625 0q0.65625 0.5625 1.5625 0.921875q0.90625 0.34375 1.734375 0.34375q1.140625 0 1.859375 -0.640625q0.71875 -0.65625 0.71875 -1.703125q0 -1.0 -0.640625 -1.625q-0.625 -0.640625 -1.640625 -0.640625q-1.15625 0 -2.203125 0.859375l-0.0625 0l-1.046875 -0.4375l0 -0.078125l0.703125 -5.765625l5.8125 0l0 1.3125l-4.6875 0l-0.40625 3.421875q1.078125 -0.578125 2.1875 -0.578125z" fill-rule="nonzero"/><path fill="#000000" d="m323.76205 168.2854q1.109375 0 1.9375 0.421875q0.84375 0.421875 1.3125 1.1875q0.46875 0.765625 0.46875 1.78125q0 1.0625 -0.515625 1.90625q-0.5 0.828125 -1.40625 1.296875q-0.890625 0.453125 -2.015625 0.453125q-1.984375 0 -3.078125 -1.4375q-1.09375 -1.4375 -1.09375 -4.03125q0 -1.875 0.5625 -3.234375q0.5625 -1.359375 1.609375 -2.078125q1.0625 -0.734375 2.484375 -0.734375q0.78125 0 1.515625 0.21875q0.75 0.203125 1.40625 0.578125l0 1.40625l-0.0625 0q-0.65625 -0.453125 -1.359375 -0.6875q-0.703125 -0.25 -1.40625 -0.25q-1.453125 0 -2.28125 1.109375q-0.828125 1.09375 -0.921875 3.140625q0.65625 -0.546875 1.328125 -0.796875q0.6875 -0.25 1.515625 -0.25zm-0.25 5.78125q0.6875 0 1.25 -0.296875q0.5625 -0.3125 0.875 -0.84375q0.328125 -0.546875 0.328125 -1.21875q0 -0.984375 -0.65625 -1.5625q-0.640625 -0.578125 -1.6875 -0.578125q-1.3125 0 -2.703125 0.96875q0.109375 1.734375 0.765625 2.640625q0.65625 0.890625 1.828125 0.890625z" fill-rule="nonzero"/><path fill="#000000" d="m370.1475 164.00415l0 1.078125l-4.90625 10.0625l-1.609375 0l0 -0.0625l4.953125 -9.765625l-6.1875 0l0 -1.3125l7.75 0z" fill-rule="nonzero"/><path fill="#000000" d="m408.76727 175.33228q-1.15625 0 -2.09375 -0.40625q-0.921875 -0.421875 -1.453125 -1.15625q-0.515625 -0.75 -0.515625 -1.6875q0 -0.9375 0.515625 -1.65625q0.515625 -0.71875 1.328125 -1.015625q-0.734375 -0.25 -1.1875 -0.953125q-0.4375 -0.71875 -0.4375 -1.59375q0 -0.921875 0.484375 -1.609375q0.5 -0.6875 1.375 -1.0625q0.875 -0.375 1.96875 -0.375q1.109375 0 1.984375 0.375q0.875 0.375 1.359375 1.0625q0.5 0.6875 0.5 1.609375q0 0.859375 -0.4375 1.578125q-0.4375 0.703125 -1.203125 0.96875q0.875 0.3125 1.359375 1.046875q0.5 0.71875 0.5 1.625q0 0.953125 -0.53125 1.6875q-0.515625 0.734375 -1.4375 1.15625q-0.921875 0.40625 -2.078125 0.40625zm0 -6.59375q1.140625 0 1.765625 -0.484375q0.625 -0.484375 0.625 -1.359375q0 -0.890625 -0.625 -1.359375q-0.625 -0.484375 -1.78125 -0.484375q-1.140625 0 -1.765625 0.484375q-0.625 0.46875 -0.625 1.359375q0 0.875 0.625 1.359375q0.640625 0.484375 1.78125 0.484375zm-0.03125 5.34375q1.25 0 1.921875 -0.515625q0.671875 -0.515625 0.671875 -1.484375q0 -0.96875 -0.671875 -1.5q-0.671875 -0.53125 -1.90625 -0.53125q-1.21875 0 -1.890625 0.53125q-0.671875 0.53125 -0.671875 1.5q0 0.96875 0.65625 1.484375q0.671875 0.515625 1.890625 0.515625z" fill-rule="nonzero"/><path fill="#000000" d="m451.34018 163.81665q2.046875 0 3.09375 1.390625q1.046875 1.390625 1.046875 4.09375q0 2.96875 -1.21875 4.5q-1.203125 1.53125 -3.546875 1.53125q-0.8125 0 -1.46875 -0.1875q-0.65625 -0.203125 -1.34375 -0.671875l0 -1.4375l0.0625 0q1.3125 0.984375 2.875 0.984375q1.5 0 2.25 -1.0q0.765625 -1.0 0.84375 -3.109375q-1.21875 0.96875 -2.84375 0.96875q-1.734375 0 -2.734375 -0.90625q-0.984375 -0.90625 -0.984375 -2.484375q0 -1.109375 0.484375 -1.9375q0.5 -0.84375 1.40625 -1.28125q0.90625 -0.453125 2.078125 -0.453125zm-2.453125 3.59375q0 1.03125 0.640625 1.609375q0.640625 0.578125 1.75 0.578125q1.359375 0 2.65625 -0.96875q-0.09375 -1.828125 -0.71875 -2.671875q-0.625 -0.84375 -1.859375 -0.84375q-1.109375 0 -1.796875 0.640625q-0.671875 0.625 -0.671875 1.65625z" fill-rule="nonzero"/><path fill="#000000" d="m492.8281 173.81665l0 1.328125l-7.390625 0l0 -1.328125l3.296875 0l0 -8.0l-2.25 1.15625l-0.0625 0l-0.28125 -0.921875l0 -0.0625l2.9375 -1.984375l1.0625 0l0 9.8125l2.6875 0zm6.2168884 1.515625q-2.078125 0 -3.0625 -1.5625q-0.984375 -1.578125 -0.984375 -4.1875q0 -2.609375 0.984375 -4.1875q0.984375 -1.578125 3.0625 -1.578125q2.09375 0 3.078125 1.578125q0.984375 1.578125 0.984375 4.1875q0 2.609375 -0.984375 4.1875q-0.984375 1.5625 -3.078125 1.5625zm0 -1.28125q1.453125 0 1.984375 -1.1875q0.546875 -1.1875 0.546875 -3.28125q0 -2.09375 -0.546875 -3.28125q-0.53125 -1.203125 -1.984375 -1.203125q-1.4375 0 -1.984375 1.203125q-0.53125 1.1875 -0.53125 3.28125q0 2.09375 0.53125 3.28125q0.546875 1.1875 1.984375 1.1875z" fill-rule="nonzero"/></g></svg>