<svg version="1.1" viewBox="0.0 0.0 624.2362204724409 543.0341207349081" fill="none" stroke="none" stroke-linecap="square" stroke-miterlimit="10" xmlns:xlink="http://www.w3.org/1999/xlink" xmlns="http://www.w3.org/2000/svg"><clipPath id="p.0"><path d="m0 0l624.2362 0l0 543.0341l-624.2362 0l0 -543.0341z" clip-rule="nonzero"/></clipPath><g clip-path="url(#p.0)"><path fill="#000000" fill-opacity="0.0" d="m0 0l624.2362 0l0 543.0341l-624.2362 0z" fill-rule="evenodd"/><path shape-rendering="crispEdges" fill="#4a86e8" d="m136.0 173.33333l66.66667 0l0 61.333344l-66.66667 0l0 -61.333344z" fill-rule="nonzero"/><path shape-rendering="crispEdges" fill="#4a86e8" d="m136.0 234.66667l66.66667 0l0 61.33333l-66.66667 0l0 -61.33333z" fill-rule="nonzero"/><path shape-rendering="crispEdges" fill="#ff9900" d="m202.66667 234.66667l66.66667 0l0 61.33333l-66.66667 0l0 -61.33333z" fill-rule="nonzero"/><path shape-rendering="crispEdges" fill="#4a86e8" d="m269.33334 234.66667l66.66666 0l0 61.33333l-66.66666 0l0 -61.33333z" fill-rule="nonzero"/><path shape-rendering="crispEdges" fill="#4a86e8" d="m136.0 296.0l66.66667 0l0 61.333344l-66.66667 0l0 -61.333344z" fill-rule="nonzero"/><path shape-rendering="crispEdges" fill="#ff9900" d="m202.66667 296.0l66.66667 0l0 61.333344l-66.66667 0l0 -61.333344z" fill-rule="nonzero"/><path shape-rendering="crispEdges" fill="#4a86e8" d="m269.33334 296.0l66.66666 0l0 61.333344l-66.66666 0l0 -61.333344z" fill-rule="nonzero"/><path shape-rendering="crispEdges" fill="#ff9900" d="m336.0 296.0l66.66666 0l0 61.333344l-66.66666 0l0 -61.333344z" fill-rule="nonzero"/><path shape-rendering="crispEdges" fill="#4a86e8" d="m136.0 357.33334l66.66667 0l0 61.333313l-66.66667 0l0 -61.333313z" fill-rule="nonzero"/><path shape-rendering="crispEdges" fill="#ff9900" d="m202.66667 357.33334l66.66667 0l0 61.333313l-66.66667 0l0 -61.333313z" fill-rule="nonzero"/><path shape-rendering="crispEdges" fill="#4a86e8" d="m269.33334 357.33334l66.66666 0l0 61.333313l-66.66666 0l0 -61.333313z" fill-rule="nonzero"/><path shape-rendering="crispEdges" fill="#ff9900" d="m336.0 357.33334l66.66666 0l0 61.333313l-66.66666 0l0 -61.333313z" fill-rule="nonzero"/><path shape-rendering="crispEdges" fill="#4a86e8" d="m402.66666 357.33334l66.66669 0l0 61.333313l-66.66669 0l0 -61.333313z" fill-rule="nonzero"/><path stroke="#000000" stroke-width="1.3333333333333333" stroke-linecap="butt" d="m136.0 111.333336l0 308.0" fill-rule="nonzero"/><path stroke="#000000" stroke-width="1.3333333333333333" stroke-linecap="butt" d="m202.66667 111.333336l0 308.0" fill-rule="nonzero"/><path stroke="#000000" stroke-width="1.3333333333333333" stroke-linecap="butt" d="m269.33334 111.333336l0 308.0" fill-rule="nonzero"/><path stroke="#000000" stroke-width="1.3333333333333333" stroke-linecap="butt" d="m336.0 111.333336l0 308.0" fill-rule="nonzero"/><path stroke="#000000" stroke-width="1.3333333333333333" stroke-linecap="butt" d="m402.66666 111.333336l0 308.0" fill-rule="nonzero"/><path stroke="#000000" stroke-width="1.3333333333333333" stroke-linecap="butt" d="m469.33334 111.333336l0 308.0" fill-rule="nonzero"/><path stroke="#000000" stroke-width="1.3333333333333333" stroke-linecap="butt" d="m135.33333 112.0l334.6667 0" fill-rule="nonzero"/><path stroke="#000000" stroke-width="1.3333333333333333" stroke-linecap="butt" d="m135.33333 173.33333l334.6667 0" fill-rule="nonzero"/><path stroke="#000000" stroke-width="1.3333333333333333" stroke-linecap="butt" d="m135.33333 234.66667l334.6667 0" fill-rule="nonzero"/><path stroke="#000000" stroke-width="1.3333333333333333" stroke-linecap="butt" d="m135.33333 296.0l334.6667 0" fill-rule="nonzero"/><path stroke="#000000" stroke-width="1.3333333333333333" stroke-linecap="butt" d="m135.33333 357.33334l334.6667 0" fill-rule="nonzero"/><path stroke="#000000" stroke-width="1.3333333333333333" stroke-linecap="butt" d="m135.33333 418.66666l334.6667 0" fill-rule="nonzero"/><path fill="#000000" d="m148.875 198.11646q-2.90625 -2.34375 -2.90625 -6.796875q0 -2.078125 0.703125 -3.796875q0.71875 -1.71875 2.203125 -3.015625l0.5625 0.703125q-1.125 1.1875 -1.609375 2.71875q-0.46875 1.515625 -0.46875 3.390625q0 1.921875 0.453125 3.453125q0.46875 1.515625 1.640625 2.640625l-0.578125 0.703125zm5.830902 -1.53125q-1.90625 0 -2.8125 -1.4375q-0.90625 -1.453125 -0.90625 -3.828125q0 -2.390625 0.90625 -3.828125q0.90625 -1.453125 2.8125 -1.453125q1.90625 0 2.796875 1.453125q0.90625 1.4375 0.90625 3.828125q0 2.375 -0.90625 3.828125q-0.890625 1.4375 -2.796875 1.4375zm0 -1.171875q1.3125 0 1.8125 -1.09375q0.5 -1.09375 0.5 -3.0q0 -1.921875 -0.5 -3.015625q-0.5 -1.09375 -1.8125 -1.09375q-1.328125 0 -1.828125 1.09375q-0.484375 1.09375 -0.484375 3.015625q0 1.90625 0.484375 3.0q0.5 1.09375 1.828125 1.09375zm11.284424 -0.765625q0 0.890625 -0.265625 1.828125q-0.265625 0.9375 -0.9375 2.140625l-1.296875 0q0.484375 -0.796875 0.703125 -1.5q0.21875 -0.6875 0.265625 -1.21875q0.0625 -0.53125 0.0625 -1.25l1.46875 0zm13.195648 0.546875l0 1.21875l-6.765625 0l0 -1.21875l3.015625 0l0 -7.328125l-2.046875 1.0625l-0.0625 0l-0.265625 -0.84375l0 -0.0625l2.703125 -1.8125l0.96875 0l0 8.984375l2.453125 0zm1.8681641 2.21875q1.171875 -1.125 1.625 -2.640625q0.46875 -1.53125 0.46875 -3.453125q0 -1.875 -0.484375 -3.390625q-0.46875 -1.53125 -1.59375 -2.71875l0.578125 -0.703125q1.46875 1.296875 2.171875 3.015625q0.71875 1.71875 0.71875 3.796875q0 4.453125 -2.890625 6.796875l-0.59375 -0.703125z" fill-rule="nonzero"/><path fill="#000000" d="m148.875 259.4498q-2.90625 -2.34375 -2.90625 -6.796875q0 -2.078125 0.703125 -3.796875q0.71875 -1.71875 2.203125 -3.015625l0.5625 0.703125q-1.125 1.1875 -1.609375 2.71875q-0.46875 1.515625 -0.46875 3.390625q0 1.921875 0.453125 3.453125q0.46875 1.515625 1.640625 2.640625l-0.578125 0.703125zm5.830902 -1.53125q-1.90625 0 -2.8125 -1.4375q-0.90625 -1.453125 -0.90625 -3.828125q0 -2.390625 0.90625 -3.828125q0.90625 -1.453125 2.8125 -1.453125q1.90625 0 2.796875 1.453125q0.90625 1.4375 0.90625 3.828125q0 2.375 -0.90625 3.828125q-0.890625 1.4375 -2.796875 1.4375zm0 -1.171875q1.3125 0 1.8125 -1.09375q0.5 -1.09375 0.5 -3.0q0 -1.921875 -0.5 -3.015625q-0.5 -1.09375 -1.8125 -1.09375q-1.328125 0 -1.828125 1.09375q-0.484375 1.09375 -0.484375 3.015625q0 1.90625 0.484375 3.0q0.5 1.09375 1.828125 1.09375zm11.284424 -0.765625q0 0.890625 -0.265625 1.828125q-0.265625 0.9375 -0.9375 2.140625l-1.296875 0q0.484375 -0.796875 0.703125 -1.5q0.21875 -0.6875 0.265625 -1.21875q0.0625 -0.53125 0.0625 -1.25l1.46875 0zm13.195648 0.53125l0 1.234375l-6.765625 0l0 -0.984375l3.671875 -3.90625q0.84375 -0.90625 1.140625 -1.4375q0.3125 -0.546875 0.3125 -1.09375q0 -0.84375 -0.578125 -1.296875q-0.5625 -0.46875 -1.59375 -0.46875q-1.40625 0 -2.625 0.8125l0 -1.28125q1.21875 -0.71875 2.671875 -0.71875q1.046875 0 1.828125 0.34375q0.78125 0.34375 1.203125 0.984375q0.4375 0.625 0.4375 1.453125q0 0.78125 -0.375 1.578125q-0.375 0.78125 -1.109375 1.53125l-3.15625 3.25l4.9375 0zm1.8681641 2.234375q1.171875 -1.125 1.625 -2.640625q0.46875 -1.53125 0.46875 -3.453125q0 -1.875 -0.484375 -3.390625q-0.46875 -1.53125 -1.59375 -2.71875l0.578125 -0.703125q1.46875 1.296875 2.171875 3.015625q0.71875 1.71875 0.71875 3.796875q0 4.453125 -2.890625 6.796875l-0.59375 -0.703125z" fill-rule="nonzero"/><path fill="#000000" d="m215.54167 259.4498q-2.90625 -2.34375 -2.90625 -6.796875q0 -2.078125 0.703125 -3.796875q0.71875 -1.71875 2.203125 -3.015625l0.5625 0.703125q-1.125 1.1875 -1.609375 2.71875q-0.46875 1.515625 -0.46875 3.390625q0 1.921875 0.453125 3.453125q0.46875 1.515625 1.640625 2.640625l-0.578125 0.703125zm5.830902 -1.53125q-1.90625 0 -2.8125 -1.4375q-0.90625 -1.453125 -0.90625 -3.828125q0 -2.390625 0.90625 -3.828125q0.90625 -1.453125 2.8125 -1.453125q1.90625 0 2.796875 1.453125q0.90625 1.4375 0.90625 3.828125q0 2.375 -0.90625 3.828125q-0.890625 1.4375 -2.796875 1.4375zm0 -1.171875q1.3125 0 1.8125 -1.09375q0.5 -1.09375 0.5 -3.0q0 -1.921875 -0.5 -3.015625q-0.5 -1.09375 -1.8125 -1.09375q-1.328125 0 -1.828125 1.09375q-0.484375 1.09375 -0.484375 3.015625q0 1.90625 0.484375 3.0q0.5 1.09375 1.828125 1.09375zm11.284424 -0.765625q0 0.890625 -0.265625 1.828125q-0.265625 0.9375 -0.9375 2.140625l-1.296875 0q0.484375 -0.796875 0.703125 -1.5q0.21875 -0.6875 0.265625 -1.21875q0.0625 -0.53125 0.0625 -1.25l1.46875 0zm13.195648 0.53125l0 1.234375l-6.765625 0l0 -0.984375l3.671875 -3.90625q0.84375 -0.90625 1.140625 -1.4375q0.3125 -0.546875 0.3125 -1.09375q0 -0.84375 -0.578125 -1.296875q-0.5625 -0.46875 -1.59375 -0.46875q-1.40625 0 -2.625 0.8125l0 -1.28125q1.21875 -0.71875 2.671875 -0.71875q1.046875 0 1.828125 0.34375q0.78125 0.34375 1.203125 0.984375q0.4375 0.625 0.4375 1.453125q0 0.78125 -0.375 1.578125q-0.375 0.78125 -1.109375 1.53125l-3.15625 3.25l4.9375 0zm1.8681641 2.234375q1.171875 -1.125 1.625 -2.640625q0.46875 -1.53125 0.46875 -3.453125q0 -1.875 -0.484375 -3.390625q-0.46875 -1.53125 -1.59375 -2.71875l0.578125 -0.703125q1.46875 1.296875 2.171875 3.015625q0.71875 1.71875 0.71875 3.796875q0 4.453125 -2.890625 6.796875l-0.59375 -0.703125z" fill-rule="nonzero"/><path fill="#000000" d="m282.20834 259.4498q-2.90625 -2.34375 -2.90625 -6.796875q0 -2.078125 0.703125 -3.796875q0.71875 -1.71875 2.203125 -3.015625l0.5625 0.703125q-1.125 1.1875 -1.609375 2.71875q-0.46875 1.515625 -0.46875 3.390625q0 1.921875 0.453125 3.453125q0.46875 1.515625 1.640625 2.640625l-0.578125 0.703125zm5.830902 -1.53125q-1.90625 0 -2.8125 -1.4375q-0.90625 -1.453125 -0.90625 -3.828125q0 -2.390625 0.90625 -3.828125q0.90625 -1.453125 2.8125 -1.453125q1.90625 0 2.796875 1.453125q0.90625 1.4375 0.90625 3.828125q0 2.375 -0.90625 3.828125q-0.890625 1.4375 -2.796875 1.4375zm0 -1.171875q1.3125 0 1.8125 -1.09375q0.5 -1.09375 0.5 -3.0q0 -1.921875 -0.5 -3.015625q-0.5 -1.09375 -1.8125 -1.09375q-1.328125 0 -1.828125 1.09375q-0.484375 1.09375 -0.484375 3.015625q0 1.90625 0.484375 3.0q0.5 1.09375 1.828125 1.09375zm11.284424 -0.765625q0 0.890625 -0.265625 1.828125q-0.265625 0.9375 -0.9375 2.140625l-1.296875 0q0.484375 -0.796875 0.703125 -1.5q0.21875 -0.6875 0.265625 -1.21875q0.0625 -0.53125 0.0625 -1.25l1.46875 0zm13.195648 0.53125l0 1.234375l-6.765625 0l0 -0.984375l3.671875 -3.90625q0.84375 -0.90625 1.140625 -1.4375q0.3125 -0.546875 0.3125 -1.09375q0 -0.84375 -0.578125 -1.296875q-0.5625 -0.46875 -1.59375 -0.46875q-1.40625 0 -2.625 0.8125l0 -1.28125q1.21875 -0.71875 2.671875 -0.71875q1.046875 0 1.828125 0.34375q0.78125 0.34375 1.203125 0.984375q0.4375 0.625 0.4375 1.453125q0 0.78125 -0.375 1.578125q-0.375 0.78125 -1.109375 1.53125l-3.15625 3.25l4.9375 0zm1.8681641 2.234375q1.171875 -1.125 1.625 -2.640625q0.46875 -1.53125 0.46875 -3.453125q0 -1.875 -0.484375 -3.390625q-0.46875 -1.53125 -1.59375 -2.71875l0.578125 -0.703125q1.46875 1.296875 2.171875 3.015625q0.71875 1.71875 0.71875 3.796875q0 4.453125 -2.890625 6.796875l-0.59375 -0.703125z" fill-rule="nonzero"/><path fill="#000000" d="m148.875 320.7831q-2.90625 -2.34375 -2.90625 -6.796875q0 -2.078125 0.703125 -3.796875q0.71875 -1.71875 2.203125 -3.015625l0.5625 0.703125q-1.125 1.1875 -1.609375 2.71875q-0.46875 1.515625 -0.46875 3.390625q0 1.921875 0.453125 3.453125q0.46875 1.515625 1.640625 2.640625l-0.578125 0.703125zm5.830902 -1.53125q-1.90625 0 -2.8125 -1.4375q-0.90625 -1.453125 -0.90625 -3.828125q0 -2.390625 0.90625 -3.828125q0.90625 -1.453125 2.8125 -1.453125q1.90625 0 2.796875 1.453125q0.90625 1.4375 0.90625 3.828125q0 2.375 -0.90625 3.828125q-0.890625 1.4375 -2.796875 1.4375zm0 -1.171875q1.3125 0 1.8125 -1.09375q0.5 -1.09375 0.5 -3.0q0 -1.921875 -0.5 -3.015625q-0.5 -1.09375 -1.8125 -1.09375q-1.328125 0 -1.828125 1.09375q-0.484375 1.09375 -0.484375 3.015625q0 1.90625 0.484375 3.0q0.5 1.09375 1.828125 1.09375zm11.284424 -0.765625q0 0.890625 -0.265625 1.828125q-0.265625 0.9375 -0.9375 2.140625l-1.296875 0q0.484375 -0.796875 0.703125 -1.5q0.21875 -0.6875 0.265625 -1.21875q0.0625 -0.53125 0.0625 -1.25l1.46875 0zm11.305023 -3.546875q0.890625 0.34375 1.390625 1.015625q0.5 0.65625 0.5 1.546875q0 0.84375 -0.484375 1.515625q-0.46875 0.65625 -1.34375 1.03125q-0.875 0.375 -1.984375 0.375q-0.796875 0 -1.515625 -0.203125q-0.703125 -0.203125 -1.4375 -0.625l0 -1.359375l0.0625 0q0.75 0.515625 1.4375 0.765625q0.703125 0.234375 1.4375 0.234375q1.109375 0 1.796875 -0.5q0.6875 -0.515625 0.6875 -1.34375q0 -0.859375 -0.765625 -1.359375q-0.765625 -0.515625 -2.078125 -0.515625l-0.640625 0l0 -1.15625l0.640625 0q1.265625 0 1.953125 -0.421875q0.6875 -0.4375 0.6875 -1.21875q0 -0.765625 -0.609375 -1.203125q-0.609375 -0.4375 -1.640625 -0.4375q-0.640625 0 -1.25 0.1875q-0.609375 0.171875 -1.34375 0.59375l-0.0625 0l0 -1.265625q1.296875 -0.71875 2.734375 -0.71875q1.046875 0 1.828125 0.328125q0.796875 0.328125 1.21875 0.9375q0.4375 0.59375 0.4375 1.390625q0 0.796875 -0.453125 1.4375q-0.4375 0.625 -1.203125 0.96875zm3.758789 6.3125q1.171875 -1.125 1.625 -2.640625q0.46875 -1.53125 0.46875 -3.453125q0 -1.875 -0.484375 -3.390625q-0.46875 -1.53125 -1.59375 -2.71875l0.578125 -0.703125q1.46875 1.296875 2.171875 3.015625q0.71875 1.71875 0.71875 3.796875q0 4.453125 -2.890625 6.796875l-0.59375 -0.703125z" fill-rule="nonzero"/><path fill="#000000" d="m215.54167 320.7831q-2.90625 -2.34375 -2.90625 -6.796875q0 -2.078125 0.703125 -3.796875q0.71875 -1.71875 2.203125 -3.015625l0.5625 0.703125q-1.125 1.1875 -1.609375 2.71875q-0.46875 1.515625 -0.46875 3.390625q0 1.921875 0.453125 3.453125q0.46875 1.515625 1.640625 2.640625l-0.578125 0.703125zm5.830902 -1.53125q-1.90625 0 -2.8125 -1.4375q-0.90625 -1.453125 -0.90625 -3.828125q0 -2.390625 0.90625 -3.828125q0.90625 -1.453125 2.8125 -1.453125q1.90625 0 2.796875 1.453125q0.90625 1.4375 0.90625 3.828125q0 2.375 -0.90625 3.828125q-0.890625 1.4375 -2.796875 1.4375zm0 -1.171875q1.3125 0 1.8125 -1.09375q0.5 -1.09375 0.5 -3.0q0 -1.921875 -0.5 -3.015625q-0.5 -1.09375 -1.8125 -1.09375q-1.328125 0 -1.828125 1.09375q-0.484375 1.09375 -0.484375 3.015625q0 1.90625 0.484375 3.0q0.5 1.09375 1.828125 1.09375zm11.284424 -0.765625q0 0.890625 -0.265625 1.828125q-0.265625 0.9375 -0.9375 2.140625l-1.296875 0q0.484375 -0.796875 0.703125 -1.5q0.21875 -0.6875 0.265625 -1.21875q0.0625 -0.53125 0.0625 -1.25l1.46875 0zm13.195648 0.53125l0 1.234375l-6.765625 0l0 -0.984375l3.671875 -3.90625q0.84375 -0.90625 1.140625 -1.4375q0.3125 -0.546875 0.3125 -1.09375q0 -0.84375 -0.578125 -1.296875q-0.5625 -0.46875 -1.59375 -0.46875q-1.40625 0 -2.625 0.8125l0 -1.28125q1.21875 -0.71875 2.671875 -0.71875q1.046875 0 1.828125 0.34375q0.78125 0.34375 1.203125 0.984375q0.4375 0.625 0.4375 1.453125q0 0.78125 -0.375 1.578125q-0.375 0.78125 -1.109375 1.53125l-3.15625 3.25l4.9375 0zm1.8681641 2.234375q1.171875 -1.125 1.625 -2.640625q0.46875 -1.53125 0.46875 -3.453125q0 -1.875 -0.484375 -3.390625q-0.46875 -1.53125 -1.59375 -2.71875l0.578125 -0.703125q1.46875 1.296875 2.171875 3.015625q0.71875 1.71875 0.71875 3.796875q0 4.453125 -2.890625 6.796875l-0.59375 -0.703125z" fill-rule="nonzero"/><path fill="#000000" d="m282.20834 320.7831q-2.90625 -2.34375 -2.90625 -6.796875q0 -2.078125 0.703125 -3.796875q0.71875 -1.71875 2.203125 -3.015625l0.5625 0.703125q-1.125 1.1875 -1.609375 2.71875q-0.46875 1.515625 -0.46875 3.390625q0 1.921875 0.453125 3.453125q0.46875 1.515625 1.640625 2.640625l-0.578125 0.703125zm5.830902 -1.53125q-1.90625 0 -2.8125 -1.4375q-0.90625 -1.453125 -0.90625 -3.828125q0 -2.390625 0.90625 -3.828125q0.90625 -1.453125 2.8125 -1.453125q1.90625 0 2.796875 1.453125q0.90625 1.4375 0.90625 3.828125q0 2.375 -0.90625 3.828125q-0.890625 1.4375 -2.796875 1.4375zm0 -1.171875q1.3125 0 1.8125 -1.09375q0.5 -1.09375 0.5 -3.0q0 -1.921875 -0.5 -3.015625q-0.5 -1.09375 -1.8125 -1.09375q-1.328125 0 -1.828125 1.09375q-0.484375 1.09375 -0.484375 3.015625q0 1.90625 0.484375 3.0q0.5 1.09375 1.828125 1.09375zm11.284424 -0.765625q0 0.890625 -0.265625 1.828125q-0.265625 0.9375 -0.9375 2.140625l-1.296875 0q0.484375 -0.796875 0.703125 -1.5q0.21875 -0.6875 0.265625 -1.21875q0.0625 -0.53125 0.0625 -1.25l1.46875 0zm13.195648 0.53125l0 1.234375l-6.765625 0l0 -0.984375l3.671875 -3.90625q0.84375 -0.90625 1.140625 -1.4375q0.3125 -0.546875 0.3125 -1.09375q0 -0.84375 -0.578125 -1.296875q-0.5625 -0.46875 -1.59375 -0.46875q-1.40625 0 -2.625 0.8125l0 -1.28125q1.21875 -0.71875 2.671875 -0.71875q1.046875 0 1.828125 0.34375q0.78125 0.34375 1.203125 0.984375q0.4375 0.625 0.4375 1.453125q0 0.78125 -0.375 1.578125q-0.375 0.78125 -1.109375 1.53125l-3.15625 3.25l4.9375 0zm1.8681641 2.234375q1.171875 -1.125 1.625 -2.640625q0.46875 -1.53125 0.46875 -3.453125q0 -1.875 -0.484375 -3.390625q-0.46875 -1.53125 -1.59375 -2.71875l0.578125 -0.703125q1.46875 1.296875 2.171875 3.015625q0.71875 1.71875 0.71875 3.796875q0 4.453125 -2.890625 6.796875l-0.59375 -0.703125z" fill-rule="nonzero"/><path fill="#000000" d="m348.875 320.7831q-2.90625 -2.34375 -2.90625 -6.796875q0 -2.078125 0.703125 -3.796875q0.71875 -1.71875 2.203125 -3.015625l0.5625 0.703125q-1.125 1.1875 -1.609375 2.71875q-0.46875 1.515625 -0.46875 3.390625q0 1.921875 0.453125 3.453125q0.46875 1.515625 1.640625 2.640625l-0.578125 0.703125zm5.830902 -1.53125q-1.90625 0 -2.8125 -1.4375q-0.90625 -1.453125 -0.90625 -3.828125q0 -2.390625 0.90625 -3.828125q0.90625 -1.453125 2.8125 -1.453125q1.90625 0 2.796875 1.453125q0.90625 1.4375 0.90625 3.828125q0 2.375 -0.90625 3.828125q-0.890625 1.4375 -2.796875 1.4375zm0 -1.171875q1.3125 0 1.8125 -1.09375q0.5 -1.09375 0.5 -3.0q0 -1.921875 -0.5 -3.015625q-0.5 -1.09375 -1.8125 -1.09375q-1.328125 0 -1.828125 1.09375q-0.484375 1.09375 -0.484375 3.015625q0 1.90625 0.484375 3.0q0.5 1.09375 1.828125 1.09375zm11.284424 -0.765625q0 0.890625 -0.265625 1.828125q-0.265625 0.9375 -0.9375 2.140625l-1.296875 0q0.484375 -0.796875 0.703125 -1.5q0.21875 -0.6875 0.265625 -1.21875q0.0625 -0.53125 0.0625 -1.25l1.46875 0zm13.195648 0.53125l0 1.234375l-6.765625 0l0 -0.984375l3.671875 -3.90625q0.84375 -0.90625 1.140625 -1.4375q0.3125 -0.546875 0.3125 -1.09375q0 -0.84375 -0.578125 -1.296875q-0.5625 -0.46875 -1.59375 -0.46875q-1.40625 0 -2.625 0.8125l0 -1.28125q1.21875 -0.71875 2.671875 -0.71875q1.046875 0 1.828125 0.34375q0.78125 0.34375 1.203125 0.984375q0.4375 0.625 0.4375 1.453125q0 0.78125 -0.375 1.578125q-0.375 0.78125 -1.109375 1.53125l-3.15625 3.25l4.9375 0zm1.8681641 2.234375q1.171875 -1.125 1.625 -2.640625q0.46875 -1.53125 0.46875 -3.453125q0 -1.875 -0.484375 -3.390625q-0.46875 -1.53125 -1.59375 -2.71875l0.578125 -0.703125q1.46875 1.296875 2.171875 3.015625q0.71875 1.71875 0.71875 3.796875q0 4.453125 -2.890625 6.796875l-0.59375 -0.703125z" fill-rule="nonzero"/><path fill="#000000" d="m148.875 382.11646q-2.90625 -2.34375 -2.90625 -6.796875q0 -2.078125 0.703125 -3.796875q0.71875 -1.71875 2.203125 -3.015625l0.5625 0.703125q-1.125 1.1875 -1.609375 2.71875q-0.46875 1.515625 -0.46875 3.390625q0 1.921875 0.453125 3.453125q0.46875 1.515625 1.640625 2.640625l-0.578125 0.703125zm5.830902 -1.53125q-1.90625 0 -2.8125 -1.4375q-0.90625 -1.453125 -0.90625 -3.828125q0 -2.390625 0.90625 -3.828125q0.90625 -1.453125 2.8125 -1.453125q1.90625 0 2.796875 1.453125q0.90625 1.4375 0.90625 3.828125q0 2.375 -0.90625 3.828125q-0.890625 1.4375 -2.796875 1.4375zm0 -1.171875q1.3125 0 1.8125 -1.09375q0.5 -1.09375 0.5 -3.0q0 -1.921875 -0.5 -3.015625q-0.5 -1.09375 -1.8125 -1.09375q-1.328125 0 -1.828125 1.09375q-0.484375 1.09375 -0.484375 3.015625q0 1.90625 0.484375 3.0q0.5 1.09375 1.828125 1.09375zm11.284424 -0.765625q0 0.890625 -0.265625 1.828125q-0.265625 0.9375 -0.9375 2.140625l-1.296875 0q0.484375 -0.796875 0.703125 -1.5q0.21875 -0.6875 0.265625 -1.21875q0.0625 -0.53125 0.0625 -1.25l1.46875 0zm13.851898 -0.625l-1.609375 0l0 2.390625l-1.296875 0l0 -2.390625l-4.84375 0l0 -0.984375l0.09375 -0.015625l-0.09375 -0.03125l4.84375 -6.78125l1.296875 0l0 6.640625l1.609375 0l0 1.171875zm-2.90625 -1.171875l0 -4.890625l-3.390625 4.890625l3.390625 0zm4.118164 4.5625q1.171875 -1.125 1.625 -2.640625q0.46875 -1.53125 0.46875 -3.453125q0 -1.875 -0.484375 -3.390625q-0.46875 -1.53125 -1.59375 -2.71875l0.578125 -0.703125q1.46875 1.296875 2.171875 3.015625q0.71875 1.71875 0.71875 3.796875q0 4.453125 -2.890625 6.796875l-0.59375 -0.703125z" fill-rule="nonzero"/><path fill="#000000" d="m215.54167 382.11646q-2.90625 -2.34375 -2.90625 -6.796875q0 -2.078125 0.703125 -3.796875q0.71875 -1.71875 2.203125 -3.015625l0.5625 0.703125q-1.125 1.1875 -1.609375 2.71875q-0.46875 1.515625 -0.46875 3.390625q0 1.921875 0.453125 3.453125q0.46875 1.515625 1.640625 2.640625l-0.578125 0.703125zm5.830902 -1.53125q-1.90625 0 -2.8125 -1.4375q-0.90625 -1.453125 -0.90625 -3.828125q0 -2.390625 0.90625 -3.828125q0.90625 -1.453125 2.8125 -1.453125q1.90625 0 2.796875 1.453125q0.90625 1.4375 0.90625 3.828125q0 2.375 -0.90625 3.828125q-0.890625 1.4375 -2.796875 1.4375zm0 -1.171875q1.3125 0 1.8125 -1.09375q0.5 -1.09375 0.5 -3.0q0 -1.921875 -0.5 -3.015625q-0.5 -1.09375 -1.8125 -1.09375q-1.328125 0 -1.828125 1.09375q-0.484375 1.09375 -0.484375 3.015625q0 1.90625 0.484375 3.0q0.5 1.09375 1.828125 1.09375zm11.284424 -0.765625q0 0.890625 -0.265625 1.828125q-0.265625 0.9375 -0.9375 2.140625l-1.296875 0q0.484375 -0.796875 0.703125 -1.5q0.21875 -0.6875 0.265625 -1.21875q0.0625 -0.53125 0.0625 -1.25l1.46875 0zm13.195648 0.53125l0 1.234375l-6.765625 0l0 -0.984375l3.671875 -3.90625q0.84375 -0.90625 1.140625 -1.4375q0.3125 -0.546875 0.3125 -1.09375q0 -0.84375 -0.578125 -1.296875q-0.5625 -0.46875 -1.59375 -0.46875q-1.40625 0 -2.625 0.8125l0 -1.28125q1.21875 -0.71875 2.671875 -0.71875q1.046875 0 1.828125 0.34375q0.78125 0.34375 1.203125 0.984375q0.4375 0.625 0.4375 1.453125q0 0.78125 -0.375 1.578125q-0.375 0.78125 -1.109375 1.53125l-3.15625 3.25l4.9375 0zm1.8681641 2.234375q1.171875 -1.125 1.625 -2.640625q0.46875 -1.53125 0.46875 -3.453125q0 -1.875 -0.484375 -3.390625q-0.46875 -1.53125 -1.59375 -2.71875l0.578125 -0.703125q1.46875 1.296875 2.171875 3.015625q0.71875 1.71875 0.71875 3.796875q0 4.453125 -2.890625 6.796875l-0.59375 -0.703125z" fill-rule="nonzero"/><path fill="#000000" d="m282.20834 382.11646q-2.90625 -2.34375 -2.90625 -6.796875q0 -2.078125 0.703125 -3.796875q0.71875 -1.71875 2.203125 -3.015625l0.5625 0.703125q-1.125 1.1875 -1.609375 2.71875q-0.46875 1.515625 -0.46875 3.390625q0 1.921875 0.453125 3.453125q0.46875 1.515625 1.640625 2.640625l-0.578125 0.703125zm5.830902 -1.53125q-1.90625 0 -2.8125 -1.4375q-0.90625 -1.453125 -0.90625 -3.828125q0 -2.390625 0.90625 -3.828125q0.90625 -1.453125 2.8125 -1.453125q1.90625 0 2.796875 1.453125q0.90625 1.4375 0.90625 3.828125q0 2.375 -0.90625 3.828125q-0.890625 1.4375 -2.796875 1.4375zm0 -1.171875q1.3125 0 1.8125 -1.09375q0.5 -1.09375 0.5 -3.0q0 -1.921875 -0.5 -3.015625q-0.5 -1.09375 -1.8125 -1.09375q-1.328125 0 -1.828125 1.09375q-0.484375 1.09375 -0.484375 3.015625q0 1.90625 0.484375 3.0q0.5 1.09375 1.828125 1.09375zm11.284424 -0.765625q0 0.890625 -0.265625 1.828125q-0.265625 0.9375 -0.9375 2.140625l-1.296875 0q0.484375 -0.796875 0.703125 -1.5q0.21875 -0.6875 0.265625 -1.21875q0.0625 -0.53125 0.0625 -1.25l1.46875 0zm13.195648 0.53125l0 1.234375l-6.765625 0l0 -0.984375l3.671875 -3.90625q0.84375 -0.90625 1.140625 -1.4375q0.3125 -0.546875 0.3125 -1.09375q0 -0.84375 -0.578125 -1.296875q-0.5625 -0.46875 -1.59375 -0.46875q-1.40625 0 -2.625 0.8125l0 -1.28125q1.21875 -0.71875 2.671875 -0.71875q1.046875 0 1.828125 0.34375q0.78125 0.34375 1.203125 0.984375q0.4375 0.625 0.4375 1.453125q0 0.78125 -0.375 1.578125q-0.375 0.78125 -1.109375 1.53125l-3.15625 3.25l4.9375 0zm1.8681641 2.234375q1.171875 -1.125 1.625 -2.640625q0.46875 -1.53125 0.46875 -3.453125q0 -1.875 -0.484375 -3.390625q-0.46875 -1.53125 -1.59375 -2.71875l0.578125 -0.703125q1.46875 1.296875 2.171875 3.015625q0.71875 1.71875 0.71875 3.796875q0 4.453125 -2.890625 6.796875l-0.59375 -0.703125z" fill-rule="nonzero"/><path fill="#000000" d="m348.875 382.11646q-2.90625 -2.34375 -2.90625 -6.796875q0 -2.078125 0.703125 -3.796875q0.71875 -1.71875 2.203125 -3.015625l0.5625 0.703125q-1.125 1.1875 -1.609375 2.71875q-0.46875 1.515625 -0.46875 3.390625q0 1.921875 0.453125 3.453125q0.46875 1.515625 1.640625 2.640625l-0.578125 0.703125zm5.830902 -1.53125q-1.90625 0 -2.8125 -1.4375q-0.90625 -1.453125 -0.90625 -3.828125q0 -2.390625 0.90625 -3.828125q0.90625 -1.453125 2.8125 -1.453125q1.90625 0 2.796875 1.453125q0.90625 1.4375 0.90625 3.828125q0 2.375 -0.90625 3.828125q-0.890625 1.4375 -2.796875 1.4375zm0 -1.171875q1.3125 0 1.8125 -1.09375q0.5 -1.09375 0.5 -3.0q0 -1.921875 -0.5 -3.015625q-0.5 -1.09375 -1.8125 -1.09375q-1.328125 0 -1.828125 1.09375q-0.484375 1.09375 -0.484375 3.015625q0 1.90625 0.484375 3.0q0.5 1.09375 1.828125 1.09375zm11.284424 -0.765625q0 0.890625 -0.265625 1.828125q-0.265625 0.9375 -0.9375 2.140625l-1.296875 0q0.484375 -0.796875 0.703125 -1.5q0.21875 -0.6875 0.265625 -1.21875q0.0625 -0.53125 0.0625 -1.25l1.46875 0zm13.195648 0.53125l0 1.234375l-6.765625 0l0 -0.984375l3.671875 -3.90625q0.84375 -0.90625 1.140625 -1.4375q0.3125 -0.546875 0.3125 -1.09375q0 -0.84375 -0.578125 -1.296875q-0.5625 -0.46875 -1.59375 -0.46875q-1.40625 0 -2.625 0.8125l0 -1.28125q1.21875 -0.71875 2.671875 -0.71875q1.046875 0 1.828125 0.34375q0.78125 0.34375 1.203125 0.984375q0.4375 0.625 0.4375 1.453125q0 0.78125 -0.375 1.578125q-0.375 0.78125 -1.109375 1.53125l-3.15625 3.25l4.9375 0zm1.8681641 2.234375q1.171875 -1.125 1.625 -2.640625q0.46875 -1.53125 0.46875 -3.453125q0 -1.875 -0.484375 -3.390625q-0.46875 -1.53125 -1.59375 -2.71875l0.578125 -0.703125q1.46875 1.296875 2.171875 3.015625q0.71875 1.71875 0.71875 3.796875q0 4.453125 -2.890625 6.796875l-0.59375 -0.703125z" fill-rule="nonzero"/><path fill="#000000" d="m415.54166 382.11646q-2.90625 -2.34375 -2.90625 -6.796875q0 -2.078125 0.703125 -3.796875q0.71875 -1.71875 2.203125 -3.015625l0.5625 0.703125q-1.125 1.1875 -1.609375 2.71875q-0.46875 1.515625 -0.46875 3.390625q0 1.921875 0.453125 3.453125q0.46875 1.515625 1.640625 2.640625l-0.578125 0.703125zm5.830902 -1.53125q-1.90625 0 -2.8125 -1.4375q-0.90625 -1.453125 -0.90625 -3.828125q0 -2.390625 0.90625 -3.828125q0.90625 -1.453125 2.8125 -1.453125q1.90625 0 2.796875 1.453125q0.90625 1.4375 0.90625 3.828125q0 2.375 -0.90625 3.828125q-0.890625 1.4375 -2.796875 1.4375zm0 -1.171875q1.3125 0 1.8125 -1.09375q0.5 -1.09375 0.5 -3.0q0 -1.921875 -0.5 -3.015625q-0.5 -1.09375 -1.8125 -1.09375q-1.328125 0 -1.828125 1.09375q-0.484375 1.09375 -0.484375 3.015625q0 1.90625 0.484375 3.0q0.5 1.09375 1.828125 1.09375zm11.284424 -0.765625q0 0.890625 -0.265625 1.828125q-0.265625 0.9375 -0.9375 2.140625l-1.296875 0q0.484375 -0.796875 0.703125 -1.5q0.21875 -0.6875 0.265625 -1.21875q0.0625 -0.53125 0.0625 -1.25l1.46875 0zm13.195648 0.53125l0 1.234375l-6.765625 0l0 -0.984375l3.671875 -3.90625q0.84375 -0.90625 1.140625 -1.4375q0.3125 -0.546875 0.3125 -1.09375q0 -0.84375 -0.578125 -1.296875q-0.5625 -0.46875 -1.59375 -0.46875q-1.40625 0 -2.625 0.8125l0 -1.28125q1.21875 -0.71875 2.671875 -0.71875q1.046875 0 1.828125 0.34375q0.78125 0.34375 1.203125 0.984375q0.4375 0.625 0.4375 1.453125q0 0.78125 -0.375 1.578125q-0.375 0.78125 -1.109375 1.53125l-3.15625 3.25l4.9375 0zm1.8681641 2.234375q1.171875 -1.125 1.625 -2.640625q0.46875 -1.53125 0.46875 -3.453125q0 -1.875 -0.484375 -3.390625q-0.46875 -1.53125 -1.59375 -2.71875l0.578125 -0.703125q1.46875 1.296875 2.171875 3.015625q0.71875 1.71875 0.71875 3.796875q0 4.453125 -2.890625 6.796875l-0.59375 -0.703125z" fill-rule="nonzero"/></g></svg>