<svg version="1.1" viewBox="0.0 0.0 529.8950131233596 239.88976377952756" fill="none" stroke="none" stroke-linecap="square" stroke-miterlimit="10" xmlns:xlink="http://www.w3.org/1999/xlink" xmlns="http://www.w3.org/2000/svg"><clipPath id="p.0"><path d="m0 0l529.895 0l0 239.88977l-529.895 0l0 -239.88977z" clip-rule="nonzero"/></clipPath><g clip-path="url(#p.0)"><path fill="#000000" fill-opacity="0.0" d="m0 0l529.895 0l0 239.88977l-529.895 0z" fill-rule="evenodd"/><path shape-rendering="crispEdges" fill="#ffd966" d="m200.75853 65.91863l42.66667 0l0 37.66667l-42.66667 0l0 -37.66667z" fill-rule="nonzero"/><path shape-rendering="crispEdges" fill="#ffd966" d="m243.4252 65.91863l42.666656 0l0 37.66667l-42.666656 0l0 -37.66667z" fill-rule="nonzero"/><path shape-rendering="crispEdges" fill="#ffd966" d="m286.09186 65.91863l42.666687 0l0 37.66667l-42.666687 0l0 -37.66667z" fill-rule="nonzero"/><path stroke="#000000" stroke-width="1.3333333333333333" stroke-linecap="butt" d="m72.75853 65.25197l0 39.0" fill-rule="nonzero"/><path stroke="#000000" stroke-width="1.3333333333333333" stroke-linecap="butt" d="m115.42519 65.25197l0 39.0" fill-rule="nonzero"/><path stroke="#000000" stroke-width="1.3333333333333333" stroke-linecap="butt" d="m158.09186 65.25197l0 39.0" fill-rule="nonzero"/><path stroke="#000000" stroke-width="1.3333333333333333" stroke-linecap="butt" d="m200.75853 65.25197l0 39.0" fill-rule="nonzero"/><path stroke="#000000" stroke-width="1.3333333333333333" stroke-linecap="butt" d="m243.4252 65.25197l0 39.0" fill-rule="nonzero"/><path stroke="#000000" stroke-width="1.3333333333333333" stroke-linecap="butt" d="m286.09186 65.25197l0 39.0" fill-rule="nonzero"/><path stroke="#000000" stroke-width="1.3333333333333333" stroke-linecap="butt" d="m328.75854 65.25197l0 39.0" fill-rule="nonzero"/><path stroke="#000000" stroke-width="1.3333333333333333" stroke-linecap="butt" d="m371.4252 65.25197l0 39.0" fill-rule="nonzero"/><path stroke="#000000" stroke-width="1.3333333333333333" stroke-linecap="butt" d="m414.09186 65.25197l0 39.0" fill-rule="nonzero"/><path stroke="#000000" stroke-width="1.3333333333333333" stroke-linecap="butt" d="m456.75854 65.25197l0 39.0" fill-rule="nonzero"/><path stroke="#000000" stroke-width="1.3333333333333333" stroke-linecap="butt" d="m72.091866 65.91863l385.33334 0" fill-rule="nonzero"/><path stroke="#000000" stroke-width="1.3333333333333333" stroke-linecap="butt" d="m72.091866 103.585304l385.33334 0" fill-rule="nonzero"/><path fill="#000000" d="m89.929985 90.46613q-0.46875 0 -0.78125 -0.296875q-0.3125 -0.3125 -0.3125 -0.796875q0 -0.5 0.3125 -0.796875q0.3125 -0.3125 0.78125 -0.3125q0.46875 0 0.78125 0.3125q0.3125 0.296875 0.3125 0.796875q0 0.484375 -0.3125 0.796875q-0.3125 0.296875 -0.78125 0.296875zm4.1600037 0q-0.46875 0 -0.78125 -0.296875q-0.3125 -0.3125 -0.3125 -0.796875q0 -0.5 0.3125 -0.796875q0.3125 -0.3125 0.78125 -0.3125q0.46875 0 0.78125 0.3125q0.3125 0.296875 0.3125 0.796875q0 0.484375 -0.3125 0.796875q-0.3125 0.296875 -0.78125 0.296875zm4.1600037 0q-0.46875 0 -0.78125 -0.296875q-0.3125 -0.3125 -0.3125 -0.796875q0 -0.5 0.3125 -0.796875q0.3125 -0.3125 0.78125 -0.3125q0.46875 0 0.78125 0.3125q0.3125 0.296875 0.3125 0.796875q0 0.484375 -0.3125 0.796875q-0.3125 0.296875 -0.78125 0.296875z" fill-rule="nonzero"/><path fill="#000000" d="m138.91539 90.27863l-0.21875 -1.203125q-0.625 0.6875 -1.359375 1.046875q-0.71875 0.34375 -1.640625 0.34375q-1.125 0 -1.828125 -0.640625q-0.703125 -0.65625 -0.703125 -1.71875q0 -1.390625 1.109375 -2.046875q1.125 -0.65625 2.890625 -0.65625q0.640625 0 1.40625 0.078125l0 -0.578125q0 -0.859375 -0.484375 -1.375q-0.46875 -0.53125 -1.21875 -0.53125q-0.890625 0 -1.625 0.25q-0.71875 0.234375 -1.5 0.75l0 -1.359375q0.765625 -0.5 1.546875 -0.703125q0.78125 -0.203125 1.78125 -0.203125q1.28125 0 2.09375 0.828125q0.8125 0.8125 0.8125 2.15625l0 3.703125l0.34375 1.859375l-1.40625 0zm-2.921875 -0.984375q0.765625 0 1.375 -0.3125q0.609375 -0.328125 1.203125 -0.9375l0 -1.578125l-1.484375 0q-2.40625 0 -2.40625 1.5625q0 0.5625 0.359375 0.921875q0.375 0.34375 0.953125 0.34375z" fill-rule="nonzero"/><path fill="#000000" d="m179.91457 81.73176q1.09375 0 1.859375 0.578125q0.765625 0.578125 1.15625 1.578125q0.40625 0.984375 0.40625 2.234375q0 1.25 -0.46875 2.234375q-0.453125 0.984375 -1.3125 1.546875q-0.84375 0.546875 -2.015625 0.546875q-0.59375 0 -1.109375 -0.125q-0.515625 -0.125 -1.078125 -0.359375l0 0.3125l-1.421875 0l0 -12.0625l1.421875 0l0 4.609375q1.03125 -1.09375 2.5625 -1.09375zm-0.515625 7.46875q1.140625 0 1.765625 -0.859375q0.640625 -0.859375 0.640625 -2.21875q0 -1.359375 -0.484375 -2.21875q-0.484375 -0.875 -1.53125 -0.875q-0.734375 0 -1.328125 0.3125q-0.578125 0.296875 -1.109375 0.890625l0 4.65625q1.03125 0.3125 2.046875 0.3125z" fill-rule="nonzero"/><path fill="#000000" d="m225.80748 86.55988l-5.921875 0q0.125 1.234375 0.8125 1.96875q0.703125 0.71875 1.90625 0.71875q0.71875 0 1.390625 -0.28125q0.6875 -0.296875 1.390625 -0.875l0.0625 0l0 1.40625q-0.703125 0.515625 -1.390625 0.75q-0.6875 0.21875 -1.46875 0.21875q-1.28125 0 -2.234375 -0.546875q-0.9375 -0.5625 -1.4375 -1.5625q-0.5 -1.0 -0.5 -2.296875q0 -1.234375 0.453125 -2.21875q0.453125 -0.984375 1.296875 -1.546875q0.859375 -0.5625 1.984375 -0.5625q1.15625 0 1.96875 0.578125q0.828125 0.5625 1.25 1.5625q0.4375 0.984375 0.4375 2.234375l0 0.453125zm-3.640625 -3.65625q-0.984375 0 -1.578125 0.71875q-0.59375 0.71875 -0.703125 1.859375l4.46875 0q-0.125 -1.171875 -0.65625 -1.875q-0.53125 -0.703125 -1.53125 -0.703125z" fill-rule="nonzero"/><path fill="#000000" d="m267.13852 90.27863l-0.203125 -1.109375q-0.578125 0.640625 -1.296875 0.96875q-0.71875 0.3125 -1.609375 0.3125q-1.5625 0 -2.390625 -1.1875q-0.828125 -1.203125 -0.828125 -3.078125q0 -1.28125 0.453125 -2.28125q0.453125 -1.015625 1.3125 -1.59375q0.859375 -0.578125 2.03125 -0.578125q0.578125 0 1.09375 0.140625q0.515625 0.140625 1.09375 0.390625l0 -4.046875l1.40625 0l0 10.203125l0.34375 1.859375l-1.40625 0zm-2.890625 -1.125q0.765625 0 1.359375 -0.3125q0.609375 -0.3125 1.1875 -0.921875l0 -4.578125q-1.03125 -0.359375 -2.03125 -0.359375q-1.171875 0 -1.8125 0.890625q-0.625 0.890625 -0.625 2.28125q0 1.328125 0.453125 2.171875q0.453125 0.828125 1.46875 0.828125z" fill-rule="nonzero"/><path fill="#000000" d="m307.90207 90.46613q-1.171875 0 -2.046875 -0.546875q-0.875 -0.5625 -1.34375 -1.546875q-0.46875 -0.984375 -0.46875 -2.234375q0 -1.265625 0.46875 -2.265625q0.46875 -1.0 1.34375 -1.5625q0.875 -0.578125 2.0625 -0.578125q0.828125 0 1.453125 0.1875q0.625 0.171875 1.1875 0.625l0 1.359375l-0.0625 0q-0.578125 -0.46875 -1.203125 -0.671875q-0.609375 -0.21875 -1.390625 -0.21875q-1.140625 0 -1.75 0.890625q-0.609375 0.875 -0.609375 2.25q0 1.328125 0.609375 2.1875q0.609375 0.84375 1.734375 0.84375q0.828125 0 1.484375 -0.25q0.65625 -0.265625 1.296875 -0.84375l0.0625 0l0 1.359375q-0.578125 0.5625 -1.265625 0.796875q-0.671875 0.21875 -1.5625 0.21875z" fill-rule="nonzero"/><path fill="#000000" d="m349.1806 83.13801l-1.59375 0l0 -1.21875l1.59375 0l0 -0.953125q0 -1.390625 0.640625 -2.15625q0.65625 -0.78125 1.953125 -0.78125q0.34375 0 0.609375 0.0625q0.28125 0.0625 0.671875 0.203125l0 1.21875q-0.328125 -0.140625 -0.53125 -0.203125q-0.203125 -0.0625 -0.46875 -0.0625q-0.765625 0 -1.125 0.4375q-0.34375 0.421875 -0.34375 1.125l0 1.109375l2.3125 0l0 1.21875l-2.3125 0l0 7.140625l-1.40625 0l0 -7.140625z" fill-rule="nonzero"/><path fill="#000000" d="m396.5954 81.90363l-0.34375 1.859375l0 5.96875q0 2.109375 -0.984375 3.28125q-0.96875 1.171875 -2.890625 1.171875q-1.078125 0 -1.765625 -0.21875q-0.6875 -0.203125 -1.421875 -0.828125l0 -1.421875q0.78125 0.65625 1.46875 0.90625q0.6875 0.25 1.71875 0.25q1.234375 0 1.84375 -0.78125q0.625 -0.765625 0.625 -2.171875l0 -0.40625q-0.53125 0.34375 -1.078125 0.5q-0.53125 0.15625 -1.265625 0.15625q-1.8125 0 -2.734375 -1.078125q-0.90625 -1.09375 -0.90625 -3.0625q0 -2.03125 0.953125 -3.15625q0.953125 -1.140625 2.84375 -1.140625q0.6875 0 1.1875 0.140625q0.515625 0.140625 1.234375 0.453125l0.109375 -0.421875l1.40625 0zm-4.078125 6.96875q0.703125 0 1.234375 -0.171875q0.53125 -0.1875 1.09375 -0.5625l0 -4.828125q-0.515625 -0.1875 -0.984375 -0.25q-0.453125 -0.078125 -1.03125 -0.078125q-1.25 0 -1.859375 0.796875q-0.59375 0.796875 -0.59375 2.234375q0 2.859375 2.140625 2.859375z" fill-rule="nonzero"/><path fill="#000000" d="m431.2633 90.46613q-0.46875 0 -0.78125 -0.296875q-0.3125 -0.3125 -0.3125 -0.796875q0 -0.5 0.3125 -0.796875q0.3125 -0.3125 0.78125 -0.3125q0.46875 0 0.78125 0.3125q0.3125 0.296875 0.3125 0.796875q0 0.484375 -0.3125 0.796875q-0.3125 0.296875 -0.78125 0.296875zm4.1600037 0q-0.46875 0 -0.78125 -0.296875q-0.3125 -0.3125 -0.3125 -0.796875q0 -0.5 0.3125 -0.796875q0.3125 -0.3125 0.78125 -0.3125q0.46875 0 0.78125 0.3125q0.3125 0.296875 0.3125 0.796875q0 0.484375 -0.3125 0.796875q-0.3125 0.296875 -0.78125 0.296875zm4.1600037 0q-0.46875 0 -0.78125 -0.296875q-0.3125 -0.3125 -0.3125 -0.796875q0 -0.5 0.3125 -0.796875q0.3125 -0.3125 0.78125 -0.3125q0.46875 0 0.78125 0.3125q0.3125 0.296875 0.3125 0.796875q0 0.484375 -0.3125 0.796875q-0.3125 0.296875 -0.78125 0.296875z" fill-rule="nonzero"/><path shape-rendering="crispEdges" fill="#ffd966" d="m200.75853 132.28609l42.66667 0l0 37.66667l-42.66667 0l0 -37.66667z" fill-rule="nonzero"/><path shape-rendering="crispEdges" fill="#ffd966" d="m243.4252 132.28609l42.666656 0l0 37.66667l-42.666656 0l0 -37.66667z" fill-rule="nonzero"/><path shape-rendering="crispEdges" fill="#ffd966" d="m286.09186 132.28609l42.666687 0l0 37.66667l-42.666687 0l0 -37.66667z" fill-rule="nonzero"/><path stroke="#000000" stroke-width="1.3333333333333333" stroke-linecap="butt" d="m72.75853 131.61942l0 39.0" fill-rule="nonzero"/><path stroke="#000000" stroke-width="1.3333333333333333" stroke-linecap="butt" d="m115.42519 131.61942l0 39.0" fill-rule="nonzero"/><path stroke="#000000" stroke-width="1.3333333333333333" stroke-linecap="butt" d="m158.09186 131.61942l0 39.0" fill-rule="nonzero"/><path stroke="#000000" stroke-width="1.3333333333333333" stroke-linecap="butt" d="m200.75853 131.61942l0 39.0" fill-rule="nonzero"/><path stroke="#000000" stroke-width="1.3333333333333333" stroke-linecap="butt" d="m243.4252 131.61942l0 39.0" fill-rule="nonzero"/><path stroke="#000000" stroke-width="1.3333333333333333" stroke-linecap="butt" d="m286.09186 131.61942l0 39.0" fill-rule="nonzero"/><path stroke="#000000" stroke-width="1.3333333333333333" stroke-linecap="butt" d="m328.75854 131.61942l0 39.0" fill-rule="nonzero"/><path stroke="#000000" stroke-width="1.3333333333333333" stroke-linecap="butt" d="m371.4252 131.61942l0 39.0" fill-rule="nonzero"/><path stroke="#000000" stroke-width="1.3333333333333333" stroke-linecap="butt" d="m414.09186 131.61942l0 39.0" fill-rule="nonzero"/><path stroke="#000000" stroke-width="1.3333333333333333" stroke-linecap="butt" d="m456.75854 131.61942l0 39.0" fill-rule="nonzero"/><path stroke="#000000" stroke-width="1.3333333333333333" stroke-linecap="butt" d="m72.091866 132.28609l385.33334 0" fill-rule="nonzero"/><path stroke="#000000" stroke-width="1.3333333333333333" stroke-linecap="butt" d="m72.091866 169.95276l385.33334 0" fill-rule="nonzero"/><path fill="#000000" d="m89.929985 156.83359q-0.46875 0 -0.78125 -0.296875q-0.3125 -0.3125 -0.3125 -0.796875q0 -0.5 0.3125 -0.796875q0.3125 -0.3125 0.78125 -0.3125q0.46875 0 0.78125 0.3125q0.3125 0.296875 0.3125 0.796875q0 0.484375 -0.3125 0.796875q-0.3125 0.296875 -0.78125 0.296875zm4.1600037 0q-0.46875 0 -0.78125 -0.296875q-0.3125 -0.3125 -0.3125 -0.796875q0 -0.5 0.3125 -0.796875q0.3125 -0.3125 0.78125 -0.3125q0.46875 0 0.78125 0.3125q0.3125 0.296875 0.3125 0.796875q0 0.484375 -0.3125 0.796875q-0.3125 0.296875 -0.78125 0.296875zm4.1600037 0q-0.46875 0 -0.78125 -0.296875q-0.3125 -0.3125 -0.3125 -0.796875q0 -0.5 0.3125 -0.796875q0.3125 -0.3125 0.78125 -0.3125q0.46875 0 0.78125 0.3125q0.3125 0.296875 0.3125 0.796875q0 0.484375 -0.3125 0.796875q-0.3125 0.296875 -0.78125 0.296875z" fill-rule="nonzero"/><path fill="#000000" d="m138.91539 156.64609l-0.21875 -1.203125q-0.625 0.6875 -1.359375 1.046875q-0.71875 0.34375 -1.640625 0.34375q-1.125 0 -1.828125 -0.640625q-0.703125 -0.65625 -0.703125 -1.71875q0 -1.390625 1.109375 -2.046875q1.125 -0.65625 2.890625 -0.65625q0.640625 0 1.40625 0.078125l0 -0.578125q0 -0.859375 -0.484375 -1.375q-0.46875 -0.53125 -1.21875 -0.53125q-0.890625 0 -1.625 0.25q-0.71875 0.234375 -1.5 0.75l0 -1.359375q0.765625 -0.5 1.546875 -0.703125q0.78125 -0.203125 1.78125 -0.203125q1.28125 0 2.09375 0.828125q0.8125 0.8125 0.8125 2.15625l0 3.703125l0.34375 1.859375l-1.40625 0zm-2.921875 -0.984375q0.765625 0 1.375 -0.3125q0.609375 -0.328125 1.203125 -0.9375l0 -1.578125l-1.484375 0q-2.40625 0 -2.40625 1.5625q0 0.5625 0.359375 0.921875q0.375 0.34375 0.953125 0.34375z" fill-rule="nonzero"/><path fill="#000000" d="m179.91457 148.09921q1.09375 0 1.859375 0.578125q0.765625 0.578125 1.15625 1.578125q0.40625 0.984375 0.40625 2.234375q0 1.25 -0.46875 2.234375q-0.453125 0.984375 -1.3125 1.546875q-0.84375 0.546875 -2.015625 0.546875q-0.59375 0 -1.109375 -0.125q-0.515625 -0.125 -1.078125 -0.359375l0 0.3125l-1.421875 0l0 -12.0625l1.421875 0l0 4.609375q1.03125 -1.09375 2.5625 -1.09375zm-0.515625 7.46875q1.140625 0 1.765625 -0.859375q0.640625 -0.859375 0.640625 -2.21875q0 -1.359375 -0.484375 -2.21875q-0.484375 -0.875 -1.53125 -0.875q-0.734375 0 -1.328125 0.3125q-0.578125 0.296875 -1.109375 0.890625l0 4.65625q1.03125 0.3125 2.046875 0.3125z" fill-rule="nonzero"/><path fill="#000000" d="m222.56873 156.83359q-1.171875 0 -2.046875 -0.546875q-0.875 -0.5625 -1.34375 -1.546875q-0.46875 -0.984375 -0.46875 -2.234375q0 -1.265625 0.46875 -2.265625q0.46875 -1.0 1.34375 -1.5625q0.875 -0.578125 2.0625 -0.578125q0.828125 0 1.453125 0.1875q0.625 0.171875 1.1875 0.625l0 1.359375l-0.0625 0q-0.578125 -0.46875 -1.203125 -0.671875q-0.609375 -0.21875 -1.390625 -0.21875q-1.140625 0 -1.75 0.890625q-0.609375 0.875 -0.609375 2.25q0 1.328125 0.609375 2.1875q0.609375 0.84375 1.734375 0.84375q0.828125 0 1.484375 -0.25q0.65625 -0.265625 1.296875 -0.84375l0.0625 0l0 1.359375q-0.578125 0.5625 -1.265625 0.796875q-0.671875 0.21875 -1.5625 0.21875z" fill-rule="nonzero"/><path fill="#000000" d="m267.13852 156.64609l-0.203125 -1.109375q-0.578125 0.640625 -1.296875 0.96875q-0.71875 0.3125 -1.609375 0.3125q-1.5625 0 -2.390625 -1.1875q-0.828125 -1.203125 -0.828125 -3.078125q0 -1.28125 0.453125 -2.28125q0.453125 -1.015625 1.3125 -1.59375q0.859375 -0.578125 2.03125 -0.578125q0.578125 0 1.09375 0.140625q0.515625 0.140625 1.09375 0.390625l0 -4.046875l1.40625 0l0 10.203125l0.34375 1.859375l-1.40625 0zm-2.890625 -1.125q0.765625 0 1.359375 -0.3125q0.609375 -0.3125 1.1875 -0.921875l0 -4.578125q-1.03125 -0.359375 -2.03125 -0.359375q-1.171875 0 -1.8125 0.890625q-0.625 0.890625 -0.625 2.28125q0 1.328125 0.453125 2.171875q0.453125 0.828125 1.46875 0.828125z" fill-rule="nonzero"/><path fill="#000000" d="m311.1408 152.92734l-5.921875 0q0.125 1.234375 0.8125 1.96875q0.703125 0.71875 1.90625 0.71875q0.71875 0 1.390625 -0.28125q0.6875 -0.296875 1.390625 -0.875l0.0625 0l0 1.40625q-0.703125 0.515625 -1.390625 0.75q-0.6875 0.21875 -1.46875 0.21875q-1.28125 0 -2.234375 -0.546875q-0.9375 -0.5625 -1.4375 -1.5625q-0.5 -1.0 -0.5 -2.296875q0 -1.234375 0.453125 -2.21875q0.453125 -0.984375 1.296875 -1.546875q0.859375 -0.5625 1.984375 -0.5625q1.15625 0 1.96875 0.578125q0.828125 0.5625 1.25 1.5625q0.4375 0.984375 0.4375 2.234375l0 0.453125zm-3.640625 -3.65625q-0.984375 0 -1.578125 0.71875q-0.59375 0.71875 -0.703125 1.859375l4.46875 0q-0.125 -1.171875 -0.65625 -1.875q-0.53125 -0.703125 -1.53125 -0.703125z" fill-rule="nonzero"/><path fill="#000000" d="m349.1806 149.50546l-1.59375 0l0 -1.21875l1.59375 0l0 -0.953125q0 -1.390625 0.640625 -2.15625q0.65625 -0.78125 1.953125 -0.78125q0.34375 0 0.609375 0.0625q0.28125 0.0625 0.671875 0.203125l0 1.21875q-0.328125 -0.140625 -0.53125 -0.203125q-0.203125 -0.0625 -0.46875 -0.0625q-0.765625 0 -1.125 0.4375q-0.34375 0.421875 -0.34375 1.125l0 1.109375l2.3125 0l0 1.21875l-2.3125 0l0 7.140625l-1.40625 0l0 -7.140625z" fill-rule="nonzero"/><path fill="#000000" d="m396.5954 148.27109l-0.34375 1.859375l0 5.96875q0 2.109375 -0.984375 3.28125q-0.96875 1.171875 -2.890625 1.171875q-1.078125 0 -1.765625 -0.21875q-0.6875 -0.203125 -1.421875 -0.828125l0 -1.421875q0.78125 0.65625 1.46875 0.90625q0.6875 0.25 1.71875 0.25q1.234375 0 1.84375 -0.78125q0.625 -0.765625 0.625 -2.171875l0 -0.40625q-0.53125 0.34375 -1.078125 0.5q-0.53125 0.15625 -1.265625 0.15625q-1.8125 0 -2.734375 -1.078125q-0.90625 -1.09375 -0.90625 -3.0625q0 -2.03125 0.953125 -3.15625q0.953125 -1.140625 2.84375 -1.140625q0.6875 0 1.1875 0.140625q0.515625 0.140625 1.234375 0.453125l0.109375 -0.421875l1.40625 0zm-4.078125 6.96875q0.703125 0 1.234375 -0.171875q0.53125 -0.1875 1.09375 -0.5625l0 -4.828125q-0.515625 -0.1875 -0.984375 -0.25q-0.453125 -0.078125 -1.03125 -0.078125q-1.25 0 -1.859375 0.796875q-0.59375 0.796875 -0.59375 2.234375q0 2.859375 2.140625 2.859375z" fill-rule="nonzero"/><path fill="#000000" d="m431.2633 156.83359q-0.46875 0 -0.78125 -0.296875q-0.3125 -0.3125 -0.3125 -0.796875q0 -0.5 0.3125 -0.796875q0.3125 -0.3125 0.78125 -0.3125q0.46875 0 0.78125 0.3125q0.3125 0.296875 0.3125 0.796875q0 0.484375 -0.3125 0.796875q-0.3125 0.296875 -0.78125 0.296875zm4.1600037 0q-0.46875 0 -0.78125 -0.296875q-0.3125 -0.3125 -0.3125 -0.796875q0 -0.5 0.3125 -0.796875q0.3125 -0.3125 0.78125 -0.3125q0.46875 0 0.78125 0.3125q0.3125 0.296875 0.3125 0.796875q0 0.484375 -0.3125 0.796875q-0.3125 0.296875 -0.78125 0.296875zm4.1600037 0q-0.46875 0 -0.78125 -0.296875q-0.3125 -0.3125 -0.3125 -0.796875q0 -0.5 0.3125 -0.796875q0.3125 -0.3125 0.78125 -0.3125q0.46875 0 0.78125 0.3125q0.3125 0.296875 0.3125 0.796875q0 0.484375 -0.3125 0.796875q-0.3125 0.296875 -0.78125 0.296875z" fill-rule="nonzero"/></g></svg>