<svg version="1.1" viewBox="0.0 0.0 623.3202099737533 208.748031496063" fill="none" stroke="none" stroke-linecap="square" stroke-miterlimit="10" xmlns:xlink="http://www.w3.org/1999/xlink" xmlns="http://www.w3.org/2000/svg"><clipPath id="p.0"><path d="m0 0l623.3202 0l0 208.74803l-623.3202 0l0 -208.74803z" clip-rule="nonzero"/></clipPath><g clip-path="url(#p.0)"><path fill="#000000" fill-opacity="0.0" d="m0 0l623.3202 0l0 208.74803l-623.3202 0z" fill-rule="evenodd"/><path stroke="#000000" stroke-width="1.3333333333333333" stroke-linecap="butt" d="m90.144356 81.69292l0 41.33333" fill-rule="nonzero"/><path stroke="#000000" stroke-width="1.3333333333333333" stroke-linecap="butt" d="m132.81102 81.69292l0 41.33333" fill-rule="nonzero"/><path stroke="#000000" stroke-width="1.3333333333333333" stroke-linecap="butt" d="m175.47769 81.69292l0 41.33333" fill-rule="nonzero"/><path stroke="#000000" stroke-width="1.3333333333333333" stroke-linecap="butt" d="m218.14436 81.69292l0 41.33333" fill-rule="nonzero"/><path stroke="#000000" stroke-width="1.3333333333333333" stroke-linecap="butt" d="m260.81104 81.69292l0 41.33333" fill-rule="nonzero"/><path stroke="#000000" stroke-width="1.3333333333333333" stroke-linecap="butt" d="m303.4777 81.69292l0 41.33333" fill-rule="nonzero"/><path stroke="#000000" stroke-width="1.3333333333333333" stroke-linecap="butt" d="m346.14435 81.69292l0 41.33333" fill-rule="nonzero"/><path stroke="#000000" stroke-width="1.3333333333333333" stroke-linecap="butt" d="m388.81104 81.69292l0 41.33333" fill-rule="nonzero"/><path stroke="#000000" stroke-width="1.3333333333333333" stroke-linecap="butt" d="m431.4777 81.69292l0 41.33333" fill-rule="nonzero"/><path stroke="#000000" stroke-width="1.3333333333333333" stroke-linecap="butt" d="m474.14435 81.69292l0 41.33333" fill-rule="nonzero"/><path stroke="#000000" stroke-width="1.3333333333333333" stroke-linecap="butt" d="m516.81104 81.69292l0 41.33333" fill-rule="nonzero"/><path stroke="#000000" stroke-width="1.3333333333333333" stroke-linecap="butt" d="m89.47769 82.35958l427.99997 0" fill-rule="nonzero"/><path stroke="#000000" stroke-width="1.3333333333333333" stroke-linecap="butt" d="m89.47769 122.35958l427.99997 0" fill-rule="nonzero"/><path fill="#000000" d="m115.173935 105.39146l0 1.328125l-7.390625 0l0 -1.328125l3.296875 0l0 -8.0l-2.25 1.15625l-0.0625 0l-0.28125 -0.921875l0 -0.0625l2.9375 -1.984375l1.0625 0l0 9.8125l2.6875 0z" fill-rule="nonzero"/><path fill="#000000" d="m157.84059 105.37583l0 1.34375l-7.390625 0l0 -1.078125l4.0 -4.265625q0.921875 -1.0 1.25 -1.578125q0.34375 -0.578125 0.34375 -1.171875q0 -0.9375 -0.625 -1.4375q-0.625 -0.5 -1.75 -0.5q-1.546875 0 -2.875 0.890625l0 -1.40625q1.328125 -0.78125 2.9375 -0.78125q1.140625 0 1.984375 0.375q0.859375 0.375 1.3125 1.0625q0.46875 0.6875 0.46875 1.609375q0 0.84375 -0.40625 1.703125q-0.40625 0.859375 -1.203125 1.6875l-3.4375 3.546875l5.390625 0z" fill-rule="nonzero"/><path fill="#000000" d="m198.42914 100.90708q0.96875 0.390625 1.515625 1.125q0.5625 0.71875 0.5625 1.671875q0 0.9375 -0.53125 1.671875q-0.53125 0.71875 -1.484375 1.125q-0.9375 0.40625 -2.15625 0.40625q-0.875 0 -1.65625 -0.21875q-0.765625 -0.21875 -1.5625 -0.6875l0 -1.46875l0.0625 0q0.8125 0.5625 1.5625 0.828125q0.765625 0.25 1.578125 0.25q1.21875 0 1.96875 -0.546875q0.75 -0.5625 0.75 -1.46875q0 -0.9375 -0.84375 -1.484375q-0.84375 -0.5625 -2.265625 -0.5625l-0.703125 0l0 -1.265625l0.703125 0q1.375 0 2.125 -0.46875q0.75 -0.46875 0.75 -1.3125q0 -0.84375 -0.671875 -1.3125q-0.65625 -0.484375 -1.78125 -0.484375q-0.6875 0 -1.359375 0.203125q-0.65625 0.203125 -1.484375 0.65625l-0.0625 0l0 -1.390625q1.4375 -0.78125 3.0 -0.78125q1.140625 0 2.0 0.359375q0.859375 0.359375 1.328125 1.015625q0.484375 0.65625 0.484375 1.515625q0 0.890625 -0.5 1.578125q-0.484375 0.6875 -1.328125 1.046875z" fill-rule="nonzero"/><path fill="#000000" d="m243.87706 104.11021l-1.765625 0l0 2.609375l-1.40625 0l0 -2.609375l-5.28125 0l0 -1.078125l0.109375 -0.015625l-0.109375 -0.03125l5.28125 -7.40625l1.40625 0l0 7.25l1.765625 0l0 1.28125zm-3.171875 -1.28125l0 -5.34375l-3.6875 5.34375l3.6875 0z" fill-rule="nonzero"/><path fill="#000000" d="m282.4031 99.73521q0.984375 0 1.765625 0.46875q0.796875 0.453125 1.234375 1.28125q0.4375 0.8125 0.4375 1.828125q0 1.0625 -0.5 1.875q-0.5 0.8125 -1.40625 1.265625q-0.90625 0.4375 -2.109375 0.4375q-0.921875 0 -1.8125 -0.265625q-0.875 -0.265625 -1.5625 -0.75l0 -1.53125l0.0625 0q0.65625 0.5625 1.5625 0.921875q0.90625 0.34375 1.734375 0.34375q1.140625 0 1.859375 -0.640625q0.71875 -0.65625 0.71875 -1.703125q0 -1.0 -0.640625 -1.625q-0.625 -0.640625 -1.640625 -0.640625q-1.15625 0 -2.203125 0.859375l-0.0625 0l-1.046875 -0.4375l0 -0.078125l0.703125 -5.765625l5.8125 0l0 1.3125l-4.6875 0l-0.40625 3.421875q1.078125 -0.578125 2.1875 -0.578125z" fill-rule="nonzero"/><path fill="#000000" d="m325.1479 99.86021q1.109375 0 1.9375 0.421875q0.84375 0.421875 1.3125 1.1875q0.46875 0.765625 0.46875 1.78125q0 1.0625 -0.515625 1.90625q-0.5 0.828125 -1.40625 1.296875q-0.890625 0.453125 -2.015625 0.453125q-1.984375 0 -3.078125 -1.4375q-1.09375 -1.4375 -1.09375 -4.03125q0 -1.875 0.5625 -3.234375q0.5625 -1.359375 1.609375 -2.078125q1.0625 -0.734375 2.484375 -0.734375q0.78125 0 1.515625 0.21875q0.75 0.203125 1.40625 0.578125l0 1.40625l-0.0625 0q-0.65625 -0.453125 -1.359375 -0.6875q-0.703125 -0.25 -1.40625 -0.25q-1.453125 0 -2.28125 1.109375q-0.828125 1.09375 -0.921875 3.140625q0.65625 -0.546875 1.328125 -0.796875q0.6875 -0.25 1.515625 -0.25zm-0.25 5.78125q0.6875 0 1.25 -0.296875q0.5625 -0.3125 0.875 -0.84375q0.328125 -0.546875 0.328125 -1.21875q0 -0.984375 -0.65625 -1.5625q-0.640625 -0.578125 -1.6875 -0.578125q-1.3125 0 -2.703125 0.96875q0.109375 1.734375 0.765625 2.640625q0.65625 0.890625 1.828125 0.890625z" fill-rule="nonzero"/><path fill="#000000" d="m371.5333 95.57896l0 1.078125l-4.90625 10.0625l-1.609375 0l0 -0.0625l4.953125 -9.765625l-6.1875 0l0 -1.3125l7.75 0z" fill-rule="nonzero"/><path fill="#000000" d="m410.1531 106.90708q-1.15625 0 -2.09375 -0.40625q-0.921875 -0.421875 -1.453125 -1.15625q-0.515625 -0.75 -0.515625 -1.6875q0 -0.9375 0.515625 -1.65625q0.515625 -0.71875 1.328125 -1.015625q-0.734375 -0.25 -1.1875 -0.953125q-0.4375 -0.71875 -0.4375 -1.59375q0 -0.921875 0.484375 -1.609375q0.5 -0.6875 1.375 -1.0625q0.875 -0.375 1.96875 -0.375q1.109375 0 1.984375 0.375q0.875 0.375 1.359375 1.0625q0.5 0.6875 0.5 1.609375q0 0.859375 -0.4375 1.578125q-0.4375 0.703125 -1.203125 0.96875q0.875 0.3125 1.359375 1.046875q0.5 0.71875 0.5 1.625q0 0.953125 -0.53125 1.6875q-0.515625 0.734375 -1.4375 1.15625q-0.921875 0.40625 -2.078125 0.40625zm0 -6.59375q1.140625 0 1.765625 -0.484375q0.625 -0.484375 0.625 -1.359375q0 -0.890625 -0.625 -1.359375q-0.625 -0.484375 -1.78125 -0.484375q-1.140625 0 -1.765625 0.484375q-0.625 0.46875 -0.625 1.359375q0 0.875 0.625 1.359375q0.640625 0.484375 1.78125 0.484375zm-0.03125 5.34375q1.25 0 1.921875 -0.515625q0.671875 -0.515625 0.671875 -1.484375q0 -0.96875 -0.671875 -1.5q-0.671875 -0.53125 -1.90625 -0.53125q-1.21875 0 -1.890625 0.53125q-0.671875 0.53125 -0.671875 1.5q0 0.96875 0.65625 1.484375q0.671875 0.515625 1.890625 0.515625z" fill-rule="nonzero"/><path fill="#000000" d="m452.726 95.39146q2.046875 0 3.09375 1.390625q1.046875 1.390625 1.046875 4.09375q0 2.96875 -1.21875 4.5q-1.203125 1.53125 -3.546875 1.53125q-0.8125 0 -1.46875 -0.1875q-0.65625 -0.203125 -1.34375 -0.671875l0 -1.4375l0.0625 0q1.3125 0.984375 2.875 0.984375q1.5 0 2.25 -1.0q0.765625 -1.0 0.84375 -3.109375q-1.21875 0.96875 -2.84375 0.96875q-1.734375 0 -2.734375 -0.90625q-0.984375 -0.90625 -0.984375 -2.484375q0 -1.109375 0.484375 -1.9375q0.5 -0.84375 1.40625 -1.28125q0.90625 -0.453125 2.078125 -0.453125zm-2.453125 3.59375q0 1.03125 0.640625 1.609375q0.640625 0.578125 1.75 0.578125q1.359375 0 2.65625 -0.96875q-0.09375 -1.828125 -0.71875 -2.671875q-0.625 -0.84375 -1.859375 -0.84375q-1.109375 0 -1.796875 0.640625q-0.671875 0.625 -0.671875 1.65625z" fill-rule="nonzero"/><path fill="#000000" d="m494.21393 105.39146l0 1.328125l-7.390625 0l0 -1.328125l3.296875 0l0 -8.0l-2.25 1.15625l-0.0625 0l-0.28125 -0.921875l0 -0.0625l2.9375 -1.984375l1.0625 0l0 9.8125l2.6875 0zm6.2168884 1.515625q-2.078125 0 -3.0625 -1.5625q-0.984375 -1.578125 -0.984375 -4.1875q0 -2.609375 0.984375 -4.1875q0.984375 -1.578125 3.0625 -1.578125q2.09375 0 3.078125 1.578125q0.984375 1.578125 0.984375 4.1875q0 2.609375 -0.984375 4.1875q-0.984375 1.5625 -3.078125 1.5625zm0 -1.28125q1.453125 0 1.984375 -1.1875q0.546875 -1.1875 0.546875 -3.28125q0 -2.09375 -0.546875 -3.28125q-0.53125 -1.203125 -1.984375 -1.203125q-1.4375 0 -1.984375 1.203125q-0.53125 1.1875 -0.53125 3.28125q0 2.09375 0.53125 3.28125q0.546875 1.1875 1.984375 1.1875z" fill-rule="nonzero"/></g></svg>