<svg version="1.1" viewBox="0.0 0.0 656.2073490813648 359.24146981627297" fill="none" stroke="none" stroke-linecap="square" stroke-miterlimit="10" xmlns:xlink="http://www.w3.org/1999/xlink" xmlns="http://www.w3.org/2000/svg"><clipPath id="p.0"><path d="m0 0l656.20734 0l0 359.24146l-656.20734 0l0 -359.24146z" clip-rule="nonzero"/></clipPath><g clip-path="url(#p.0)"><path fill="#000000" fill-opacity="0.0" d="m0 0l656.20734 0l0 359.24146l-656.20734 0z" fill-rule="evenodd"/><path stroke="#000000" stroke-width="1.3333333333333333" stroke-linecap="butt" d="m24.0 23.501312l0 157.66405" fill-rule="nonzero"/><path stroke="#000000" stroke-width="1.3333333333333333" stroke-linecap="butt" d="m224.56693 23.501312l0 157.66405" fill-rule="nonzero"/><path stroke="#000000" stroke-width="1.3333333333333333" stroke-linecap="butt" d="m425.13385 23.501312l0 157.66405" fill-rule="nonzero"/><path stroke="#000000" stroke-width="1.3333333333333333" stroke-linecap="butt" d="m625.7008 23.501312l0 157.66405" fill-rule="nonzero"/><path stroke="#000000" stroke-width="1.3333333333333333" stroke-linecap="butt" d="m23.501312 24.0l602.6981 0" fill-rule="nonzero"/><path stroke="#000000" stroke-width="1.3333333333333333" stroke-linecap="butt" d="m23.501312 55.333332l602.6981 0" fill-rule="nonzero"/><path stroke="#000000" stroke-width="1.3333333333333333" stroke-linecap="butt" d="m23.501312 86.666664l602.6981 0" fill-rule="nonzero"/><path stroke="#000000" stroke-width="1.3333333333333333" stroke-linecap="butt" d="m23.501312 118.0l602.6981 0" fill-rule="nonzero"/><path stroke="#000000" stroke-width="1.3333333333333333" stroke-linecap="butt" d="m23.501312 149.33333l602.6981 0" fill-rule="nonzero"/><path stroke="#000000" stroke-width="1.3333333333333333" stroke-linecap="butt" d="m23.501312 180.66667l602.6981 0" fill-rule="nonzero"/><path fill="#000000" d="m91.88864 36.251877q1.0 0 1.703125 0.53125q0.703125 0.53125 1.0625 1.4375q0.359375 0.90625 0.359375 2.046875q0 1.140625 -0.421875 2.046875q-0.40625 0.90625 -1.203125 1.421875q-0.78125 0.5 -1.84375 0.5q-0.546875 0 -1.015625 -0.125q-0.46875 -0.109375 -1.0 -0.328125l0 3.703125l-1.28125 0l0 -9.359375l-0.328125 -1.703125l1.296875 0l0.1875 0.984375q1.0 -1.15625 2.484375 -1.15625zm-0.484375 6.84375q1.0625 0 1.640625 -0.78125q0.578125 -0.796875 0.578125 -2.046875q0 -1.25 -0.453125 -2.03125q-0.4375 -0.796875 -1.390625 -0.796875q-0.671875 0 -1.21875 0.28125q-0.53125 0.28125 -1.03125 0.8125l0 4.265625q0.953125 0.296875 1.875 0.296875zm10.973785 0.984375l-0.203125 -1.09375q-0.578125 0.625 -1.25 0.953125q-0.65625 0.3125 -1.5 0.3125q-1.03125 0 -1.6875 -0.59375q-0.640625 -0.59375 -0.640625 -1.578125q0 -1.265625 1.015625 -1.859375q1.03125 -0.609375 2.640625 -0.609375q0.59375 0 1.296875 0.078125l0 -0.53125q0 -0.796875 -0.4375 -1.265625q-0.421875 -0.484375 -1.109375 -0.484375q-0.828125 0 -1.5 0.21875q-0.65625 0.21875 -1.359375 0.6875l0 -1.234375q0.6875 -0.453125 1.40625 -0.640625q0.71875 -0.1875 1.640625 -0.1875q1.171875 0 1.90625 0.75q0.75 0.75 0.75 1.984375l0 3.390625l0.3125 1.703125l-1.28125 0zm-2.6875 -0.90625q0.703125 0 1.25 -0.296875q0.5625 -0.296875 1.109375 -0.84375l0 -1.4375l-1.34375 0q-2.21875 0 -2.21875 1.421875q0 0.53125 0.328125 0.84375q0.34375 0.3125 0.875 0.3125zm13.016281 -6.765625l-0.328125 1.703125l0 5.46875q0 1.9375 -0.890625 3.0q-0.890625 1.078125 -2.65625 1.078125q-0.984375 0 -1.609375 -0.203125q-0.625 -0.1875 -1.296875 -0.75l0 -1.3125q0.71875 0.609375 1.34375 0.828125q0.625 0.234375 1.5625 0.234375q1.125 0 1.6875 -0.71875q0.578125 -0.703125 0.578125 -1.984375l0 -0.375q-0.484375 0.328125 -0.984375 0.46875q-0.484375 0.125 -1.15625 0.125q-1.65625 0 -2.5 -0.984375q-0.84375 -1.0 -0.84375 -2.8125q0 -1.859375 0.875 -2.890625q0.875 -1.03125 2.609375 -1.03125q0.625 0 1.09375 0.125q0.46875 0.125 1.125 0.421875l0.09375 -0.390625l1.296875 0zm-3.734375 6.375q0.640625 0 1.125 -0.15625q0.484375 -0.15625 1.0 -0.515625l0 -4.421875q-0.46875 -0.15625 -0.890625 -0.21875q-0.421875 -0.078125 -0.953125 -0.078125q-1.15625 0 -1.703125 0.734375q-0.546875 0.734375 -0.546875 2.046875q0 2.609375 1.96875 2.609375zm12.555664 -2.109375l-5.421875 0q0.109375 1.140625 0.75 1.8125q0.640625 0.65625 1.734375 0.65625q0.671875 0 1.28125 -0.265625q0.625 -0.28125 1.28125 -0.8125l0.046875 0l0 1.296875q-0.640625 0.46875 -1.28125 0.6875q-0.625 0.203125 -1.34375 0.203125q-1.171875 0 -2.03125 -0.5q-0.859375 -0.515625 -1.328125 -1.4375q-0.453125 -0.921875 -0.453125 -2.109375q0 -1.125 0.40625 -2.015625q0.421875 -0.90625 1.203125 -1.421875q0.78125 -0.515625 1.8125 -0.515625q1.0625 0 1.8125 0.53125q0.75 0.515625 1.140625 1.421875q0.390625 0.90625 0.390625 2.046875l0 0.421875zm-3.328125 -3.34375q-0.90625 0 -1.453125 0.65625q-0.53125 0.65625 -0.640625 1.703125l4.09375 0q-0.109375 -1.078125 -0.609375 -1.71875q-0.484375 -0.640625 -1.390625 -0.640625zm8.371902 -2.15625l-3.078125 0l0 -1.296875l7.4375 0l0 1.296875l-3.078125 0l0 8.90625l-1.28125 0l0 -8.90625zm10.6875305 8.90625l-0.203125 -1.09375q-0.578125 0.625 -1.25 0.953125q-0.65625 0.3125 -1.5 0.3125q-1.03125 0 -1.6875 -0.59375q-0.640625 -0.59375 -0.640625 -1.578125q0 -1.265625 1.015625 -1.859375q1.03125 -0.609375 2.640625 -0.609375q0.59375 0 1.296875 0.078125l0 -0.53125q0 -0.796875 -0.4375 -1.265625q-0.421875 -0.484375 -1.109375 -0.484375q-0.828125 0 -1.5 0.21875q-0.65625 0.21875 -1.359375 0.6875l0 -1.234375q0.6875 -0.453125 1.40625 -0.640625q0.71875 -0.1875 1.640625 -0.1875q1.171875 0 1.90625 0.75q0.75 0.75 0.75 1.984375l0 3.390625l0.3125 1.703125l-1.28125 0zm-2.6875 -0.90625q0.703125 0 1.25 -0.296875q0.5625 -0.296875 1.109375 -0.84375l0 -1.4375l-1.34375 0q-2.21875 0 -2.21875 1.421875q0 0.53125 0.328125 0.84375q0.34375 0.3125 0.875 0.3125zm10.094406 -6.921875q1.0 0 1.703125 0.53125q0.703125 0.53125 1.0625 1.4375q0.359375 0.90625 0.359375 2.046875q0 1.140625 -0.421875 2.046875q-0.40625 0.90625 -1.203125 1.421875q-0.78125 0.5 -1.84375 0.5q-0.546875 0 -1.015625 -0.125q-0.46875 -0.109375 -1.0 -0.328125l0 0.296875l-1.28125 0l0 -11.046875l1.28125 0l0 4.21875q0.953125 -1.0 2.359375 -1.0zm-0.484375 6.84375q1.0625 0 1.640625 -0.78125q0.578125 -0.796875 0.578125 -2.046875q0 -1.25 -0.453125 -2.03125q-0.4375 -0.796875 -1.390625 -0.796875q-0.671875 0 -1.21875 0.28125q-0.53125 0.28125 -1.03125 0.8125l0 4.265625q0.953125 0.296875 1.875 0.296875zm6.1300354 -10.0625l1.296875 0l0 11.046875l-1.296875 0l0 -11.046875zm10.494385 7.640625l-5.421875 0q0.109375 1.140625 0.75 1.8125q0.640625 0.65625 1.734375 0.65625q0.671875 0 1.28125 -0.265625q0.625 -0.28125 1.28125 -0.8125l0.046875 0l0 1.296875q-0.640625 0.46875 -1.28125 0.6875q-0.625 0.203125 -1.34375 0.203125q-1.171875 0 -2.03125 -0.5q-0.859375 -0.515625 -1.328125 -1.4375q-0.453125 -0.921875 -0.453125 -2.109375q0 -1.125 0.40625 -2.015625q0.421875 -0.90625 1.203125 -1.421875q0.78125 -0.515625 1.8125 -0.515625q1.0625 0 1.8125 0.53125q0.75 0.515625 1.140625 1.421875q0.390625 0.90625 0.390625 2.046875l0 0.421875zm-3.328125 -3.34375q-0.90625 0 -1.453125 0.65625q-0.53125 0.65625 -0.640625 1.703125l4.09375 0q-0.109375 -1.078125 -0.609375 -1.71875q-0.484375 -0.640625 -1.390625 -0.640625z" fill-rule="nonzero"/><path fill="#000000" d="m289.57336 36.42375l-2.828125 7.65625l-1.765625 0l-2.828125 -7.65625l1.328125 0l2.421875 6.609375l2.40625 -6.609375l1.265625 0zm2.4418945 -1.71875q-0.40625 0 -0.671875 -0.265625q-0.25 -0.265625 -0.25 -0.671875q0 -0.421875 0.25 -0.671875q0.265625 -0.265625 0.671875 -0.265625q0.421875 0 0.671875 0.265625q0.25 0.25 0.25 0.671875q0 0.40625 -0.25 0.671875q-0.25 0.265625 -0.671875 0.265625zm0.65625 1.71875l0 7.65625l-1.296875 0l0 -7.65625l1.296875 0zm6.713135 -0.171875l0 1.421875l-0.234375 0q-0.6875 0 -1.234375 0.25q-0.546875 0.25 -0.90625 0.71875l0 5.4375l-1.296875 0l0 -5.953125l-0.328125 -1.703125l1.296875 0l0.265625 1.375q0.59375 -0.890625 1.015625 -1.21875q0.421875 -0.328125 0.953125 -0.328125l0.46875 0zm3.9681702 0.171875l2.109375 0l0 1.125l-2.109375 0l0 4.375q0 0.546875 0.234375 0.875q0.25 0.328125 0.71875 0.328125q0.3125 0 0.5625 -0.0625q0.265625 -0.0625 0.59375 -0.21875l0 1.140625q-0.34375 0.171875 -0.65625 0.21875q-0.296875 0.046875 -0.734375 0.046875q-0.9375 0 -1.484375 -0.59375q-0.53125 -0.609375 -0.53125 -1.59375l0 -4.515625l-1.46875 0l0 -1.125l1.46875 0l0 -2.046875l1.296875 -0.671875l0 2.71875zm9.471893 7.65625l-0.21875 -1.0625q-0.671875 0.625 -1.296875 0.9375q-0.609375 0.296875 -1.453125 0.296875q-1.046875 0 -1.625 -0.6875q-0.578125 -0.6875 -0.578125 -1.828125l0 -5.3125l1.296875 0l0 5.140625q0 0.703125 0.3125 1.125q0.328125 0.40625 0.9375 0.40625q0.6875 0 1.203125 -0.25q0.515625 -0.25 1.09375 -0.75l0 -5.671875l1.28125 0l0 5.953125l0.328125 1.703125l-1.28125 0zm8.880035 0l-0.203125 -1.09375q-0.578125 0.625 -1.25 0.953125q-0.65625 0.3125 -1.5 0.3125q-1.03125 0 -1.6875 -0.59375q-0.640625 -0.59375 -0.640625 -1.578125q0 -1.265625 1.015625 -1.859375q1.03125 -0.609375 2.640625 -0.609375q0.59375 0 1.296875 0.078125l0 -0.53125q0 -0.796875 -0.4375 -1.265625q-0.421875 -0.484375 -1.109375 -0.484375q-0.828125 0 -1.5 0.21875q-0.65625 0.21875 -1.359375 0.6875l0 -1.234375q0.6875 -0.453125 1.40625 -0.640625q0.71875 -0.1875 1.640625 -0.1875q1.171875 0 1.90625 0.75q0.75 0.75 0.75 1.984375l0 3.390625l0.3125 1.703125l-1.28125 0zm-2.6875 -0.90625q0.703125 0 1.25 -0.296875q0.5625 -0.296875 1.109375 -0.84375l0 -1.4375l-1.34375 0q-2.21875 0 -2.21875 1.421875q0 0.53125 0.328125 0.84375q0.34375 0.3125 0.875 0.3125zm6.360016 -10.140625l1.296875 0l0 11.046875l-1.296875 0l0 -11.046875zm11.92627 3.21875q1.0 0 1.703125 0.53125q0.703125 0.53125 1.0625 1.4375q0.359375 0.90625 0.359375 2.046875q0 1.140625 -0.421875 2.046875q-0.40625 0.90625 -1.203125 1.421875q-0.78125 0.5 -1.84375 0.5q-0.546875 0 -1.015625 -0.125q-0.46875 -0.109375 -1.0 -0.328125l0 3.703125l-1.28125 0l0 -9.359375l-0.328125 -1.703125l1.296875 0l0.1875 0.984375q1.0 -1.15625 2.484375 -1.15625zm-0.484375 6.84375q1.0625 0 1.640625 -0.78125q0.578125 -0.796875 0.578125 -2.046875q0 -1.25 -0.453125 -2.03125q-0.4375 -0.796875 -1.390625 -0.796875q-0.671875 0 -1.21875 0.28125q-0.53125 0.28125 -1.03125 0.8125l0 4.265625q0.953125 0.296875 1.875 0.296875zm10.973785 0.984375l-0.203125 -1.09375q-0.578125 0.625 -1.25 0.953125q-0.65625 0.3125 -1.5 0.3125q-1.03125 0 -1.6875 -0.59375q-0.640625 -0.59375 -0.640625 -1.578125q0 -1.265625 1.015625 -1.859375q1.03125 -0.609375 2.640625 -0.609375q0.59375 0 1.296875 0.078125l0 -0.53125q0 -0.796875 -0.4375 -1.265625q-0.421875 -0.484375 -1.109375 -0.484375q-0.828125 0 -1.5 0.21875q-0.65625 0.21875 -1.359375 0.6875l0 -1.234375q0.6875 -0.453125 1.40625 -0.640625q0.71875 -0.1875 1.640625 -0.1875q1.171875 0 1.90625 0.75q0.75 0.75 0.75 1.984375l0 3.390625l0.3125 1.703125l-1.28125 0zm-2.6875 -0.90625q0.703125 0 1.25 -0.296875q0.5625 -0.296875 1.109375 -0.84375l0 -1.4375l-1.34375 0q-2.21875 0 -2.21875 1.421875q0 0.53125 0.328125 0.84375q0.34375 0.3125 0.875 0.3125zm13.016296 -6.765625l-0.328125 1.703125l0 5.46875q0 1.9375 -0.890625 3.0q-0.890625 1.078125 -2.65625 1.078125q-0.984375 0 -1.609375 -0.203125q-0.625 -0.1875 -1.296875 -0.75l0 -1.3125q0.71875 0.609375 1.34375 0.828125q0.625 0.234375 1.5625 0.234375q1.125 0 1.6875 -0.71875q0.578125 -0.703125 0.578125 -1.984375l0 -0.375q-0.484375 0.328125 -0.984375 0.46875q-0.484375 0.125 -1.15625 0.125q-1.65625 0 -2.5 -0.984375q-0.84375 -1.0 -0.84375 -2.8125q0 -1.859375 0.875 -2.890625q0.875 -1.03125 2.609375 -1.03125q0.625 0 1.09375 0.125q0.46875 0.125 1.125 0.421875l0.09375 -0.390625l1.296875 0zm-3.734375 6.375q0.640625 0 1.125 -0.15625q0.484375 -0.15625 1.0 -0.515625l0 -4.421875q-0.46875 -0.15625 -0.890625 -0.21875q-0.421875 -0.078125 -0.953125 -0.078125q-1.15625 0 -1.703125 0.734375q-0.546875 0.734375 -0.546875 2.046875q0 2.609375 1.96875 2.609375zm12.555664 -2.109375l-5.421875 0q0.109375 1.140625 0.75 1.8125q0.640625 0.65625 1.734375 0.65625q0.671875 0 1.28125 -0.265625q0.625 -0.28125 1.28125 -0.8125l0.046875 0l0 1.296875q-0.640625 0.46875 -1.28125 0.6875q-0.625 0.203125 -1.34375 0.203125q-1.171875 0 -2.03125 -0.5q-0.859375 -0.515625 -1.328125 -1.4375q-0.453125 -0.921875 -0.453125 -2.109375q0 -1.125 0.40625 -2.015625q0.421875 -0.90625 1.203125 -1.421875q0.78125 -0.515625 1.8125 -0.515625q1.0625 0 1.8125 0.53125q0.75 0.515625 1.140625 1.421875q0.390625 0.90625 0.390625 2.046875l0 0.421875zm-3.328125 -3.34375q-0.90625 0 -1.453125 0.65625q-0.53125 0.65625 -0.640625 1.703125l4.09375 0q-0.109375 -1.078125 -0.609375 -1.71875q-0.484375 -0.640625 -1.390625 -0.640625z" fill-rule="nonzero"/><path fill="#000000" d="m481.15057 36.251877q1.0 0 1.703125 0.53125q0.703125 0.53125 1.0625 1.4375q0.359375 0.90625 0.359375 2.046875q0 1.140625 -0.421875 2.046875q-0.40625 0.90625 -1.203125 1.421875q-0.78125 0.5 -1.84375 0.5q-0.546875 0 -1.015625 -0.125q-0.46875 -0.109375 -1.0 -0.328125l0 3.703125l-1.28125 0l0 -9.359375l-0.328125 -1.703125l1.296875 0l0.1875 0.984375q1.0 -1.15625 2.484375 -1.15625zm-0.484375 6.84375q1.0625 0 1.640625 -0.78125q0.578125 -0.796875 0.578125 -2.046875q0 -1.25 -0.453125 -2.03125q-0.4375 -0.796875 -1.390625 -0.796875q-0.671875 0 -1.21875 0.28125q-0.53125 0.28125 -1.03125 0.8125l0 4.265625q0.953125 0.296875 1.875 0.296875zm10.30191 -6.84375q1.078125 0 1.625 0.671875q0.5625 0.65625 0.5625 1.84375l0 5.3125l-1.28125 0l0 -5.125q0 -0.734375 -0.3125 -1.140625q-0.3125 -0.40625 -0.9375 -0.40625q-0.71875 0 -1.21875 0.234375q-0.484375 0.234375 -1.078125 0.765625l0 5.671875l-1.296875 0l0 -11.046875l1.296875 0l0 4.34375q0.640625 -0.578125 1.21875 -0.84375q0.578125 -0.28125 1.421875 -0.28125zm11.630035 0.171875l-4.390625 11.0625l-1.3125 0l1.3125 -3.3125l-3.03125 -7.75l1.328125 0l2.390625 6.28125l2.328125 -6.28125l1.375 0zm3.910675 7.828125q-0.703125 0 -1.390625 -0.203125q-0.671875 -0.21875 -1.28125 -0.609375l0 -1.359375q1.34375 1.03125 2.640625 1.03125q0.765625 0 1.234375 -0.3125q0.46875 -0.3125 0.46875 -0.84375q0 -0.359375 -0.234375 -0.59375q-0.21875 -0.234375 -0.5625 -0.359375q-0.328125 -0.140625 -0.96875 -0.34375q-0.765625 -0.21875 -1.28125 -0.421875q-0.5 -0.21875 -0.859375 -0.625q-0.34375 -0.421875 -0.34375 -1.09375q0 -1.03125 0.765625 -1.640625q0.78125 -0.625 2.046875 -0.625q1.265625 0 2.28125 0.65625l0 1.3125q-0.5625 -0.4375 -1.109375 -0.625q-0.53125 -0.203125 -1.109375 -0.203125q-0.734375 0 -1.15625 0.265625q-0.421875 0.265625 -0.421875 0.734375q0 0.34375 0.21875 0.5625q0.234375 0.21875 0.5625 0.359375q0.34375 0.125 0.96875 0.3125q0.796875 0.234375 1.296875 0.453125q0.5 0.203125 0.84375 0.640625q0.359375 0.421875 0.359375 1.109375q0 0.71875 -0.390625 1.265625q-0.375 0.546875 -1.046875 0.859375q-0.671875 0.296875 -1.53125 0.296875zm5.8594055 -9.546875q-0.40625 0 -0.671875 -0.265625q-0.25 -0.265625 -0.25 -0.671875q0 -0.421875 0.25 -0.671875q0.265625 -0.265625 0.671875 -0.265625q0.421875 0 0.671875 0.265625q0.25 0.25 0.25 0.671875q0 0.40625 -0.25 0.671875q-0.25 0.265625 -0.671875 0.265625zm0.65625 1.71875l0 7.65625l-1.296875 0l0 -7.65625l1.296875 0zm5.79126 7.828125q-1.0625 0 -1.875 -0.5q-0.796875 -0.515625 -1.234375 -1.421875q-0.421875 -0.90625 -0.421875 -2.046875q0 -1.15625 0.421875 -2.0625q0.4375 -0.921875 1.234375 -1.4375q0.8125 -0.53125 1.890625 -0.53125q0.765625 0 1.328125 0.171875q0.578125 0.15625 1.09375 0.578125l0 1.25l-0.0625 0q-0.515625 -0.4375 -1.09375 -0.625q-0.5625 -0.203125 -1.28125 -0.203125q-1.03125 0 -1.59375 0.8125q-0.5625 0.796875 -0.5625 2.0625q0 1.21875 0.5625 2.0q0.5625 0.78125 1.578125 0.78125q0.765625 0 1.359375 -0.234375q0.609375 -0.25 1.203125 -0.78125l0.046875 0l0 1.25q-0.53125 0.515625 -1.15625 0.734375q-0.625 0.203125 -1.4375 0.203125zm9.758118 -0.171875l-0.203125 -1.09375q-0.578125 0.625 -1.25 0.953125q-0.65625 0.3125 -1.5 0.3125q-1.03125 0 -1.6875 -0.59375q-0.640625 -0.59375 -0.640625 -1.578125q0 -1.265625 1.015625 -1.859375q1.03125 -0.609375 2.640625 -0.609375q0.59375 0 1.296875 0.078125l0 -0.53125q0 -0.796875 -0.4375 -1.265625q-0.421875 -0.484375 -1.109375 -0.484375q-0.828125 0 -1.5 0.21875q-0.65625 0.21875 -1.359375 0.6875l0 -1.234375q0.6875 -0.453125 1.40625 -0.640625q0.71875 -0.1875 1.640625 -0.1875q1.171875 0 1.90625 0.75q0.75 0.75 0.75 1.984375l0 3.390625l0.3125 1.703125l-1.28125 0zm-2.6875 -0.90625q0.703125 0 1.25 -0.296875q0.5625 -0.296875 1.109375 -0.84375l0 -1.4375l-1.34375 0q-2.21875 0 -2.21875 1.421875q0 0.53125 0.328125 0.84375q0.34375 0.3125 0.875 0.3125zm6.3600464 -10.140625l1.296875 0l0 11.046875l-1.296875 0l0 -11.046875zm11.92627 3.21875q1.0 0 1.703125 0.53125q0.703125 0.53125 1.0625 1.4375q0.359375 0.90625 0.359375 2.046875q0 1.140625 -0.421875 2.046875q-0.40625 0.90625 -1.203125 1.421875q-0.78125 0.5 -1.84375 0.5q-0.546875 0 -1.015625 -0.125q-0.46875 -0.109375 -1.0 -0.328125l0 3.703125l-1.28125 0l0 -9.359375l-0.328125 -1.703125l1.296875 0l0.1875 0.984375q1.0 -1.15625 2.484375 -1.15625zm-0.484375 6.84375q1.0625 0 1.640625 -0.78125q0.578125 -0.796875 0.578125 -2.046875q0 -1.25 -0.453125 -2.03125q-0.4375 -0.796875 -1.390625 -0.796875q-0.671875 0 -1.21875 0.28125q-0.53125 0.28125 -1.03125 0.8125l0 4.265625q0.953125 0.296875 1.875 0.296875zm10.973816 0.984375l-0.203125 -1.09375q-0.578125 0.625 -1.25 0.953125q-0.65625 0.3125 -1.5 0.3125q-1.03125 0 -1.6875 -0.59375q-0.640625 -0.59375 -0.640625 -1.578125q0 -1.265625 1.015625 -1.859375q1.03125 -0.609375 2.640625 -0.609375q0.59375 0 1.296875 0.078125l0 -0.53125q0 -0.796875 -0.4375 -1.265625q-0.421875 -0.484375 -1.109375 -0.484375q-0.828125 0 -1.5 0.21875q-0.65625 0.21875 -1.359375 0.6875l0 -1.234375q0.6875 -0.453125 1.40625 -0.640625q0.71875 -0.1875 1.640625 -0.1875q1.171875 0 1.90625 0.75q0.75 0.75 0.75 1.984375l0 3.390625l0.3125 1.703125l-1.28125 0zm-2.6875 -0.90625q0.703125 0 1.25 -0.296875q0.5625 -0.296875 1.109375 -0.84375l0 -1.4375l-1.34375 0q-2.21875 0 -2.21875 1.421875q0 0.53125 0.328125 0.84375q0.34375 0.3125 0.875 0.3125zm13.016235 -6.765625l-0.328125 1.703125l0 5.46875q0 1.9375 -0.890625 3.0q-0.890625 1.078125 -2.65625 1.078125q-0.984375 0 -1.609375 -0.203125q-0.625 -0.1875 -1.296875 -0.75l0 -1.3125q0.71875 0.609375 1.34375 0.828125q0.625 0.234375 1.5625 0.234375q1.125 0 1.6875 -0.71875q0.578125 -0.703125 0.578125 -1.984375l0 -0.375q-0.484375 0.328125 -0.984375 0.46875q-0.484375 0.125 -1.15625 0.125q-1.65625 0 -2.5 -0.984375q-0.84375 -1.0 -0.84375 -2.8125q0 -1.859375 0.875 -2.890625q0.875 -1.03125 2.609375 -1.03125q0.625 0 1.09375 0.125q0.46875 0.125 1.125 0.421875l0.09375 -0.390625l1.296875 0zm-3.734375 6.375q0.640625 0 1.125 -0.15625q0.484375 -0.15625 1.0 -0.515625l0 -4.421875q-0.46875 -0.15625 -0.890625 -0.21875q-0.421875 -0.078125 -0.953125 -0.078125q-1.15625 0 -1.703125 0.734375q-0.546875 0.734375 -0.546875 2.046875q0 2.609375 1.96875 2.609375zm12.555664 -2.109375l-5.421875 0q0.109375 1.140625 0.75 1.8125q0.640625 0.65625 1.734375 0.65625q0.671875 0 1.28125 -0.265625q0.625 -0.28125 1.28125 -0.8125l0.046875 0l0 1.296875q-0.640625 0.46875 -1.28125 0.6875q-0.625 0.203125 -1.34375 0.203125q-1.171875 0 -2.03125 -0.5q-0.859375 -0.515625 -1.328125 -1.4375q-0.453125 -0.921875 -0.453125 -2.109375q0 -1.125 0.40625 -2.015625q0.421875 -0.90625 1.203125 -1.421875q0.78125 -0.515625 1.8125 -0.515625q1.0625 0 1.8125 0.53125q0.75 0.515625 1.140625 1.421875q0.390625 0.90625 0.390625 2.046875l0 0.421875zm-3.328125 -3.34375q-0.90625 0 -1.453125 0.65625q-0.53125 0.65625 -0.640625 1.703125l4.09375 0q-0.109375 -1.078125 -0.609375 -1.71875q-0.484375 -0.640625 -1.390625 -0.640625z" fill-rule="nonzero"/><path fill="#000000" d="m104.155655 67.585205q1.0 0 1.703125 0.53125q0.703125 0.53125 1.0625 1.4375q0.359375 0.90625 0.359375 2.046875q0 1.140625 -0.421875 2.046875q-0.40625 0.90625 -1.203125 1.421875q-0.78125 0.5 -1.84375 0.5q-0.546875 0 -1.015625 -0.125q-0.46875 -0.109375 -1.0 -0.328125l0 3.703125l-1.28125 0l0 -9.359375l-0.328125 -1.703125l1.296875 0l0.1875 0.984375q1.0 -1.15625 2.484375 -1.15625zm-0.484375 6.84375q1.0625 0 1.640625 -0.78125q0.578125 -0.796875 0.578125 -2.046875q0 -1.25 -0.453125 -2.03125q-0.4375 -0.796875 -1.390625 -0.796875q-0.671875 0 -1.21875 0.28125q-0.53125 0.28125 -1.03125 0.8125l0 4.265625q0.953125 0.296875 1.875 0.296875zm10.973785 0.984375l-0.203125 -1.09375q-0.578125 0.625 -1.25 0.953125q-0.65625 0.3125 -1.5 0.3125q-1.03125 0 -1.6875 -0.59375q-0.640625 -0.59375 -0.640625 -1.578125q0 -1.265625 1.015625 -1.859375q1.03125 -0.609375 2.640625 -0.609375q0.59375 0 1.296875 0.078125l0 -0.53125q0 -0.796875 -0.4375 -1.265625q-0.421875 -0.484375 -1.109375 -0.484375q-0.828125 0 -1.5 0.21875q-0.65625 0.21875 -1.359375 0.6875l0 -1.234375q0.6875 -0.453125 1.40625 -0.640625q0.71875 -0.1875 1.640625 -0.1875q1.171875 0 1.90625 0.75q0.75 0.75 0.75 1.984375l0 3.390625l0.3125 1.703125l-1.28125 0zm-2.6875 -0.90625q0.703125 0 1.25 -0.296875q0.5625 -0.296875 1.109375 -0.84375l0 -1.4375l-1.34375 0q-2.21875 0 -2.21875 1.421875q0 0.53125 0.328125 0.84375q0.34375 0.3125 0.875 0.3125zm13.016281 -6.765625l-0.328125 1.703125l0 5.46875q0 1.9375 -0.890625 3.0q-0.890625 1.078125 -2.65625 1.078125q-0.984375 0 -1.609375 -0.203125q-0.625 -0.1875 -1.296875 -0.75l0 -1.3125q0.71875 0.609375 1.34375 0.828125q0.625 0.234375 1.5625 0.234375q1.125 0 1.6875 -0.71875q0.578125 -0.703125 0.578125 -1.984375l0 -0.375q-0.484375 0.328125 -0.984375 0.46875q-0.484375 0.125 -1.15625 0.125q-1.65625 0 -2.5 -0.984375q-0.84375 -1.0 -0.84375 -2.8125q0 -1.859375 0.875 -2.890625q0.875 -1.03125 2.609375 -1.03125q0.625 0 1.09375 0.125q0.46875 0.125 1.125 0.421875l0.09375 -0.390625l1.296875 0zm-3.734375 6.375q0.640625 0 1.125 -0.15625q0.484375 -0.15625 1.0 -0.515625l0 -4.421875q-0.46875 -0.15625 -0.890625 -0.21875q-0.421875 -0.078125 -0.953125 -0.078125q-1.15625 0 -1.703125 0.734375q-0.546875 0.734375 -0.546875 2.046875q0 2.609375 1.96875 2.609375zm12.555664 -2.109375l-5.421875 0q0.109375 1.140625 0.75 1.8125q0.640625 0.65625 1.734375 0.65625q0.671875 0 1.28125 -0.265625q0.625 -0.28125 1.28125 -0.8125l0.046875 0l0 1.296875q-0.640625 0.46875 -1.28125 0.6875q-0.625 0.203125 -1.34375 0.203125q-1.171875 0 -2.03125 -0.5q-0.859375 -0.515625 -1.328125 -1.4375q-0.453125 -0.921875 -0.453125 -2.109375q0 -1.125 0.40625 -2.015625q0.421875 -0.90625 1.203125 -1.421875q0.78125 -0.515625 1.8125 -0.515625q1.0625 0 1.8125 0.53125q0.75 0.515625 1.140625 1.421875q0.390625 0.90625 0.390625 2.046875l0 0.421875zm-3.328125 -3.34375q-0.90625 0 -1.453125 0.65625q-0.53125 0.65625 -0.640625 1.703125l4.09375 0q-0.109375 -1.078125 -0.609375 -1.71875q-0.484375 -0.640625 -1.390625 -0.640625zm16.663162 0.21875l-0.34375 2.859375l1.78125 0l-0.125 1.125l-1.8125 0l-0.3125 2.546875l-1.203125 0l0.3125 -2.546875l-3.078125 0l-0.3125 2.546875l-1.203125 0l0.3125 -2.546875l-1.921875 0l0.140625 -1.125l1.9375 0l0.34375 -2.859375l-1.78125 0l0.140625 -1.125l1.796875 0l0.3125 -2.546875l1.203125 0l-0.3125 2.546875l3.078125 0l0.3125 -2.546875l1.203125 0l-0.3125 2.546875l1.921875 0l-0.125 1.125l-1.953125 0zm-1.203125 0l-3.078125 0l-0.34375 2.859375l3.078125 0l0.34375 -2.859375z" fill-rule="nonzero"/><path fill="#000000" d="m324.85382 75.585205q-1.90625 0 -2.8125 -1.4375q-0.90625 -1.453125 -0.90625 -3.828125q0 -2.390625 0.90625 -3.828125q0.90625 -1.453125 2.8125 -1.453125q1.90625 0 2.796875 1.453125q0.90625 1.4375 0.90625 3.828125q0 2.375 -0.90625 3.828125q-0.890625 1.4375 -2.796875 1.4375zm0 -1.171875q1.3125 0 1.8125 -1.09375q0.5 -1.09375 0.5 -3.0q0 -1.921875 -0.5 -3.015625q-0.5 -1.09375 -1.8125 -1.09375q-1.328125 0 -1.828125 1.09375q-0.484375 1.09375 -0.484375 3.015625q0 1.90625 0.484375 3.0q0.5 1.09375 1.828125 1.09375z" fill-rule="nonzero"/><path fill="#000000" d="m525.7176 69.13208q1.015625 0 1.78125 0.390625q0.78125 0.375 1.203125 1.078125q0.421875 0.703125 0.421875 1.625q0 0.984375 -0.46875 1.75q-0.453125 0.765625 -1.28125 1.1875q-0.8125 0.421875 -1.859375 0.421875q-1.8125 0 -2.8125 -1.3125q-1.0 -1.328125 -1.0 -3.703125q0 -1.703125 0.515625 -2.953125q0.515625 -1.25 1.484375 -1.90625q0.96875 -0.671875 2.265625 -0.671875q0.703125 0 1.390625 0.1875q0.6875 0.1875 1.28125 0.546875l0 1.28125l-0.0625 0q-0.59375 -0.421875 -1.25 -0.640625q-0.640625 -0.21875 -1.265625 -0.21875q-1.328125 0 -2.09375 1.015625q-0.765625 1.0 -0.84375 2.890625q0.59375 -0.5 1.21875 -0.734375q0.625 -0.234375 1.375 -0.234375zm-0.234375 5.296875q0.640625 0 1.15625 -0.265625q0.515625 -0.28125 0.8125 -0.78125q0.296875 -0.5 0.296875 -1.125q0 -0.890625 -0.59375 -1.421875q-0.59375 -0.53125 -1.5625 -0.53125q-1.203125 0 -2.46875 0.890625q0.09375 1.578125 0.6875 2.40625q0.609375 0.828125 1.671875 0.828125z" fill-rule="nonzero"/><path fill="#000000" d="m104.155655 98.91854q1.0 0 1.703125 0.53125q0.703125 0.53125 1.0625 1.4375q0.359375 0.90625 0.359375 2.046875q0 1.140625 -0.421875 2.046875q-0.40625 0.90625 -1.203125 1.421875q-0.78125 0.5 -1.84375 0.5q-0.546875 0 -1.015625 -0.125q-0.46875 -0.109375 -1.0 -0.328125l0 3.703125l-1.28125 0l0 -9.359375l-0.328125 -1.703125l1.296875 0l0.1875 0.984375q1.0 -1.15625 2.484375 -1.15625zm-0.484375 6.84375q1.0625 0 1.640625 -0.78125q0.578125 -0.796875 0.578125 -2.046875q0 -1.25 -0.453125 -2.03125q-0.4375 -0.796875 -1.390625 -0.796875q-0.671875 0 -1.21875 0.28125q-0.53125 0.28125 -1.03125 0.8125l0 4.265625q0.953125 0.296875 1.875 0.296875zm10.973785 0.984375l-0.203125 -1.09375q-0.578125 0.625 -1.25 0.953125q-0.65625 0.3125 -1.5 0.3125q-1.03125 0 -1.6875 -0.59375q-0.640625 -0.59375 -0.640625 -1.578125q0 -1.265625 1.015625 -1.859375q1.03125 -0.609375 2.640625 -0.609375q0.59375 0 1.296875 0.078125l0 -0.53125q0 -0.796875 -0.4375 -1.265625q-0.421875 -0.484375 -1.109375 -0.484375q-0.828125 0 -1.5 0.21875q-0.65625 0.21875 -1.359375 0.6875l0 -1.234375q0.6875 -0.453125 1.40625 -0.640625q0.71875 -0.1875 1.640625 -0.1875q1.171875 0 1.90625 0.75q0.75 0.75 0.75 1.984375l0 3.390625l0.3125 1.703125l-1.28125 0zm-2.6875 -0.90625q0.703125 0 1.25 -0.296875q0.5625 -0.296875 1.109375 -0.84375l0 -1.4375l-1.34375 0q-2.21875 0 -2.21875 1.421875q0 0.53125 0.328125 0.84375q0.34375 0.3125 0.875 0.3125zm13.016281 -6.765625l-0.328125 1.703125l0 5.46875q0 1.9375 -0.890625 3.0q-0.890625 1.078125 -2.65625 1.078125q-0.984375 0 -1.609375 -0.203125q-0.625 -0.1875 -1.296875 -0.75l0 -1.3125q0.71875 0.609375 1.34375 0.828125q0.625 0.234375 1.5625 0.234375q1.125 0 1.6875 -0.71875q0.578125 -0.703125 0.578125 -1.984375l0 -0.375q-0.484375 0.328125 -0.984375 0.46875q-0.484375 0.125 -1.15625 0.125q-1.65625 0 -2.5 -0.984375q-0.84375 -1.0 -0.84375 -2.8125q0 -1.859375 0.875 -2.890625q0.875 -1.03125 2.609375 -1.03125q0.625 0 1.09375 0.125q0.46875 0.125 1.125 0.421875l0.09375 -0.390625l1.296875 0zm-3.734375 6.375q0.640625 0 1.125 -0.15625q0.484375 -0.15625 1.0 -0.515625l0 -4.421875q-0.46875 -0.15625 -0.890625 -0.21875q-0.421875 -0.078125 -0.953125 -0.078125q-1.15625 0 -1.703125 0.734375q-0.546875 0.734375 -0.546875 2.046875q0 2.609375 1.96875 2.609375zm12.555664 -2.109375l-5.421875 0q0.109375 1.140625 0.75 1.8125q0.640625 0.65625 1.734375 0.65625q0.671875 0 1.28125 -0.265625q0.625 -0.28125 1.28125 -0.8125l0.046875 0l0 1.296875q-0.640625 0.46875 -1.28125 0.6875q-0.625 0.203125 -1.34375 0.203125q-1.171875 0 -2.03125 -0.5q-0.859375 -0.515625 -1.328125 -1.4375q-0.453125 -0.921875 -0.453125 -2.109375q0 -1.125 0.40625 -2.015625q0.421875 -0.90625 1.203125 -1.421875q0.78125 -0.515625 1.8125 -0.515625q1.0625 0 1.8125 0.53125q0.75 0.515625 1.140625 1.421875q0.390625 0.90625 0.390625 2.046875l0 0.421875zm-3.328125 -3.34375q-0.90625 0 -1.453125 0.65625q-0.53125 0.65625 -0.640625 1.703125l4.09375 0q-0.109375 -1.078125 -0.609375 -1.71875q-0.484375 -0.640625 -1.390625 -0.640625zm16.663162 0.21875l-0.34375 2.859375l1.78125 0l-0.125 1.125l-1.8125 0l-0.3125 2.546875l-1.203125 0l0.3125 -2.546875l-3.078125 0l-0.3125 2.546875l-1.203125 0l0.3125 -2.546875l-1.921875 0l0.140625 -1.125l1.9375 0l0.34375 -2.859375l-1.78125 0l0.140625 -1.125l1.796875 0l0.3125 -2.546875l1.203125 0l-0.3125 2.546875l3.078125 0l0.3125 -2.546875l1.203125 0l-0.3125 2.546875l1.921875 0l-0.125 1.125l-1.953125 0zm-1.203125 0l-3.078125 0l-0.34375 2.859375l3.078125 0l0.34375 -2.859375z" fill-rule="nonzero"/><path fill="#000000" d="m328.22882 105.527916l0 1.21875l-6.765625 0l0 -1.21875l3.015625 0l0 -7.328125l-2.046875 1.0625l-0.0625 0l-0.265625 -0.84375l0 -0.0625l2.703125 -1.8125l0.96875 0l0 8.984375l2.453125 0z" fill-rule="nonzero"/><path fill="#000000" d="m525.3426 96.371666q1.875 0 2.828125 1.28125q0.953125 1.265625 0.953125 3.75q0 2.703125 -1.109375 4.109375q-1.109375 1.40625 -3.234375 1.40625q-0.75 0 -1.359375 -0.171875q-0.59375 -0.1875 -1.234375 -0.609375l0 -1.328125l0.0625 0q1.203125 0.90625 2.625 0.90625q1.375 0 2.0625 -0.90625q0.703125 -0.921875 0.78125 -2.859375q-1.109375 0.890625 -2.609375 0.890625q-1.578125 0 -2.5 -0.828125q-0.90625 -0.828125 -0.90625 -2.28125q0 -1.015625 0.453125 -1.78125q0.453125 -0.765625 1.28125 -1.171875q0.828125 -0.40625 1.90625 -0.40625zm-2.25 3.296875q0 0.9375 0.578125 1.46875q0.59375 0.53125 1.609375 0.53125q1.25 0 2.4375 -0.890625q-0.09375 -1.671875 -0.671875 -2.4375q-0.5625 -0.78125 -1.6875 -0.78125q-1.03125 0 -1.65625 0.578125q-0.609375 0.578125 -0.609375 1.53125z" fill-rule="nonzero"/><path fill="#000000" d="m104.155655 130.25188q1.0 0 1.703125 0.53125q0.703125 0.53125 1.0625 1.4375q0.359375 0.90625 0.359375 2.046875q0 1.140625 -0.421875 2.046875q-0.40625 0.90625 -1.203125 1.421875q-0.78125 0.5 -1.84375 0.5q-0.546875 0 -1.015625 -0.125q-0.46875 -0.109375 -1.0 -0.328125l0 3.703125l-1.28125 0l0 -9.359375l-0.328125 -1.703125l1.296875 0l0.1875 0.984375q1.0 -1.15625 2.484375 -1.15625zm-0.484375 6.84375q1.0625 0 1.640625 -0.78125q0.578125 -0.796875 0.578125 -2.046875q0 -1.25 -0.453125 -2.03125q-0.4375 -0.796875 -1.390625 -0.796875q-0.671875 0 -1.21875 0.28125q-0.53125 0.28125 -1.03125 0.8125l0 4.265625q0.953125 0.296875 1.875 0.296875zm10.973785 0.984375l-0.203125 -1.09375q-0.578125 0.625 -1.25 0.953125q-0.65625 0.3125 -1.5 0.3125q-1.03125 0 -1.6875 -0.59375q-0.640625 -0.59375 -0.640625 -1.578125q0 -1.265625 1.015625 -1.859375q1.03125 -0.609375 2.640625 -0.609375q0.59375 0 1.296875 0.078125l0 -0.53125q0 -0.796875 -0.4375 -1.265625q-0.421875 -0.484375 -1.109375 -0.484375q-0.828125 0 -1.5 0.21875q-0.65625 0.21875 -1.359375 0.6875l0 -1.234375q0.6875 -0.453125 1.40625 -0.640625q0.71875 -0.1875 1.640625 -0.1875q1.171875 0 1.90625 0.75q0.75 0.75 0.75 1.984375l0 3.390625l0.3125 1.703125l-1.28125 0zm-2.6875 -0.90625q0.703125 0 1.25 -0.296875q0.5625 -0.296875 1.109375 -0.84375l0 -1.4375l-1.34375 0q-2.21875 0 -2.21875 1.421875q0 0.53125 0.328125 0.84375q0.34375 0.3125 0.875 0.3125zm13.016281 -6.765625l-0.328125 1.703125l0 5.46875q0 1.9375 -0.890625 3.0q-0.890625 1.078125 -2.65625 1.078125q-0.984375 0 -1.609375 -0.203125q-0.625 -0.1875 -1.296875 -0.75l0 -1.3125q0.71875 0.609375 1.34375 0.828125q0.625 0.234375 1.5625 0.234375q1.125 0 1.6875 -0.71875q0.578125 -0.703125 0.578125 -1.984375l0 -0.375q-0.484375 0.328125 -0.984375 0.46875q-0.484375 0.125 -1.15625 0.125q-1.65625 0 -2.5 -0.984375q-0.84375 -1.0 -0.84375 -2.8125q0 -1.859375 0.875 -2.890625q0.875 -1.03125 2.609375 -1.03125q0.625 0 1.09375 0.125q0.46875 0.125 1.125 0.421875l0.09375 -0.390625l1.296875 0zm-3.734375 6.375q0.640625 0 1.125 -0.15625q0.484375 -0.15625 1.0 -0.515625l0 -4.421875q-0.46875 -0.15625 -0.890625 -0.21875q-0.421875 -0.078125 -0.953125 -0.078125q-1.15625 0 -1.703125 0.734375q-0.546875 0.734375 -0.546875 2.046875q0 2.609375 1.96875 2.609375zm12.555664 -2.109375l-5.421875 0q0.109375 1.140625 0.75 1.8125q0.640625 0.65625 1.734375 0.65625q0.671875 0 1.28125 -0.265625q0.625 -0.28125 1.28125 -0.8125l0.046875 0l0 1.296875q-0.640625 0.46875 -1.28125 0.6875q-0.625 0.203125 -1.34375 0.203125q-1.171875 0 -2.03125 -0.5q-0.859375 -0.515625 -1.328125 -1.4375q-0.453125 -0.921875 -0.453125 -2.109375q0 -1.125 0.40625 -2.015625q0.421875 -0.90625 1.203125 -1.421875q0.78125 -0.515625 1.8125 -0.515625q1.0625 0 1.8125 0.53125q0.75 0.515625 1.140625 1.421875q0.390625 0.90625 0.390625 2.046875l0 0.421875zm-3.328125 -3.34375q-0.90625 0 -1.453125 0.65625q-0.53125 0.65625 -0.640625 1.703125l4.09375 0q-0.109375 -1.078125 -0.609375 -1.71875q-0.484375 -0.640625 -1.390625 -0.640625zm16.663162 0.21875l-0.34375 2.859375l1.78125 0l-0.125 1.125l-1.8125 0l-0.3125 2.546875l-1.203125 0l0.3125 -2.546875l-3.078125 0l-0.3125 2.546875l-1.203125 0l0.3125 -2.546875l-1.921875 0l0.140625 -1.125l1.9375 0l0.34375 -2.859375l-1.78125 0l0.140625 -1.125l1.796875 0l0.3125 -2.546875l1.203125 0l-0.3125 2.546875l3.078125 0l0.3125 -2.546875l1.203125 0l-0.3125 2.546875l1.921875 0l-0.125 1.125l-1.953125 0zm-1.203125 0l-3.078125 0l-0.34375 2.859375l3.078125 0l0.34375 -2.859375z" fill-rule="nonzero"/><path fill="#000000" d="m328.22882 136.84563l0 1.234375l-6.765625 0l0 -0.984375l3.671875 -3.90625q0.84375 -0.90625 1.140625 -1.4375q0.3125 -0.546875 0.3125 -1.09375q0 -0.84375 -0.578125 -1.296875q-0.5625 -0.46875 -1.59375 -0.46875q-1.40625 0 -2.625 0.8125l0 -1.28125q1.21875 -0.71875 2.671875 -0.71875q1.046875 0 1.828125 0.34375q0.78125 0.34375 1.203125 0.984375q0.4375 0.625 0.4375 1.453125q0 0.78125 -0.375 1.578125q-0.375 0.78125 -1.109375 1.53125l-3.15625 3.25l4.9375 0z" fill-rule="nonzero"/><path fill="#000000" d="m529.12384 127.87688l0 0.984375l-4.484375 9.21875l-1.484375 0l0 -0.0625l4.546875 -8.9375l-5.671875 0l0 -1.203125l7.09375 0z" fill-rule="nonzero"/><path fill="#000000" d="m104.155655 161.5852q1.0 0 1.703125 0.53125q0.703125 0.53125 1.0625 1.4375q0.359375 0.90625 0.359375 2.046875q0 1.140625 -0.421875 2.046875q-0.40625 0.90625 -1.203125 1.421875q-0.78125 0.5 -1.84375 0.5q-0.546875 0 -1.015625 -0.125q-0.46875 -0.109375 -1.0 -0.328125l0 3.703125l-1.28125 0l0 -9.359375l-0.328125 -1.703125l1.296875 0l0.1875 0.984375q1.0 -1.15625 2.484375 -1.15625zm-0.484375 6.84375q1.0625 0 1.640625 -0.78125q0.578125 -0.796875 0.578125 -2.046875q0 -1.25 -0.453125 -2.03125q-0.4375 -0.796875 -1.390625 -0.796875q-0.671875 0 -1.21875 0.28125q-0.53125 0.28125 -1.03125 0.8125l0 4.265625q0.953125 0.296875 1.875 0.296875zm10.973785 0.984375l-0.203125 -1.09375q-0.578125 0.625 -1.25 0.953125q-0.65625 0.3125 -1.5 0.3125q-1.03125 0 -1.6875 -0.59375q-0.640625 -0.59375 -0.640625 -1.578125q0 -1.265625 1.015625 -1.859375q1.03125 -0.609375 2.640625 -0.609375q0.59375 0 1.296875 0.078125l0 -0.53125q0 -0.796875 -0.4375 -1.265625q-0.421875 -0.484375 -1.109375 -0.484375q-0.828125 0 -1.5 0.21875q-0.65625 0.21875 -1.359375 0.6875l0 -1.234375q0.6875 -0.453125 1.40625 -0.640625q0.71875 -0.1875 1.640625 -0.1875q1.171875 0 1.90625 0.75q0.75 0.75 0.75 1.984375l0 3.390625l0.3125 1.703125l-1.28125 0zm-2.6875 -0.90625q0.703125 0 1.25 -0.296875q0.5625 -0.296875 1.109375 -0.84375l0 -1.4375l-1.34375 0q-2.21875 0 -2.21875 1.421875q0 0.53125 0.328125 0.84375q0.34375 0.3125 0.875 0.3125zm13.016281 -6.765625l-0.328125 1.703125l0 5.46875q0 1.9375 -0.890625 3.0q-0.890625 1.078125 -2.65625 1.078125q-0.984375 0 -1.609375 -0.203125q-0.625 -0.1875 -1.296875 -0.75l0 -1.3125q0.71875 0.609375 1.34375 0.828125q0.625 0.234375 1.5625 0.234375q1.125 0 1.6875 -0.71875q0.578125 -0.703125 0.578125 -1.984375l0 -0.375q-0.484375 0.328125 -0.984375 0.46875q-0.484375 0.125 -1.15625 0.125q-1.65625 0 -2.5 -0.984375q-0.84375 -1.0 -0.84375 -2.8125q0 -1.859375 0.875 -2.890625q0.875 -1.03125 2.609375 -1.03125q0.625 0 1.09375 0.125q0.46875 0.125 1.125 0.421875l0.09375 -0.390625l1.296875 0zm-3.734375 6.375q0.640625 0 1.125 -0.15625q0.484375 -0.15625 1.0 -0.515625l0 -4.421875q-0.46875 -0.15625 -0.890625 -0.21875q-0.421875 -0.078125 -0.953125 -0.078125q-1.15625 0 -1.703125 0.734375q-0.546875 0.734375 -0.546875 2.046875q0 2.609375 1.96875 2.609375zm12.555664 -2.109375l-5.421875 0q0.109375 1.140625 0.75 1.8125q0.640625 0.65625 1.734375 0.65625q0.671875 0 1.28125 -0.265625q0.625 -0.28125 1.28125 -0.8125l0.046875 0l0 1.296875q-0.640625 0.46875 -1.28125 0.6875q-0.625 0.203125 -1.34375 0.203125q-1.171875 0 -2.03125 -0.5q-0.859375 -0.515625 -1.328125 -1.4375q-0.453125 -0.921875 -0.453125 -2.109375q0 -1.125 0.40625 -2.015625q0.421875 -0.90625 1.203125 -1.421875q0.78125 -0.515625 1.8125 -0.515625q1.0625 0 1.8125 0.53125q0.75 0.515625 1.140625 1.421875q0.390625 0.90625 0.390625 2.046875l0 0.421875zm-3.328125 -3.34375q-0.90625 0 -1.453125 0.65625q-0.53125 0.65625 -0.640625 1.703125l4.09375 0q-0.109375 -1.078125 -0.609375 -1.71875q-0.484375 -0.640625 -1.390625 -0.640625zm16.663162 0.21875l-0.34375 2.859375l1.78125 0l-0.125 1.125l-1.8125 0l-0.3125 2.546875l-1.203125 0l0.3125 -2.546875l-3.078125 0l-0.3125 2.546875l-1.203125 0l0.3125 -2.546875l-1.921875 0l0.140625 -1.125l1.9375 0l0.34375 -2.859375l-1.78125 0l0.140625 -1.125l1.796875 0l0.3125 -2.546875l1.203125 0l-0.3125 2.546875l3.078125 0l0.3125 -2.546875l1.203125 0l-0.3125 2.546875l1.921875 0l-0.125 1.125l-1.953125 0zm-1.203125 0l-3.078125 0l-0.34375 2.859375l3.078125 0l0.34375 -2.859375z" fill-rule="nonzero"/><path fill="#000000" d="m326.3382 164.10083q0.890625 0.34375 1.390625 1.015625q0.5 0.65625 0.5 1.546875q0 0.84375 -0.484375 1.515625q-0.46875 0.65625 -1.34375 1.03125q-0.875 0.375 -1.984375 0.375q-0.796875 0 -1.515625 -0.203125q-0.703125 -0.203125 -1.4375 -0.625l0 -1.359375l0.0625 0q0.75 0.515625 1.4375 0.765625q0.703125 0.234375 1.4375 0.234375q1.109375 0 1.796875 -0.5q0.6875 -0.515625 0.6875 -1.34375q0 -0.859375 -0.765625 -1.359375q-0.765625 -0.515625 -2.078125 -0.515625l-0.640625 0l0 -1.15625l0.640625 0q1.265625 0 1.953125 -0.421875q0.6875 -0.4375 0.6875 -1.21875q0 -0.765625 -0.609375 -1.203125q-0.609375 -0.4375 -1.640625 -0.4375q-0.640625 0 -1.25 0.1875q-0.609375 0.171875 -1.34375 0.59375l-0.0625 0l0 -1.265625q1.296875 -0.71875 2.734375 -0.71875q1.046875 0 1.828125 0.328125q0.796875 0.328125 1.21875 0.9375q0.4375 0.59375 0.4375 1.390625q0 0.796875 -0.453125 1.4375q-0.4375 0.625 -1.203125 0.96875z" fill-rule="nonzero"/><path fill="#000000" d="m524.25226 168.19458l0 1.21875l-6.765625 0l0 -1.21875l3.015625 0l0 -7.328125l-2.046875 1.0625l-0.0625 0l-0.265625 -0.84375l0 -0.0625l2.703125 -1.8125l0.96875 0l0 8.984375l2.453125 0zm9.086914 0l0 1.21875l-6.765625 0l0 -1.21875l3.015625 0l0 -7.328125l-2.046875 1.0625l-0.0625 0l-0.265625 -0.84375l0 -0.0625l2.703125 -1.8125l0.96875 0l0 8.984375l2.453125 0z" fill-rule="nonzero"/><path fill="#000000" fill-opacity="0.0" d="m10.740157 217.24934l641.4803 0l0 33.07086l-641.4803 0z" fill-rule="evenodd"/><path fill="#000000" d="m24.287033 238.03665q-1.90625 0 -2.8125 -1.4375q-0.90625 -1.453125 -0.90625 -3.828125q0 -2.390625 0.90625 -3.828125q0.90625 -1.453125 2.8125 -1.453125q1.90625 0 2.796875 1.453125q0.90625 1.4375 0.90625 3.828125q0 2.375 -0.90625 3.828125q-0.890625 1.4375 -2.796875 1.4375zm0 -1.171875q1.3125 0 1.8125 -1.09375q0.5 -1.09375 0.5 -3.0q0 -1.921875 -0.5 -3.015625q-0.5 -1.09375 -1.8125 -1.09375q-1.328125 0 -1.828125 1.09375q-0.484375 1.09375 -0.484375 3.015625q0 1.90625 0.484375 3.0q0.5 1.09375 1.828125 1.09375zm148.84912 -5.40625q0.90625 0 1.625 0.421875q0.71875 0.421875 1.109375 1.1875q0.40625 0.75 0.40625 1.671875q0 0.984375 -0.453125 1.734375q-0.453125 0.734375 -1.296875 1.140625q-0.828125 0.40625 -1.921875 0.40625q-0.84375 0 -1.65625 -0.234375q-0.8125 -0.25 -1.4375 -0.703125l0 -1.390625l0.0625 0q0.59375 0.515625 1.421875 0.84375q0.828125 0.3125 1.59375 0.3125q1.046875 0 1.703125 -0.59375q0.65625 -0.59375 0.65625 -1.5625q0 -0.90625 -0.578125 -1.484375q-0.578125 -0.578125 -1.5 -0.578125q-1.078125 0 -2.03125 0.78125l-0.046875 0l-0.953125 -0.390625l0 -0.078125l0.640625 -5.28125l5.328125 0l0 1.203125l-4.296875 0l-0.390625 3.140625q1.0 -0.546875 2.015625 -0.546875zm147.6516 5.1875l0 1.21875l-6.765625 0l0 -1.21875l3.015625 0l0 -7.328125l-2.046875 1.0625l-0.0625 0l-0.265625 -0.84375l0 -0.0625l2.703125 -1.8125l0.96875 0l0 8.984375l2.453125 0zm5.711914 1.390625q-1.90625 0 -2.8125 -1.4375q-0.90625 -1.453125 -0.90625 -3.828125q0 -2.390625 0.90625 -3.828125q0.90625 -1.453125 2.8125 -1.453125q1.90625 0 2.796875 1.453125q0.90625 1.4375 0.90625 3.828125q0 2.375 -0.90625 3.828125q-0.890625 1.4375 -2.796875 1.4375zm0 -1.171875q1.3125 0 1.8125 -1.09375q0.5 -1.09375 0.5 -3.0q0 -1.921875 -0.5 -3.015625q-0.5 -1.09375 -1.8125 -1.09375q-1.328125 0 -1.828125 1.09375q-0.484375 1.09375 -0.484375 3.015625q0 1.90625 0.484375 3.0q0.5 1.09375 1.828125 1.09375zm143.78223 -0.21875l0 1.21875l-6.765625 0l0 -1.21875l3.015625 0l0 -7.328125l-2.046875 1.0625l-0.0625 0l-0.265625 -0.84375l0 -0.0625l2.703125 -1.8125l0.96875 0l0 8.984375l2.453125 0zm5.946289 -5.1875q0.90625 0 1.625 0.421875q0.71875 0.421875 1.109375 1.1875q0.40625 0.75 0.40625 1.671875q0 0.984375 -0.453125 1.734375q-0.453125 0.734375 -1.296875 1.140625q-0.828125 0.40625 -1.921875 0.40625q-0.84375 0 -1.65625 -0.234375q-0.8125 -0.25 -1.4375 -0.703125l0 -1.390625l0.0625 0q0.59375 0.515625 1.421875 0.84375q0.828125 0.3125 1.59375 0.3125q1.046875 0 1.703125 -0.59375q0.65625 -0.59375 0.65625 -1.5625q0 -0.90625 -0.578125 -1.484375q-0.578125 -0.578125 -1.5 -0.578125q-1.078125 0 -2.03125 0.78125l-0.046875 0l-0.953125 -0.390625l0 -0.078125l0.640625 -5.28125l5.328125 0l0 1.203125l-4.296875 0l-0.390625 3.140625q1.0 -0.546875 2.015625 -0.546875zm143.54788 5.171875l0 1.234375l-6.765625 0l0 -0.984375l3.671875 -3.90625q0.84375 -0.90625 1.140625 -1.4375q0.3125 -0.546875 0.3125 -1.09375q0 -0.84375 -0.578125 -1.296875q-0.5625 -0.46875 -1.59375 -0.46875q-1.40625 0 -2.625 0.8125l0 -1.28125q1.21875 -0.71875 2.671875 -0.71875q1.046875 0 1.828125 0.34375q0.78125 0.34375 1.203125 0.984375q0.4375 0.625 0.4375 1.453125q0 0.78125 -0.375 1.578125q-0.375 0.78125 -1.109375 1.53125l-3.15625 3.25l4.9375 0zm5.711914 1.40625q-1.90625 0 -2.8125 -1.4375q-0.90625 -1.453125 -0.90625 -3.828125q0 -2.390625 0.90625 -3.828125q0.90625 -1.453125 2.8125 -1.453125q1.90625 0 2.796875 1.453125q0.90625 1.4375 0.90625 3.828125q0 2.375 -0.90625 3.828125q-0.890625 1.4375 -2.796875 1.4375zm0 -1.171875q1.3125 0 1.8125 -1.09375q0.5 -1.09375 0.5 -3.0q0 -1.921875 -0.5 -3.015625q-0.5 -1.09375 -1.8125 -1.09375q-1.328125 0 -1.828125 1.09375q-0.484375 1.09375 -0.484375 3.015625q0 1.90625 0.484375 3.0q0.5 1.09375 1.828125 1.09375z" fill-rule="nonzero"/><path stroke="#000000" stroke-width="1.3333333333333333" stroke-linecap="butt" d="m24.010498 249.82152l0 32.330704" fill-rule="nonzero"/><path stroke="#000000" stroke-width="1.3333333333333333" stroke-linecap="butt" d="m174.43045 249.82152l0 32.330704" fill-rule="nonzero"/><path stroke="#000000" stroke-width="1.3333333333333333" stroke-linecap="butt" d="m324.8504 249.82152l0 32.330704" fill-rule="nonzero"/><path stroke="#000000" stroke-width="1.3333333333333333" stroke-linecap="butt" d="m475.27036 249.82152l0 32.330704" fill-rule="nonzero"/><path stroke="#000000" stroke-width="1.3333333333333333" stroke-linecap="butt" d="m625.6903 249.82152l0 32.330704" fill-rule="nonzero"/><path stroke="#000000" stroke-width="1.3333333333333333" stroke-linecap="butt" d="m23.51181 250.3202l602.6771 0" fill-rule="nonzero"/><path stroke="#000000" stroke-width="1.3333333333333333" stroke-linecap="butt" d="m23.51181 281.65353l602.6771 0" fill-rule="nonzero"/><path fill="#000000" d="m57.348106 262.74396l-2.828125 7.65625l-1.765625 0l-2.828125 -7.65625l1.328125 0l2.421875 6.609375l2.40625 -6.609375l1.265625 0zm2.4419098 -1.71875q-0.40625 0 -0.671875 -0.265625q-0.25 -0.265625 -0.25 -0.671875q0 -0.421875 0.25 -0.671875q0.265625 -0.265625 0.671875 -0.265625q0.421875 0 0.671875 0.265625q0.25 0.25 0.25 0.671875q0 0.40625 -0.25 0.671875q-0.25 0.265625 -0.671875 0.265625zm0.65625 1.71875l0 7.65625l-1.296875 0l0 -7.65625l1.296875 0zm6.713135 -0.171875l0 1.421875l-0.234375 0q-0.6875 0 -1.234375 0.25q-0.546875 0.25 -0.90625 0.71875l0 5.4375l-1.296875 0l0 -5.953125l-0.328125 -1.703125l1.296875 0l0.265625 1.375q0.59375 -0.890625 1.015625 -1.21875q0.421875 -0.328125 0.953125 -0.328125l0.46875 0zm3.968155 0.171875l2.109375 0l0 1.125l-2.109375 0l0 4.375q0 0.546875 0.234375 0.875q0.25 0.328125 0.71875 0.328125q0.3125 0 0.5625 -0.0625q0.265625 -0.0625 0.59375 -0.21875l0 1.140625q-0.34375 0.171875 -0.65625 0.21875q-0.296875 0.046875 -0.734375 0.046875q-0.9375 0 -1.484375 -0.59375q-0.53125 -0.609375 -0.53125 -1.59375l0 -4.515625l-1.46875 0l0 -1.125l1.46875 0l0 -2.046875l1.296875 -0.671875l0 2.71875zm9.471893 7.65625l-0.21875 -1.0625q-0.671875 0.625 -1.296875 0.9375q-0.609375 0.296875 -1.453125 0.296875q-1.046875 0 -1.625 -0.6875q-0.578125 -0.6875 -0.578125 -1.828125l0 -5.3125l1.296875 0l0 5.140625q0 0.703125 0.3125 1.125q0.328125 0.40625 0.9375 0.40625q0.6875 0 1.203125 -0.25q0.515625 -0.25 1.09375 -0.75l0 -5.671875l1.28125 0l0 5.953125l0.328125 1.703125l-1.28125 0zm8.880035 0l-0.203125 -1.09375q-0.578125 0.625 -1.25 0.953125q-0.65625 0.3125 -1.5 0.3125q-1.03125 0 -1.6875 -0.59375q-0.640625 -0.59375 -0.640625 -1.578125q0 -1.265625 1.015625 -1.859375q1.03125 -0.609375 2.640625 -0.609375q0.59375 0 1.296875 0.078125l0 -0.53125q0 -0.796875 -0.4375 -1.265625q-0.421875 -0.484375 -1.109375 -0.484375q-0.828125 0 -1.5 0.21875q-0.65625 0.21875 -1.359375 0.6875l0 -1.234375q0.6875 -0.453125 1.40625 -0.640625q0.71875 -0.1875 1.640625 -0.1875q1.171875 0 1.90625 0.75q0.75 0.75 0.75 1.984375l0 3.390625l0.3125 1.703125l-1.28125 0zm-2.6875 -0.90625q0.703125 0 1.25 -0.296875q0.5625 -0.296875 1.109375 -0.84375l0 -1.4375l-1.34375 0q-2.21875 0 -2.21875 1.421875q0 0.53125 0.328125 0.84375q0.34375 0.3125 0.875 0.3125zm6.360031 -10.140625l1.296875 0l0 11.046875l-1.296875 0l0 -11.046875zm11.92627 3.21875q1.0 0 1.703125 0.53125q0.703125 0.53125 1.0625 1.4375q0.359375 0.90625 0.359375 2.046875q0 1.140625 -0.421875 2.046875q-0.40625 0.90625 -1.203125 1.421875q-0.78125 0.5 -1.84375 0.5q-0.546875 0 -1.015625 -0.125q-0.46875 -0.109375 -1.0 -0.328125l0 3.703125l-1.28125 0l0 -9.359375l-0.328125 -1.703125l1.296875 0l0.1875 0.984375q1.0 -1.15625 2.484375 -1.15625zm-0.484375 6.84375q1.0625 0 1.640625 -0.78125q0.578125 -0.796875 0.578125 -2.046875q0 -1.25 -0.453125 -2.03125q-0.4375 -0.796875 -1.390625 -0.796875q-0.671875 0 -1.21875 0.28125q-0.53125 0.28125 -1.03125 0.8125l0 4.265625q0.953125 0.296875 1.875 0.296875zm10.973785 0.984375l-0.203125 -1.09375q-0.578125 0.625 -1.25 0.953125q-0.65625 0.3125 -1.5 0.3125q-1.03125 0 -1.6875 -0.59375q-0.640625 -0.59375 -0.640625 -1.578125q0 -1.265625 1.015625 -1.859375q1.03125 -0.609375 2.640625 -0.609375q0.59375 0 1.296875 0.078125l0 -0.53125q0 -0.796875 -0.4375 -1.265625q-0.421875 -0.484375 -1.109375 -0.484375q-0.828125 0 -1.5 0.21875q-0.65625 0.21875 -1.359375 0.6875l0 -1.234375q0.6875 -0.453125 1.40625 -0.640625q0.71875 -0.1875 1.640625 -0.1875q1.171875 0 1.90625 0.75q0.75 0.75 0.75 1.984375l0 3.390625l0.3125 1.703125l-1.28125 0zm-2.6875 -0.90625q0.703125 0 1.25 -0.296875q0.5625 -0.296875 1.109375 -0.84375l0 -1.4375l-1.34375 0q-2.21875 0 -2.21875 1.421875q0 0.53125 0.328125 0.84375q0.34375 0.3125 0.875 0.3125zm13.016281 -6.765625l-0.328125 1.703125l0 5.46875q0 1.9375 -0.890625 3.0q-0.890625 1.078125 -2.65625 1.078125q-0.984375 0 -1.609375 -0.203125q-0.625 -0.1875 -1.296875 -0.75l0 -1.3125q0.71875 0.609375 1.34375 0.828125q0.625 0.234375 1.5625 0.234375q1.125 0 1.6875 -0.71875q0.578125 -0.703125 0.578125 -1.984375l0 -0.375q-0.484375 0.328125 -0.984375 0.46875q-0.484375 0.125 -1.15625 0.125q-1.65625 0 -2.5 -0.984375q-0.84375 -1.0 -0.84375 -2.8125q0 -1.859375 0.875 -2.890625q0.875 -1.03125 2.609375 -1.03125q0.625 0 1.09375 0.125q0.46875 0.125 1.125 0.421875l0.09375 -0.390625l1.296875 0zm-3.734375 6.375q0.640625 0 1.125 -0.15625q0.484375 -0.15625 1.0 -0.515625l0 -4.421875q-0.46875 -0.15625 -0.890625 -0.21875q-0.421875 -0.078125 -0.953125 -0.078125q-1.15625 0 -1.703125 0.734375q-0.546875 0.734375 -0.546875 2.046875q0 2.609375 1.96875 2.609375zm12.555672 -2.109375l-5.421875 0q0.109375 1.140625 0.75 1.8125q0.640625 0.65625 1.734375 0.65625q0.671875 0 1.28125 -0.265625q0.625 -0.28125 1.28125 -0.8125l0.046875 0l0 1.296875q-0.640625 0.46875 -1.28125 0.6875q-0.625 0.203125 -1.34375 0.203125q-1.171875 0 -2.03125 -0.5q-0.859375 -0.515625 -1.328125 -1.4375q-0.45313263 -0.921875 -0.45313263 -2.109375q0 -1.125 0.40625763 -2.015625q0.421875 -0.90625 1.203125 -1.421875q0.78125 -0.515625 1.8125 -0.515625q1.0625 0 1.8125 0.53125q0.75 0.515625 1.140625 1.421875q0.390625 0.90625 0.390625 2.046875l0 0.421875zm-3.328125 -3.34375q-0.90625 0 -1.453125 0.65625q-0.53125 0.65625 -0.640625 1.703125l4.09375 0q-0.109375 -1.078125 -0.609375 -1.71875q-0.484375 -0.640625 -1.390625 -0.640625zm12.975662 6.921875q-1.90625 0 -2.8125 -1.4375q-0.90625 -1.453125 -0.90625 -3.828125q0 -2.390625 0.90625 -3.828125q0.90625 -1.453125 2.8125 -1.453125q1.90625 0 2.796875 1.453125q0.90625 1.4375 0.90625 3.828125q0 2.375 -0.90625 3.828125q-0.890625 1.4375 -2.796875 1.4375zm0 -1.171875q1.3125 0 1.8125 -1.09375q0.5 -1.09375 0.5 -3.0q0 -1.921875 -0.5 -3.015625q-0.5 -1.09375 -1.8125 -1.09375q-1.328125 0 -1.828125 1.09375q-0.484375 1.09375 -0.484375 3.015625q0 1.90625 0.484375 3.0q0.5 1.09375 1.828125 1.09375z" fill-rule="nonzero"/><path fill="#000000" d="m207.76805 262.74396l-2.828125 7.65625l-1.765625 0l-2.828125 -7.65625l1.328125 0l2.421875 6.609375l2.40625 -6.609375l1.265625 0zm2.4419098 -1.71875q-0.40625 0 -0.671875 -0.265625q-0.25 -0.265625 -0.25 -0.671875q0 -0.421875 0.25 -0.671875q0.265625 -0.265625 0.671875 -0.265625q0.421875 0 0.671875 0.265625q0.25 0.25 0.25 0.671875q0 0.40625 -0.25 0.671875q-0.25 0.265625 -0.671875 0.265625zm0.65625 1.71875l0 7.65625l-1.296875 0l0 -7.65625l1.296875 0zm6.713135 -0.171875l0 1.421875l-0.234375 0q-0.6875 0 -1.234375 0.25q-0.546875 0.25 -0.90625 0.71875l0 5.4375l-1.296875 0l0 -5.953125l-0.328125 -1.703125l1.296875 0l0.265625 1.375q0.59375 -0.890625 1.015625 -1.21875q0.421875 -0.328125 0.953125 -0.328125l0.46875 0zm3.968155 0.171875l2.109375 0l0 1.125l-2.109375 0l0 4.375q0 0.546875 0.234375 0.875q0.25 0.328125 0.71875 0.328125q0.3125 0 0.5625 -0.0625q0.265625 -0.0625 0.59375 -0.21875l0 1.140625q-0.34375 0.171875 -0.65625 0.21875q-0.296875 0.046875 -0.734375 0.046875q-0.9375 0 -1.484375 -0.59375q-0.53125 -0.609375 -0.53125 -1.59375l0 -4.515625l-1.46875 0l0 -1.125l1.46875 0l0 -2.046875l1.296875 -0.671875l0 2.71875zm9.471893 7.65625l-0.21875 -1.0625q-0.671875 0.625 -1.296875 0.9375q-0.609375 0.296875 -1.453125 0.296875q-1.046875 0 -1.625 -0.6875q-0.578125 -0.6875 -0.578125 -1.828125l0 -5.3125l1.296875 0l0 5.140625q0 0.703125 0.3125 1.125q0.328125 0.40625 0.9375 0.40625q0.6875 0 1.203125 -0.25q0.515625 -0.25 1.09375 -0.75l0 -5.671875l1.28125 0l0 5.953125l0.328125 1.703125l-1.28125 0zm8.880035 0l-0.203125 -1.09375q-0.578125 0.625 -1.25 0.953125q-0.65625 0.3125 -1.5 0.3125q-1.03125 0 -1.6875 -0.59375q-0.640625 -0.59375 -0.640625 -1.578125q0 -1.265625 1.015625 -1.859375q1.03125 -0.609375 2.640625 -0.609375q0.59375 0 1.296875 0.078125l0 -0.53125q0 -0.796875 -0.4375 -1.265625q-0.421875 -0.484375 -1.109375 -0.484375q-0.828125 0 -1.5 0.21875q-0.65625 0.21875 -1.359375 0.6875l0 -1.234375q0.6875 -0.453125 1.40625 -0.640625q0.71875 -0.1875 1.640625 -0.1875q1.171875 0 1.90625 0.75q0.75 0.75 0.75 1.984375l0 3.390625l0.3125 1.703125l-1.28125 0zm-2.6875 -0.90625q0.703125 0 1.25 -0.296875q0.5625 -0.296875 1.109375 -0.84375l0 -1.4375l-1.34375 0q-2.21875 0 -2.21875 1.421875q0 0.53125 0.328125 0.84375q0.34375 0.3125 0.875 0.3125zm6.360031 -10.140625l1.296875 0l0 11.046875l-1.296875 0l0 -11.046875zm11.92627 3.21875q1.0 0 1.703125 0.53125q0.703125 0.53125 1.0625 1.4375q0.359375 0.90625 0.359375 2.046875q0 1.140625 -0.421875 2.046875q-0.40625 0.90625 -1.203125 1.421875q-0.78125 0.5 -1.84375 0.5q-0.546875 0 -1.015625 -0.125q-0.46875 -0.109375 -1.0 -0.328125l0 3.703125l-1.28125 0l0 -9.359375l-0.328125 -1.703125l1.296875 0l0.1875 0.984375q1.0 -1.15625 2.484375 -1.15625zm-0.484375 6.84375q1.0625 0 1.640625 -0.78125q0.578125 -0.796875 0.578125 -2.046875q0 -1.25 -0.453125 -2.03125q-0.4375 -0.796875 -1.390625 -0.796875q-0.671875 0 -1.21875 0.28125q-0.53125 0.28125 -1.03125 0.8125l0 4.265625q0.953125 0.296875 1.875 0.296875zm10.973785 0.984375l-0.203125 -1.09375q-0.578125 0.625 -1.25 0.953125q-0.65625 0.3125 -1.5 0.3125q-1.03125 0 -1.6875 -0.59375q-0.640625 -0.59375 -0.640625 -1.578125q0 -1.265625 1.015625 -1.859375q1.03125 -0.609375 2.640625 -0.609375q0.59375 0 1.296875 0.078125l0 -0.53125q0 -0.796875 -0.4375 -1.265625q-0.421875 -0.484375 -1.109375 -0.484375q-0.828125 0 -1.5 0.21875q-0.65625 0.21875 -1.359375 0.6875l0 -1.234375q0.6875 -0.453125 1.40625 -0.640625q0.71875 -0.1875 1.640625 -0.1875q1.171875 0 1.90625 0.75q0.75 0.75 0.75 1.984375l0 3.390625l0.3125 1.703125l-1.28125 0zm-2.6875 -0.90625q0.703125 0 1.25 -0.296875q0.5625 -0.296875 1.109375 -0.84375l0 -1.4375l-1.34375 0q-2.21875 0 -2.21875 1.421875q0 0.53125 0.328125 0.84375q0.34375 0.3125 0.875 0.3125zm13.016296 -6.765625l-0.328125 1.703125l0 5.46875q0 1.9375 -0.890625 3.0q-0.890625 1.078125 -2.65625 1.078125q-0.984375 0 -1.609375 -0.203125q-0.625 -0.1875 -1.296875 -0.75l0 -1.3125q0.71875 0.609375 1.34375 0.828125q0.625 0.234375 1.5625 0.234375q1.125 0 1.6875 -0.71875q0.578125 -0.703125 0.578125 -1.984375l0 -0.375q-0.484375 0.328125 -0.984375 0.46875q-0.484375 0.125 -1.15625 0.125q-1.65625 0 -2.5 -0.984375q-0.84375 -1.0 -0.84375 -2.8125q0 -1.859375 0.875 -2.890625q0.875 -1.03125 2.609375 -1.03125q0.625 0 1.09375 0.125q0.46875 0.125 1.125 0.421875l0.09375 -0.390625l1.296875 0zm-3.734375 6.375q0.640625 0 1.125 -0.15625q0.484375 -0.15625 1.0 -0.515625l0 -4.421875q-0.46875 -0.15625 -0.890625 -0.21875q-0.421875 -0.078125 -0.953125 -0.078125q-1.15625 0 -1.703125 0.734375q-0.546875 0.734375 -0.546875 2.046875q0 2.609375 1.96875 2.609375zm12.555664 -2.109375l-5.421875 0q0.109375 1.140625 0.75 1.8125q0.640625 0.65625 1.734375 0.65625q0.671875 0 1.28125 -0.265625q0.625 -0.28125 1.28125 -0.8125l0.046875 0l0 1.296875q-0.640625 0.46875 -1.28125 0.6875q-0.625 0.203125 -1.34375 0.203125q-1.171875 0 -2.03125 -0.5q-0.859375 -0.515625 -1.328125 -1.4375q-0.453125 -0.921875 -0.453125 -2.109375q0 -1.125 0.40625 -2.015625q0.421875 -0.90625 1.203125 -1.421875q0.78125 -0.515625 1.8125 -0.515625q1.0625 0 1.8125 0.53125q0.75 0.515625 1.140625 1.421875q0.390625 0.90625 0.390625 2.046875l0 0.421875zm-3.328125 -3.34375q-0.90625 0 -1.453125 0.65625q-0.53125 0.65625 -0.640625 1.703125l4.09375 0q-0.109375 -1.078125 -0.609375 -1.71875q-0.484375 -0.640625 -1.390625 -0.640625zm16.350647 5.53125l0 1.21875l-6.765625 0l0 -1.21875l3.015625 0l0 -7.328125l-2.046875 1.0625l-0.0625 0l-0.265625 -0.84375l0 -0.0625l2.703125 -1.8125l0.96875 0l0 8.984375l2.453125 0z" fill-rule="nonzero"/><path fill="#000000" d="m358.188 262.74396l-2.828125 7.65625l-1.765625 0l-2.828125 -7.65625l1.328125 0l2.421875 6.609375l2.40625 -6.609375l1.265625 0zm2.441925 -1.71875q-0.40625 0 -0.671875 -0.265625q-0.25 -0.265625 -0.25 -0.671875q0 -0.421875 0.25 -0.671875q0.265625 -0.265625 0.671875 -0.265625q0.421875 0 0.671875 0.265625q0.25 0.25 0.25 0.671875q0 0.40625 -0.25 0.671875q-0.25 0.265625 -0.671875 0.265625zm0.65625 1.71875l0 7.65625l-1.296875 0l0 -7.65625l1.296875 0zm6.713135 -0.171875l0 1.421875l-0.234375 0q-0.6875 0 -1.234375 0.25q-0.546875 0.25 -0.90625 0.71875l0 5.4375l-1.296875 0l0 -5.953125l-0.328125 -1.703125l1.296875 0l0.265625 1.375q0.59375 -0.890625 1.015625 -1.21875q0.421875 -0.328125 0.953125 -0.328125l0.46875 0zm3.9681396 0.171875l2.109375 0l0 1.125l-2.109375 0l0 4.375q0 0.546875 0.234375 0.875q0.25 0.328125 0.71875 0.328125q0.3125 0 0.5625 -0.0625q0.265625 -0.0625 0.59375 -0.21875l0 1.140625q-0.34375 0.171875 -0.65625 0.21875q-0.296875 0.046875 -0.734375 0.046875q-0.9375 0 -1.484375 -0.59375q-0.53125 -0.609375 -0.53125 -1.59375l0 -4.515625l-1.46875 0l0 -1.125l1.46875 0l0 -2.046875l1.296875 -0.671875l0 2.71875zm9.471893 7.65625l-0.21875 -1.0625q-0.671875 0.625 -1.296875 0.9375q-0.609375 0.296875 -1.453125 0.296875q-1.046875 0 -1.625 -0.6875q-0.578125 -0.6875 -0.578125 -1.828125l0 -5.3125l1.296875 0l0 5.140625q0 0.703125 0.3125 1.125q0.328125 0.40625 0.9375 0.40625q0.6875 0 1.203125 -0.25q0.515625 -0.25 1.09375 -0.75l0 -5.671875l1.28125 0l0 5.953125l0.328125 1.703125l-1.28125 0zm8.880035 0l-0.203125 -1.09375q-0.578125 0.625 -1.25 0.953125q-0.65625 0.3125 -1.5 0.3125q-1.03125 0 -1.6875 -0.59375q-0.640625 -0.59375 -0.640625 -1.578125q0 -1.265625 1.015625 -1.859375q1.03125 -0.609375 2.640625 -0.609375q0.59375 0 1.296875 0.078125l0 -0.53125q0 -0.796875 -0.4375 -1.265625q-0.421875 -0.484375 -1.109375 -0.484375q-0.828125 0 -1.5 0.21875q-0.65625 0.21875 -1.359375 0.6875l0 -1.234375q0.6875 -0.453125 1.40625 -0.640625q0.71875 -0.1875 1.640625 -0.1875q1.171875 0 1.90625 0.75q0.75 0.75 0.75 1.984375l0 3.390625l0.3125 1.703125l-1.28125 0zm-2.6875 -0.90625q0.703125 0 1.25 -0.296875q0.5625 -0.296875 1.109375 -0.84375l0 -1.4375l-1.34375 0q-2.21875 0 -2.21875 1.421875q0 0.53125 0.328125 0.84375q0.34375 0.3125 0.875 0.3125zm6.3600464 -10.140625l1.296875 0l0 11.046875l-1.296875 0l0 -11.046875zm11.92627 3.21875q1.0 0 1.703125 0.53125q0.703125 0.53125 1.0625 1.4375q0.359375 0.90625 0.359375 2.046875q0 1.140625 -0.421875 2.046875q-0.40625 0.90625 -1.203125 1.421875q-0.78125 0.5 -1.84375 0.5q-0.546875 0 -1.015625 -0.125q-0.46875 -0.109375 -1.0 -0.328125l0 3.703125l-1.28125 0l0 -9.359375l-0.328125 -1.703125l1.296875 0l0.1875 0.984375q1.0 -1.15625 2.484375 -1.15625zm-0.484375 6.84375q1.0625 0 1.640625 -0.78125q0.578125 -0.796875 0.578125 -2.046875q0 -1.25 -0.453125 -2.03125q-0.4375 -0.796875 -1.390625 -0.796875q-0.671875 0 -1.21875 0.28125q-0.53125 0.28125 -1.03125 0.8125l0 4.265625q0.953125 0.296875 1.875 0.296875zm10.973785 0.984375l-0.203125 -1.09375q-0.578125 0.625 -1.25 0.953125q-0.65625 0.3125 -1.5 0.3125q-1.03125 0 -1.6875 -0.59375q-0.640625 -0.59375 -0.640625 -1.578125q0 -1.265625 1.015625 -1.859375q1.03125 -0.609375 2.640625 -0.609375q0.59375 0 1.296875 0.078125l0 -0.53125q0 -0.796875 -0.4375 -1.265625q-0.421875 -0.484375 -1.109375 -0.484375q-0.828125 0 -1.5 0.21875q-0.65625 0.21875 -1.359375 0.6875l0 -1.234375q0.6875 -0.453125 1.40625 -0.640625q0.71875 -0.1875 1.640625 -0.1875q1.171875 0 1.90625 0.75q0.75 0.75 0.75 1.984375l0 3.390625l0.3125 1.703125l-1.28125 0zm-2.6875 -0.90625q0.703125 0 1.25 -0.296875q0.5625 -0.296875 1.109375 -0.84375l0 -1.4375l-1.34375 0q-2.21875 0 -2.21875 1.421875q0 0.53125 0.328125 0.84375q0.34375 0.3125 0.875 0.3125zm13.016266 -6.765625l-0.328125 1.703125l0 5.46875q0 1.9375 -0.890625 3.0q-0.890625 1.078125 -2.65625 1.078125q-0.984375 0 -1.609375 -0.203125q-0.625 -0.1875 -1.296875 -0.75l0 -1.3125q0.71875 0.609375 1.34375 0.828125q0.625 0.234375 1.5625 0.234375q1.125 0 1.6875 -0.71875q0.578125 -0.703125 0.578125 -1.984375l0 -0.375q-0.484375 0.328125 -0.984375 0.46875q-0.484375 0.125 -1.15625 0.125q-1.65625 0 -2.5 -0.984375q-0.84375 -1.0 -0.84375 -2.8125q0 -1.859375 0.875 -2.890625q0.875 -1.03125 2.609375 -1.03125q0.625 0 1.09375 0.125q0.46875 0.125 1.125 0.421875l0.09375 -0.390625l1.296875 0zm-3.734375 6.375q0.640625 0 1.125 -0.15625q0.484375 -0.15625 1.0 -0.515625l0 -4.421875q-0.46875 -0.15625 -0.890625 -0.21875q-0.421875 -0.078125 -0.953125 -0.078125q-1.15625 0 -1.703125 0.734375q-0.546875 0.734375 -0.546875 2.046875q0 2.609375 1.96875 2.609375zm12.555664 -2.109375l-5.421875 0q0.109375 1.140625 0.75 1.8125q0.640625 0.65625 1.734375 0.65625q0.671875 0 1.28125 -0.265625q0.625 -0.28125 1.28125 -0.8125l0.046875 0l0 1.296875q-0.640625 0.46875 -1.28125 0.6875q-0.625 0.203125 -1.34375 0.203125q-1.171875 0 -2.03125 -0.5q-0.859375 -0.515625 -1.328125 -1.4375q-0.453125 -0.921875 -0.453125 -2.109375q0 -1.125 0.40625 -2.015625q0.421875 -0.90625 1.203125 -1.421875q0.78125 -0.515625 1.8125 -0.515625q1.0625 0 1.8125 0.53125q0.75 0.515625 1.140625 1.421875q0.390625 0.90625 0.390625 2.046875l0 0.421875zm-3.328125 -3.34375q-0.90625 0 -1.453125 0.65625q-0.53125 0.65625 -0.640625 1.703125l4.09375 0q-0.109375 -1.078125 -0.609375 -1.71875q-0.484375 -0.640625 -1.390625 -0.640625zm16.350677 5.515625l0 1.234375l-6.765625 0l0 -0.984375l3.671875 -3.90625q0.84375 -0.90625 1.140625 -1.4375q0.3125 -0.546875 0.3125 -1.09375q0 -0.84375 -0.578125 -1.296875q-0.5625 -0.46875 -1.59375 -0.46875q-1.40625 0 -2.625 0.8125l0 -1.28125q1.21875 -0.71875 2.671875 -0.71875q1.046875 0 1.828125 0.34375q0.78125 0.34375 1.203125 0.984375q0.4375 0.625 0.4375 1.453125q0 0.78125 -0.375 1.578125q-0.375 0.78125 -1.109375 1.53125l-3.15625 3.25l4.9375 0z" fill-rule="nonzero"/><path fill="#000000" d="m508.60794 262.74396l-2.828125 7.65625l-1.765625 0l-2.828125 -7.65625l1.328125 0l2.421875 6.609375l2.40625 -6.609375l1.265625 0zm2.441925 -1.71875q-0.40625 0 -0.671875 -0.265625q-0.25 -0.265625 -0.25 -0.671875q0 -0.421875 0.25 -0.671875q0.265625 -0.265625 0.671875 -0.265625q0.421875 0 0.671875 0.265625q0.25 0.25 0.25 0.671875q0 0.40625 -0.25 0.671875q-0.25 0.265625 -0.671875 0.265625zm0.65625 1.71875l0 7.65625l-1.296875 0l0 -7.65625l1.296875 0zm6.713135 -0.171875l0 1.421875l-0.234375 0q-0.6875 0 -1.234375 0.25q-0.546875 0.25 -0.90625 0.71875l0 5.4375l-1.296875 0l0 -5.953125l-0.328125 -1.703125l1.296875 0l0.265625 1.375q0.59375 -0.890625 1.015625 -1.21875q0.421875 -0.328125 0.953125 -0.328125l0.46875 0zm3.9681396 0.171875l2.109375 0l0 1.125l-2.109375 0l0 4.375q0 0.546875 0.234375 0.875q0.25 0.328125 0.71875 0.328125q0.3125 0 0.5625 -0.0625q0.265625 -0.0625 0.59375 -0.21875l0 1.140625q-0.34375 0.171875 -0.65625 0.21875q-0.296875 0.046875 -0.734375 0.046875q-0.9375 0 -1.484375 -0.59375q-0.53125 -0.609375 -0.53125 -1.59375l0 -4.515625l-1.46875 0l0 -1.125l1.46875 0l0 -2.046875l1.296875 -0.671875l0 2.71875zm9.471924 7.65625l-0.21875 -1.0625q-0.671875 0.625 -1.296875 0.9375q-0.609375 0.296875 -1.453125 0.296875q-1.046875 0 -1.625 -0.6875q-0.578125 -0.6875 -0.578125 -1.828125l0 -5.3125l1.296875 0l0 5.140625q0 0.703125 0.3125 1.125q0.328125 0.40625 0.9375 0.40625q0.6875 0 1.203125 -0.25q0.515625 -0.25 1.09375 -0.75l0 -5.671875l1.28125 0l0 5.953125l0.328125 1.703125l-1.28125 0zm8.880005 0l-0.203125 -1.09375q-0.578125 0.625 -1.25 0.953125q-0.65625 0.3125 -1.5 0.3125q-1.03125 0 -1.6875 -0.59375q-0.640625 -0.59375 -0.640625 -1.578125q0 -1.265625 1.015625 -1.859375q1.03125 -0.609375 2.640625 -0.609375q0.59375 0 1.296875 0.078125l0 -0.53125q0 -0.796875 -0.4375 -1.265625q-0.421875 -0.484375 -1.109375 -0.484375q-0.828125 0 -1.5 0.21875q-0.65625 0.21875 -1.359375 0.6875l0 -1.234375q0.6875 -0.453125 1.40625 -0.640625q0.71875 -0.1875 1.640625 -0.1875q1.171875 0 1.90625 0.75q0.75 0.75 0.75 1.984375l0 3.390625l0.3125 1.703125l-1.28125 0zm-2.6875 -0.90625q0.703125 0 1.25 -0.296875q0.5625 -0.296875 1.109375 -0.84375l0 -1.4375l-1.34375 0q-2.21875 0 -2.21875 1.421875q0 0.53125 0.328125 0.84375q0.34375 0.3125 0.875 0.3125zm6.3600464 -10.140625l1.296875 0l0 11.046875l-1.296875 0l0 -11.046875zm11.92627 3.21875q1.0 0 1.703125 0.53125q0.703125 0.53125 1.0625 1.4375q0.359375 0.90625 0.359375 2.046875q0 1.140625 -0.421875 2.046875q-0.40625 0.90625 -1.203125 1.421875q-0.78125 0.5 -1.84375 0.5q-0.546875 0 -1.015625 -0.125q-0.46875 -0.109375 -1.0 -0.328125l0 3.703125l-1.28125 0l0 -9.359375l-0.328125 -1.703125l1.296875 0l0.1875 0.984375q1.0 -1.15625 2.484375 -1.15625zm-0.484375 6.84375q1.0625 0 1.640625 -0.78125q0.578125 -0.796875 0.578125 -2.046875q0 -1.25 -0.453125 -2.03125q-0.4375 -0.796875 -1.390625 -0.796875q-0.671875 0 -1.21875 0.28125q-0.53125 0.28125 -1.03125 0.8125l0 4.265625q0.953125 0.296875 1.875 0.296875zm10.973755 0.984375l-0.203125 -1.09375q-0.578125 0.625 -1.25 0.953125q-0.65625 0.3125 -1.5 0.3125q-1.03125 0 -1.6875 -0.59375q-0.640625 -0.59375 -0.640625 -1.578125q0 -1.265625 1.015625 -1.859375q1.03125 -0.609375 2.640625 -0.609375q0.59375 0 1.296875 0.078125l0 -0.53125q0 -0.796875 -0.4375 -1.265625q-0.421875 -0.484375 -1.109375 -0.484375q-0.828125 0 -1.5 0.21875q-0.65625 0.21875 -1.359375 0.6875l0 -1.234375q0.6875 -0.453125 1.40625 -0.640625q0.71875 -0.1875 1.640625 -0.1875q1.171875 0 1.90625 0.75q0.75 0.75 0.75 1.984375l0 3.390625l0.3125 1.703125l-1.28125 0zm-2.6875 -0.90625q0.703125 0 1.25 -0.296875q0.5625 -0.296875 1.109375 -0.84375l0 -1.4375l-1.34375 0q-2.21875 0 -2.21875 1.421875q0 0.53125 0.328125 0.84375q0.34375 0.3125 0.875 0.3125zm13.016296 -6.765625l-0.328125 1.703125l0 5.46875q0 1.9375 -0.890625 3.0q-0.890625 1.078125 -2.65625 1.078125q-0.984375 0 -1.609375 -0.203125q-0.625 -0.1875 -1.296875 -0.75l0 -1.3125q0.71875 0.609375 1.34375 0.828125q0.625 0.234375 1.5625 0.234375q1.125 0 1.6875 -0.71875q0.578125 -0.703125 0.578125 -1.984375l0 -0.375q-0.484375 0.328125 -0.984375 0.46875q-0.484375 0.125 -1.15625 0.125q-1.65625 0 -2.5 -0.984375q-0.84375 -1.0 -0.84375 -2.8125q0 -1.859375 0.875 -2.890625q0.875 -1.03125 2.609375 -1.03125q0.625 0 1.09375 0.125q0.46875 0.125 1.125 0.421875l0.09375 -0.390625l1.296875 0zm-3.734375 6.375q0.640625 0 1.125 -0.15625q0.484375 -0.15625 1.0 -0.515625l0 -4.421875q-0.46875 -0.15625 -0.890625 -0.21875q-0.421875 -0.078125 -0.953125 -0.078125q-1.15625 0 -1.703125 0.734375q-0.546875 0.734375 -0.546875 2.046875q0 2.609375 1.96875 2.609375zm12.555664 -2.109375l-5.421875 0q0.109375 1.140625 0.75 1.8125q0.640625 0.65625 1.734375 0.65625q0.671875 0 1.28125 -0.265625q0.625 -0.28125 1.28125 -0.8125l0.046875 0l0 1.296875q-0.640625 0.46875 -1.28125 0.6875q-0.625 0.203125 -1.34375 0.203125q-1.171875 0 -2.03125 -0.5q-0.859375 -0.515625 -1.328125 -1.4375q-0.453125 -0.921875 -0.453125 -2.109375q0 -1.125 0.40625 -2.015625q0.421875 -0.90625 1.203125 -1.421875q0.78125 -0.515625 1.8125 -0.515625q1.0625 0 1.8125 0.53125q0.75 0.515625 1.140625 1.421875q0.390625 0.90625 0.390625 2.046875l0 0.421875zm-3.328125 -3.34375q-0.90625 0 -1.453125 0.65625q-0.53125 0.65625 -0.640625 1.703125l4.09375 0q-0.109375 -1.078125 -0.609375 -1.71875q-0.484375 -0.640625 -1.390625 -0.640625zm14.460022 1.4375q0.890625 0.34375 1.390625 1.015625q0.5 0.65625 0.5 1.546875q0 0.84375 -0.484375 1.515625q-0.46875 0.65625 -1.34375 1.03125q-0.875 0.375 -1.984375 0.375q-0.796875 0 -1.515625 -0.203125q-0.703125 -0.203125 -1.4375 -0.625l0 -1.359375l0.0625 0q0.75 0.515625 1.4375 0.765625q0.703125 0.234375 1.4375 0.234375q1.109375 0 1.796875 -0.5q0.6875 -0.515625 0.6875 -1.34375q0 -0.859375 -0.765625 -1.359375q-0.765625 -0.515625 -2.078125 -0.515625l-0.640625 0l0 -1.15625l0.640625 0q1.265625 0 1.953125 -0.421875q0.6875 -0.4375 0.6875 -1.21875q0 -0.765625 -0.609375 -1.203125q-0.609375 -0.4375 -1.640625 -0.4375q-0.640625 0 -1.25 0.1875q-0.609375 0.171875 -1.34375 0.59375l-0.0625 0l0 -1.265625q1.296875 -0.71875 2.734375 -0.71875q1.046875 0 1.828125 0.328125q0.796875 0.328125 1.21875 0.9375q0.4375 0.59375 0.4375 1.390625q0 0.796875 -0.453125 1.4375q-0.4375 0.625 -1.203125 0.96875z" fill-rule="nonzero"/><path stroke="#000000" stroke-width="1.3333333333333333" stroke-linecap="butt" d="m24.010498 305.5118l0 32.33072" fill-rule="nonzero"/><path stroke="#000000" stroke-width="1.3333333333333333" stroke-linecap="butt" d="m174.43045 305.5118l0 32.33072" fill-rule="nonzero"/><path stroke="#000000" stroke-width="1.3333333333333333" stroke-linecap="butt" d="m324.8504 305.5118l0 32.33072" fill-rule="nonzero"/><path stroke="#000000" stroke-width="1.3333333333333333" stroke-linecap="butt" d="m475.27036 305.5118l0 32.33072" fill-rule="nonzero"/><path stroke="#000000" stroke-width="1.3333333333333333" stroke-linecap="butt" d="m625.6903 305.5118l0 32.33072" fill-rule="nonzero"/><path stroke="#000000" stroke-width="1.3333333333333333" stroke-linecap="butt" d="m23.51181 306.0105l602.6771 0" fill-rule="nonzero"/><path stroke="#000000" stroke-width="1.3333333333333333" stroke-linecap="butt" d="m23.51181 337.34384l602.6771 0" fill-rule="nonzero"/><path fill="#000000" d="m46.30652 318.26236q1.0 0 1.703125 0.53125q0.703125 0.53125 1.0625 1.4375q0.359375 0.90625 0.359375 2.046875q0 1.140625 -0.421875 2.046875q-0.40625 0.90625 -1.203125 1.421875q-0.78125 0.5 -1.84375 0.5q-0.546875 0 -1.015625 -0.125q-0.46875 -0.109375 -1.0 -0.328125l0 3.703125l-1.28125 0l0 -9.359375l-0.328125 -1.703125l1.296875 0l0.1875 0.984375q1.0 -1.15625 2.484375 -1.15625zm-0.484375 6.84375q1.0625 0 1.640625 -0.78125q0.578125 -0.796875 0.578125 -2.046875q0 -1.25 -0.453125 -2.03125q-0.4375 -0.796875 -1.390625 -0.796875q-0.671875 0 -1.21875 0.28125q-0.53125 0.28125 -1.03125 0.8125l0 4.265625q0.953125 0.296875 1.875 0.296875zm10.30191 -6.84375q1.078125 0 1.625 0.671875q0.5625 0.65625 0.5625 1.84375l0 5.3125l-1.28125 0l0 -5.125q0 -0.734375 -0.3125 -1.140625q-0.3125 -0.40625 -0.9375 -0.40625q-0.71875 0 -1.21875 0.234375q-0.484375 0.234375 -1.078125 0.765625l0 5.671875l-1.296875 0l0 -11.046875l1.296875 0l0 4.34375q0.640625 -0.578125 1.21875 -0.84375q0.578125 -0.28125 1.421875 -0.28125zm11.630035 0.171875l-4.390625 11.0625l-1.3125 0l1.3125 -3.3125l-3.03125 -7.75l1.328125 0l2.390625 6.28125l2.328125 -6.28125l1.375 0zm3.9106598 7.828125q-0.703125 0 -1.390625 -0.203125q-0.671875 -0.21875 -1.28125 -0.609375l0 -1.359375q1.34375 1.03125 2.640625 1.03125q0.765625 0 1.234375 -0.3125q0.46875 -0.3125 0.46875 -0.84375q0 -0.359375 -0.234375 -0.59375q-0.21875 -0.234375 -0.5625 -0.359375q-0.328125 -0.140625 -0.96875 -0.34375q-0.765625 -0.21875 -1.28125 -0.421875q-0.5 -0.21875 -0.859375 -0.625q-0.34375 -0.421875 -0.34375 -1.09375q0 -1.03125 0.765625 -1.640625q0.78125 -0.625 2.046875 -0.625q1.265625 0 2.28125 0.65625l0 1.3125q-0.5625 -0.4375 -1.109375 -0.625q-0.53125 -0.203125 -1.109375 -0.203125q-0.734375 0 -1.15625 0.265625q-0.421875 0.265625 -0.421875 0.734375q0 0.34375 0.21875 0.5625q0.234375 0.21875 0.5625 0.359375q0.34375 0.125 0.96875 0.3125q0.796875 0.234375 1.296875 0.453125q0.5 0.203125 0.84375 0.640625q0.359375 0.421875 0.359375 1.109375q0 0.71875 -0.390625 1.265625q-0.375 0.546875 -1.046875 0.859375q-0.671875 0.296875 -1.53125 0.296875zm5.8594055 -9.546875q-0.40625 0 -0.671875 -0.265625q-0.25 -0.265625 -0.25 -0.671875q0 -0.421875 0.25 -0.671875q0.265625 -0.265625 0.671875 -0.265625q0.421875 0 0.671875 0.265625q0.25 0.25 0.25 0.671875q0 0.40625 -0.25 0.671875q-0.25 0.265625 -0.671875 0.265625zm0.65625 1.71875l0 7.65625l-1.296875 0l0 -7.65625l1.296875 0zm5.79126 7.828125q-1.0625 0 -1.875 -0.5q-0.796875 -0.515625 -1.234375 -1.421875q-0.421875 -0.90625 -0.421875 -2.046875q0 -1.15625 0.421875 -2.0625q0.4375 -0.921875 1.234375 -1.4375q0.8125 -0.53125 1.890625 -0.53125q0.765625 0 1.328125 0.171875q0.578125 0.15625 1.09375 0.578125l0 1.25l-0.0625 0q-0.515625 -0.4375 -1.09375 -0.625q-0.5625 -0.203125 -1.28125 -0.203125q-1.03125 0 -1.59375 0.8125q-0.5625 0.796875 -0.5625 2.0625q0 1.21875 0.5625 2.0q0.5625 0.78125 1.578125 0.78125q0.765625 0 1.359375 -0.234375q0.609375 -0.25 1.203125 -0.78125l0.046875 0l0 1.25q-0.53125 0.515625 -1.15625 0.734375q-0.625 0.203125 -1.4375 0.203125zm9.758148 -0.171875l-0.203125 -1.09375q-0.578125 0.625 -1.25 0.953125q-0.65625 0.3125 -1.5 0.3125q-1.03125 0 -1.6875 -0.59375q-0.640625 -0.59375 -0.640625 -1.578125q0 -1.265625 1.015625 -1.859375q1.03125 -0.609375 2.640625 -0.609375q0.59375 0 1.296875 0.078125l0 -0.53125q0 -0.796875 -0.4375 -1.265625q-0.421875 -0.484375 -1.109375 -0.484375q-0.828125 0 -1.5 0.21875q-0.65625 0.21875 -1.359375 0.6875l0 -1.234375q0.6875 -0.453125 1.40625 -0.640625q0.71875 -0.1875 1.640625 -0.1875q1.171875 0 1.90625 0.75q0.75 0.75 0.75 1.984375l0 3.390625l0.3125 1.703125l-1.28125 0zm-2.6875 -0.90625q0.703125 0 1.25 -0.296875q0.5625 -0.296875 1.109375 -0.84375l0 -1.4375l-1.34375 0q-2.21875 0 -2.21875 1.421875q0 0.53125 0.328125 0.84375q0.34375 0.3125 0.875 0.3125zm6.360031 -10.140625l1.296875 0l0 11.046875l-1.296875 0l0 -11.046875zm16.03003 3.21875q1.0 0 1.703125 0.53125q0.703125 0.53125 1.0625 1.4375q0.359375 0.90625 0.359375 2.046875q0 1.140625 -0.421875 2.046875q-0.40625 0.90625 -1.203125 1.421875q-0.78125 0.5 -1.84375 0.5q-0.546875 0 -1.015625 -0.125q-0.46875 -0.109375 -1.0 -0.328125l0 3.703125l-1.28125 0l0 -9.359375l-0.328125 -1.703125l1.296875 0l0.1875 0.984375q1.0 -1.15625 2.484375 -1.15625zm-0.484375 6.84375q1.0625 0 1.640625 -0.78125q0.578125 -0.796875 0.578125 -2.046875q0 -1.25 -0.453125 -2.03125q-0.4375 -0.796875 -1.390625 -0.796875q-0.671875 0 -1.21875 0.28125q-0.53125 0.28125 -1.03125 0.8125l0 4.265625q0.953125 0.296875 1.875 0.296875zm10.973785 0.984375l-0.203125 -1.09375q-0.578125 0.625 -1.25 0.953125q-0.65625 0.3125 -1.5 0.3125q-1.03125 0 -1.6875 -0.59375q-0.640625 -0.59375 -0.640625 -1.578125q0 -1.265625 1.015625 -1.859375q1.03125 -0.609375 2.640625 -0.609375q0.59375 0 1.296875 0.078125l0 -0.53125q0 -0.796875 -0.4375 -1.265625q-0.421875 -0.484375 -1.109375 -0.484375q-0.828125 0 -1.5 0.21875q-0.65625 0.21875 -1.359375 0.6875l0 -1.234375q0.6875 -0.453125 1.40625 -0.640625q0.71875 -0.1875 1.640625 -0.1875q1.171875 0 1.90625 0.75q0.75 0.75 0.75 1.984375l0 3.390625l0.3125 1.703125l-1.28125 0zm-2.6875 -0.90625q0.703125 0 1.25 -0.296875q0.5625 -0.296875 1.109375 -0.84375l0 -1.4375l-1.34375 0q-2.21875 0 -2.21875 1.421875q0 0.53125 0.328125 0.84375q0.34375 0.3125 0.875 0.3125zm13.016281 -6.765625l-0.328125 1.703125l0 5.46875q0 1.9375 -0.890625 3.0q-0.890625 1.078125 -2.65625 1.078125q-0.984375 0 -1.609375 -0.203125q-0.625 -0.1875 -1.296875 -0.75l0 -1.3125q0.71875 0.609375 1.34375 0.828125q0.625 0.234375 1.5625 0.234375q1.125 0 1.6875 -0.71875q0.578125 -0.703125 0.578125 -1.984375l0 -0.375q-0.484375 0.328125 -0.984375 0.46875q-0.484375 0.125 -1.15625 0.125q-1.65625 0 -2.5 -0.984375q-0.84375 -1.0 -0.84375 -2.8125q0 -1.859375 0.875 -2.890625q0.875 -1.03125 2.609375 -1.03125q0.625 0 1.09375 0.125q0.46875 0.125 1.125 0.421875l0.09375 -0.390625l1.296875 0zm-3.734375 6.375q0.640625 0 1.125 -0.15625q0.484375 -0.15625 1.0 -0.515625l0 -4.421875q-0.46875 -0.15625 -0.890625 -0.21875q-0.421875 -0.078125 -0.953125 -0.078125q-1.15625 0 -1.703125 0.734375q-0.546875 0.734375 -0.546875 2.046875q0 2.609375 1.96875 2.609375zm12.555664 -2.109375l-5.421875 0q0.109375 1.140625 0.75 1.8125q0.640625 0.65625 1.734375 0.65625q0.671875 0 1.28125 -0.265625q0.625 -0.28125 1.28125 -0.8125l0.046875 0l0 1.296875q-0.640625 0.46875 -1.28125 0.6875q-0.625 0.203125 -1.34375 0.203125q-1.171875 0 -2.03125 -0.5q-0.859375 -0.515625 -1.328125 -1.4375q-0.453125 -0.921875 -0.453125 -2.109375q0 -1.125 0.40625 -2.015625q0.421875 -0.90625 1.203125 -1.421875q0.78125 -0.515625 1.8125 -0.515625q1.0625 0 1.8125 0.53125q0.75 0.515625 1.140625 1.421875q0.390625 0.90625 0.390625 2.046875l0 0.421875zm-3.328125 -3.34375q-0.90625 0 -1.453125 0.65625q-0.53125 0.65625 -0.640625 1.703125l4.09375 0q-0.109375 -1.078125 -0.609375 -1.71875q-0.484375 -0.640625 -1.390625 -0.640625zm12.897537 -3.625q1.875 0 2.828125 1.28125q0.953125 1.265625 0.953125 3.75q0 2.703125 -1.109375 4.109375q-1.109375 1.40625 -3.234375 1.40625q-0.75 0 -1.359375 -0.171875q-0.59375 -0.1875 -1.234375 -0.609375l0 -1.328125l0.0625 0q1.203125 0.90625 2.625 0.90625q1.375 0 2.0625 -0.90625q0.703125 -0.921875 0.78125 -2.859375q-1.109375 0.890625 -2.609375 0.890625q-1.578125 0 -2.5 -0.828125q-0.90625 -0.828125 -0.90625 -2.28125q0 -1.015625 0.453125 -1.78125q0.453125 -0.765625 1.28125 -1.171875q0.828125 -0.40625 1.90625 -0.40625zm-2.25 3.296875q0 0.9375 0.578125 1.46875q0.59375 0.53125 1.609375 0.53125q1.25 0 2.4375 -0.890625q-0.09375 -1.671875 -0.671875 -2.4375q-0.5625 -0.78125 -1.6875 -0.78125q-1.03125 0 -1.65625 0.578125q-0.609375 0.578125 -0.609375 1.53125z" fill-rule="nonzero"/><path fill="#000000" d="m196.72647 318.26236q1.0 0 1.703125 0.53125q0.703125 0.53125 1.0625 1.4375q0.359375 0.90625 0.359375 2.046875q0 1.140625 -0.421875 2.046875q-0.40625 0.90625 -1.203125 1.421875q-0.78125 0.5 -1.84375 0.5q-0.546875 0 -1.015625 -0.125q-0.46875 -0.109375 -1.0 -0.328125l0 3.703125l-1.28125 0l0 -9.359375l-0.328125 -1.703125l1.296875 0l0.1875 0.984375q1.0 -1.15625 2.484375 -1.15625zm-0.484375 6.84375q1.0625 0 1.640625 -0.78125q0.578125 -0.796875 0.578125 -2.046875q0 -1.25 -0.453125 -2.03125q-0.4375 -0.796875 -1.390625 -0.796875q-0.671875 0 -1.21875 0.28125q-0.53125 0.28125 -1.03125 0.8125l0 4.265625q0.953125 0.296875 1.875 0.296875zm10.30191 -6.84375q1.078125 0 1.625 0.671875q0.5625 0.65625 0.5625 1.84375l0 5.3125l-1.28125 0l0 -5.125q0 -0.734375 -0.3125 -1.140625q-0.3125 -0.40625 -0.9375 -0.40625q-0.71875 0 -1.21875 0.234375q-0.484375 0.234375 -1.078125 0.765625l0 5.671875l-1.296875 0l0 -11.046875l1.296875 0l0 4.34375q0.640625 -0.578125 1.21875 -0.84375q0.578125 -0.28125 1.421875 -0.28125zm11.630035 0.171875l-4.390625 11.0625l-1.3125 0l1.3125 -3.3125l-3.03125 -7.75l1.328125 0l2.390625 6.28125l2.328125 -6.28125l1.375 0zm3.9106598 7.828125q-0.703125 0 -1.390625 -0.203125q-0.671875 -0.21875 -1.28125 -0.609375l0 -1.359375q1.34375 1.03125 2.640625 1.03125q0.765625 0 1.234375 -0.3125q0.46875 -0.3125 0.46875 -0.84375q0 -0.359375 -0.234375 -0.59375q-0.21875 -0.234375 -0.5625 -0.359375q-0.328125 -0.140625 -0.96875 -0.34375q-0.765625 -0.21875 -1.28125 -0.421875q-0.5 -0.21875 -0.859375 -0.625q-0.34375 -0.421875 -0.34375 -1.09375q0 -1.03125 0.765625 -1.640625q0.78125 -0.625 2.046875 -0.625q1.265625 0 2.28125 0.65625l0 1.3125q-0.5625 -0.4375 -1.109375 -0.625q-0.53125 -0.203125 -1.109375 -0.203125q-0.734375 0 -1.15625 0.265625q-0.421875 0.265625 -0.421875 0.734375q0 0.34375 0.21875 0.5625q0.234375 0.21875 0.5625 0.359375q0.34375 0.125 0.96875 0.3125q0.796875 0.234375 1.296875 0.453125q0.5 0.203125 0.84375 0.640625q0.359375 0.421875 0.359375 1.109375q0 0.71875 -0.390625 1.265625q-0.375 0.546875 -1.046875 0.859375q-0.671875 0.296875 -1.53125 0.296875zm5.8594055 -9.546875q-0.40625 0 -0.671875 -0.265625q-0.25 -0.265625 -0.25 -0.671875q0 -0.421875 0.25 -0.671875q0.265625 -0.265625 0.671875 -0.265625q0.421875 0 0.671875 0.265625q0.25 0.25 0.25 0.671875q0 0.40625 -0.25 0.671875q-0.25 0.265625 -0.671875 0.265625zm0.65625 1.71875l0 7.65625l-1.296875 0l0 -7.65625l1.296875 0zm5.79126 7.828125q-1.0625 0 -1.875 -0.5q-0.796875 -0.515625 -1.234375 -1.421875q-0.421875 -0.90625 -0.421875 -2.046875q0 -1.15625 0.421875 -2.0625q0.4375 -0.921875 1.234375 -1.4375q0.8125 -0.53125 1.890625 -0.53125q0.765625 0 1.328125 0.171875q0.578125 0.15625 1.09375 0.578125l0 1.25l-0.0625 0q-0.515625 -0.4375 -1.09375 -0.625q-0.5625 -0.203125 -1.28125 -0.203125q-1.03125 0 -1.59375 0.8125q-0.5625 0.796875 -0.5625 2.0625q0 1.21875 0.5625 2.0q0.5625 0.78125 1.578125 0.78125q0.765625 0 1.359375 -0.234375q0.609375 -0.25 1.203125 -0.78125l0.046875 0l0 1.25q-0.53125 0.515625 -1.15625 0.734375q-0.625 0.203125 -1.4375 0.203125zm9.758148 -0.171875l-0.203125 -1.09375q-0.578125 0.625 -1.25 0.953125q-0.65625 0.3125 -1.5 0.3125q-1.03125 0 -1.6875 -0.59375q-0.640625 -0.59375 -0.640625 -1.578125q0 -1.265625 1.015625 -1.859375q1.03125 -0.609375 2.640625 -0.609375q0.59375 0 1.296875 0.078125l0 -0.53125q0 -0.796875 -0.4375 -1.265625q-0.421875 -0.484375 -1.109375 -0.484375q-0.828125 0 -1.5 0.21875q-0.65625 0.21875 -1.359375 0.6875l0 -1.234375q0.6875 -0.453125 1.40625 -0.640625q0.71875 -0.1875 1.640625 -0.1875q1.171875 0 1.90625 0.75q0.75 0.75 0.75 1.984375l0 3.390625l0.3125 1.703125l-1.28125 0zm-2.6875 -0.90625q0.703125 0 1.25 -0.296875q0.5625 -0.296875 1.109375 -0.84375l0 -1.4375l-1.34375 0q-2.21875 0 -2.21875 1.421875q0 0.53125 0.328125 0.84375q0.34375 0.3125 0.875 0.3125zm6.360031 -10.140625l1.296875 0l0 11.046875l-1.296875 0l0 -11.046875zm16.03003 3.21875q1.0 0 1.703125 0.53125q0.703125 0.53125 1.0625 1.4375q0.359375 0.90625 0.359375 2.046875q0 1.140625 -0.421875 2.046875q-0.40625 0.90625 -1.203125 1.421875q-0.78125 0.5 -1.84375 0.5q-0.546875 0 -1.015625 -0.125q-0.46875 -0.109375 -1.0 -0.328125l0 3.703125l-1.28125 0l0 -9.359375l-0.328125 -1.703125l1.296875 0l0.1875 0.984375q1.0 -1.15625 2.484375 -1.15625zm-0.484375 6.84375q1.0625 0 1.640625 -0.78125q0.578125 -0.796875 0.578125 -2.046875q0 -1.25 -0.453125 -2.03125q-0.4375 -0.796875 -1.390625 -0.796875q-0.671875 0 -1.21875 0.28125q-0.53125 0.28125 -1.03125 0.8125l0 4.265625q0.953125 0.296875 1.875 0.296875zm10.973785 0.984375l-0.203125 -1.09375q-0.578125 0.625 -1.25 0.953125q-0.65625 0.3125 -1.5 0.3125q-1.03125 0 -1.6875 -0.59375q-0.640625 -0.59375 -0.640625 -1.578125q0 -1.265625 1.015625 -1.859375q1.03125 -0.609375 2.640625 -0.609375q0.59375 0 1.296875 0.078125l0 -0.53125q0 -0.796875 -0.4375 -1.265625q-0.421875 -0.484375 -1.109375 -0.484375q-0.828125 0 -1.5 0.21875q-0.65625 0.21875 -1.359375 0.6875l0 -1.234375q0.6875 -0.453125 1.40625 -0.640625q0.71875 -0.1875 1.640625 -0.1875q1.171875 0 1.90625 0.75q0.75 0.75 0.75 1.984375l0 3.390625l0.3125 1.703125l-1.28125 0zm-2.6875 -0.90625q0.703125 0 1.25 -0.296875q0.5625 -0.296875 1.109375 -0.84375l0 -1.4375l-1.34375 0q-2.21875 0 -2.21875 1.421875q0 0.53125 0.328125 0.84375q0.34375 0.3125 0.875 0.3125zm13.016266 -6.765625l-0.328125 1.703125l0 5.46875q0 1.9375 -0.890625 3.0q-0.890625 1.078125 -2.65625 1.078125q-0.984375 0 -1.609375 -0.203125q-0.625 -0.1875 -1.296875 -0.75l0 -1.3125q0.71875 0.609375 1.34375 0.828125q0.625 0.234375 1.5625 0.234375q1.125 0 1.6875 -0.71875q0.578125 -0.703125 0.578125 -1.984375l0 -0.375q-0.484375 0.328125 -0.984375 0.46875q-0.484375 0.125 -1.15625 0.125q-1.65625 0 -2.5 -0.984375q-0.84375 -1.0 -0.84375 -2.8125q0 -1.859375 0.875 -2.890625q0.875 -1.03125 2.609375 -1.03125q0.625 0 1.09375 0.125q0.46875 0.125 1.125 0.421875l0.09375 -0.390625l1.296875 0zm-3.734375 6.375q0.640625 0 1.125 -0.15625q0.484375 -0.15625 1.0 -0.515625l0 -4.421875q-0.46875 -0.15625 -0.890625 -0.21875q-0.421875 -0.078125 -0.953125 -0.078125q-1.15625 0 -1.703125 0.734375q-0.546875 0.734375 -0.546875 2.046875q0 2.609375 1.96875 2.609375zm12.555664 -2.109375l-5.421875 0q0.109375 1.140625 0.75 1.8125q0.640625 0.65625 1.734375 0.65625q0.671875 0 1.28125 -0.265625q0.625 -0.28125 1.28125 -0.8125l0.046875 0l0 1.296875q-0.640625 0.46875 -1.28125 0.6875q-0.625 0.203125 -1.34375 0.203125q-1.171875 0 -2.03125 -0.5q-0.859375 -0.515625 -1.328125 -1.4375q-0.453125 -0.921875 -0.453125 -2.109375q0 -1.125 0.40625 -2.015625q0.421875 -0.90625 1.203125 -1.421875q0.78125 -0.515625 1.8125 -0.515625q1.0625 0 1.8125 0.53125q0.75 0.515625 1.140625 1.421875q0.390625 0.90625 0.390625 2.046875l0 0.421875zm-3.328125 -3.34375q-0.90625 0 -1.453125 0.65625q-0.53125 0.65625 -0.640625 1.703125l4.09375 0q-0.109375 -1.078125 -0.609375 -1.71875q-0.484375 -0.640625 -1.390625 -0.640625zm16.678802 -3.453125l0 0.984375l-4.484375 9.21875l-1.484375 0l0 -0.0625l4.546875 -8.9375l-5.671875 0l0 -1.203125l7.09375 0z" fill-rule="nonzero"/><path fill="#000000" d="m342.60297 318.26236q1.0 0 1.703125 0.53125q0.703125 0.53125 1.0625 1.4375q0.359375 0.90625 0.359375 2.046875q0 1.140625 -0.421875 2.046875q-0.40625 0.90625 -1.203125 1.421875q-0.78125 0.5 -1.84375 0.5q-0.546875 0 -1.015625 -0.125q-0.46875 -0.109375 -1.0 -0.328125l0 3.703125l-1.28125 0l0 -9.359375l-0.328125 -1.703125l1.296875 0l0.1875 0.984375q1.0 -1.15625 2.484375 -1.15625zm-0.484375 6.84375q1.0625 0 1.640625 -0.78125q0.578125 -0.796875 0.578125 -2.046875q0 -1.25 -0.453125 -2.03125q-0.4375 -0.796875 -1.390625 -0.796875q-0.671875 0 -1.21875 0.28125q-0.53125 0.28125 -1.03125 0.8125l0 4.265625q0.953125 0.296875 1.875 0.296875zm10.30191 -6.84375q1.078125 0 1.625 0.671875q0.5625 0.65625 0.5625 1.84375l0 5.3125l-1.28125 0l0 -5.125q0 -0.734375 -0.3125 -1.140625q-0.3125 -0.40625 -0.9375 -0.40625q-0.71875 0 -1.21875 0.234375q-0.484375 0.234375 -1.078125 0.765625l0 5.671875l-1.296875 0l0 -11.046875l1.296875 0l0 4.34375q0.640625 -0.578125 1.21875 -0.84375q0.578125 -0.28125 1.421875 -0.28125zm11.630035 0.171875l-4.390625 11.0625l-1.3125 0l1.3125 -3.3125l-3.03125 -7.75l1.328125 0l2.390625 6.28125l2.328125 -6.28125l1.375 0zm3.9106445 7.828125q-0.703125 0 -1.390625 -0.203125q-0.671875 -0.21875 -1.28125 -0.609375l0 -1.359375q1.34375 1.03125 2.640625 1.03125q0.765625 0 1.234375 -0.3125q0.46875 -0.3125 0.46875 -0.84375q0 -0.359375 -0.234375 -0.59375q-0.21875 -0.234375 -0.5625 -0.359375q-0.328125 -0.140625 -0.96875 -0.34375q-0.765625 -0.21875 -1.28125 -0.421875q-0.5 -0.21875 -0.859375 -0.625q-0.34375 -0.421875 -0.34375 -1.09375q0 -1.03125 0.765625 -1.640625q0.78125 -0.625 2.046875 -0.625q1.265625 0 2.28125 0.65625l0 1.3125q-0.5625 -0.4375 -1.109375 -0.625q-0.53125 -0.203125 -1.109375 -0.203125q-0.734375 0 -1.15625 0.265625q-0.421875 0.265625 -0.421875 0.734375q0 0.34375 0.21875 0.5625q0.234375 0.21875 0.5625 0.359375q0.34375 0.125 0.96875 0.3125q0.796875 0.234375 1.296875 0.453125q0.5 0.203125 0.84375 0.640625q0.359375 0.421875 0.359375 1.109375q0 0.71875 -0.390625 1.265625q-0.375 0.546875 -1.046875 0.859375q-0.671875 0.296875 -1.53125 0.296875zm5.8594055 -9.546875q-0.40625 0 -0.671875 -0.265625q-0.25 -0.265625 -0.25 -0.671875q0 -0.421875 0.25 -0.671875q0.265625 -0.265625 0.671875 -0.265625q0.421875 0 0.671875 0.265625q0.25 0.25 0.25 0.671875q0 0.40625 -0.25 0.671875q-0.25 0.265625 -0.671875 0.265625zm0.65625 1.71875l0 7.65625l-1.296875 0l0 -7.65625l1.296875 0zm5.79126 7.828125q-1.0625 0 -1.875 -0.5q-0.796875 -0.515625 -1.234375 -1.421875q-0.421875 -0.90625 -0.421875 -2.046875q0 -1.15625 0.421875 -2.0625q0.4375 -0.921875 1.234375 -1.4375q0.8125 -0.53125 1.890625 -0.53125q0.765625 0 1.328125 0.171875q0.578125 0.15625 1.09375 0.578125l0 1.25l-0.0625 0q-0.515625 -0.4375 -1.09375 -0.625q-0.5625 -0.203125 -1.28125 -0.203125q-1.03125 0 -1.59375 0.8125q-0.5625 0.796875 -0.5625 2.0625q0 1.21875 0.5625 2.0q0.5625 0.78125 1.578125 0.78125q0.765625 0 1.359375 -0.234375q0.609375 -0.25 1.203125 -0.78125l0.046875 0l0 1.25q-0.53125 0.515625 -1.15625 0.734375q-0.625 0.203125 -1.4375 0.203125zm9.758148 -0.171875l-0.203125 -1.09375q-0.578125 0.625 -1.25 0.953125q-0.65625 0.3125 -1.5 0.3125q-1.03125 0 -1.6875 -0.59375q-0.640625 -0.59375 -0.640625 -1.578125q0 -1.265625 1.015625 -1.859375q1.03125 -0.609375 2.640625 -0.609375q0.59375 0 1.296875 0.078125l0 -0.53125q0 -0.796875 -0.4375 -1.265625q-0.421875 -0.484375 -1.109375 -0.484375q-0.828125 0 -1.5 0.21875q-0.65625 0.21875 -1.359375 0.6875l0 -1.234375q0.6875 -0.453125 1.40625 -0.640625q0.71875 -0.1875 1.640625 -0.1875q1.171875 0 1.90625 0.75q0.75 0.75 0.75 1.984375l0 3.390625l0.3125 1.703125l-1.28125 0zm-2.6875 -0.90625q0.703125 0 1.25 -0.296875q0.5625 -0.296875 1.109375 -0.84375l0 -1.4375l-1.34375 0q-2.21875 0 -2.21875 1.421875q0 0.53125 0.328125 0.84375q0.34375 0.3125 0.875 0.3125zm6.3600464 -10.140625l1.296875 0l0 11.046875l-1.296875 0l0 -11.046875zm16.03003 3.21875q1.0 0 1.703125 0.53125q0.703125 0.53125 1.0625 1.4375q0.359375 0.90625 0.359375 2.046875q0 1.140625 -0.421875 2.046875q-0.40625 0.90625 -1.203125 1.421875q-0.78125 0.5 -1.84375 0.5q-0.546875 0 -1.015625 -0.125q-0.46875 -0.109375 -1.0 -0.328125l0 3.703125l-1.28125 0l0 -9.359375l-0.328125 -1.703125l1.296875 0l0.1875 0.984375q1.0 -1.15625 2.484375 -1.15625zm-0.484375 6.84375q1.0625 0 1.640625 -0.78125q0.578125 -0.796875 0.578125 -2.046875q0 -1.25 -0.453125 -2.03125q-0.4375 -0.796875 -1.390625 -0.796875q-0.671875 0 -1.21875 0.28125q-0.53125 0.28125 -1.03125 0.8125l0 4.265625q0.953125 0.296875 1.875 0.296875zm10.973785 0.984375l-0.203125 -1.09375q-0.578125 0.625 -1.25 0.953125q-0.65625 0.3125 -1.5 0.3125q-1.03125 0 -1.6875 -0.59375q-0.640625 -0.59375 -0.640625 -1.578125q0 -1.265625 1.015625 -1.859375q1.03125 -0.609375 2.640625 -0.609375q0.59375 0 1.296875 0.078125l0 -0.53125q0 -0.796875 -0.4375 -1.265625q-0.421875 -0.484375 -1.109375 -0.484375q-0.828125 0 -1.5 0.21875q-0.65625 0.21875 -1.359375 0.6875l0 -1.234375q0.6875 -0.453125 1.40625 -0.640625q0.71875 -0.1875 1.640625 -0.1875q1.171875 0 1.90625 0.75q0.75 0.75 0.75 1.984375l0 3.390625l0.3125 1.703125l-1.28125 0zm-2.6875 -0.90625q0.703125 0 1.25 -0.296875q0.5625 -0.296875 1.109375 -0.84375l0 -1.4375l-1.34375 0q-2.21875 0 -2.21875 1.421875q0 0.53125 0.328125 0.84375q0.34375 0.3125 0.875 0.3125zm13.016266 -6.765625l-0.328125 1.703125l0 5.46875q0 1.9375 -0.890625 3.0q-0.890625 1.078125 -2.65625 1.078125q-0.984375 0 -1.609375 -0.203125q-0.625 -0.1875 -1.296875 -0.75l0 -1.3125q0.71875 0.609375 1.34375 0.828125q0.625 0.234375 1.5625 0.234375q1.125 0 1.6875 -0.71875q0.578125 -0.703125 0.578125 -1.984375l0 -0.375q-0.484375 0.328125 -0.984375 0.46875q-0.484375 0.125 -1.15625 0.125q-1.65625 0 -2.5 -0.984375q-0.84375 -1.0 -0.84375 -2.8125q0 -1.859375 0.875 -2.890625q0.875 -1.03125 2.609375 -1.03125q0.625 0 1.09375 0.125q0.46875 0.125 1.125 0.421875l0.09375 -0.390625l1.296875 0zm-3.734375 6.375q0.640625 0 1.125 -0.15625q0.484375 -0.15625 1.0 -0.515625l0 -4.421875q-0.46875 -0.15625 -0.890625 -0.21875q-0.421875 -0.078125 -0.953125 -0.078125q-1.15625 0 -1.703125 0.734375q-0.546875 0.734375 -0.546875 2.046875q0 2.609375 1.96875 2.609375zm12.555664 -2.109375l-5.421875 0q0.109375 1.140625 0.75 1.8125q0.640625 0.65625 1.734375 0.65625q0.671875 0 1.28125 -0.265625q0.625 -0.28125 1.28125 -0.8125l0.046875 0l0 1.296875q-0.640625 0.46875 -1.28125 0.6875q-0.625 0.203125 -1.34375 0.203125q-1.171875 0 -2.03125 -0.5q-0.859375 -0.515625 -1.328125 -1.4375q-0.453125 -0.921875 -0.453125 -2.109375q0 -1.125 0.40625 -2.015625q0.421875 -0.90625 1.203125 -1.421875q0.78125 -0.515625 1.8125 -0.515625q1.0625 0 1.8125 0.53125q0.75 0.515625 1.140625 1.421875q0.390625 0.90625 0.390625 2.046875l0 0.421875zm-3.328125 -3.34375q-0.90625 0 -1.453125 0.65625q-0.53125 0.65625 -0.640625 1.703125l4.09375 0q-0.109375 -1.078125 -0.609375 -1.71875q-0.484375 -0.640625 -1.390625 -0.640625zm16.350677 5.53125l0 1.21875l-6.765625 0l0 -1.21875l3.015625 0l0 -7.328125l-2.046875 1.0625l-0.0625 0l-0.265625 -0.84375l0 -0.0625l2.703125 -1.8125l0.96875 0l0 8.984375l2.453125 0zm9.086914 0l0 1.21875l-6.765625 0l0 -1.21875l3.015625 0l0 -7.328125l-2.046875 1.0625l-0.0625 0l-0.265625 -0.84375l0 -0.0625l2.703125 -1.8125l0.96875 0l0 8.984375l2.453125 0z" fill-rule="nonzero"/><path fill="#000000" d="m497.56638 318.26236q1.0 0 1.703125 0.53125q0.703125 0.53125 1.0625 1.4375q0.359375 0.90625 0.359375 2.046875q0 1.140625 -0.421875 2.046875q-0.40625 0.90625 -1.203125 1.421875q-0.78125 0.5 -1.84375 0.5q-0.546875 0 -1.015625 -0.125q-0.46875 -0.109375 -1.0 -0.328125l0 3.703125l-1.28125 0l0 -9.359375l-0.328125 -1.703125l1.296875 0l0.1875 0.984375q1.0 -1.15625 2.484375 -1.15625zm-0.484375 6.84375q1.0625 0 1.640625 -0.78125q0.578125 -0.796875 0.578125 -2.046875q0 -1.25 -0.453125 -2.03125q-0.4375 -0.796875 -1.390625 -0.796875q-0.671875 0 -1.21875 0.28125q-0.53125 0.28125 -1.03125 0.8125l0 4.265625q0.953125 0.296875 1.875 0.296875zm10.30191 -6.84375q1.078125 0 1.625 0.671875q0.5625 0.65625 0.5625 1.84375l0 5.3125l-1.28125 0l0 -5.125q0 -0.734375 -0.3125 -1.140625q-0.3125 -0.40625 -0.9375 -0.40625q-0.71875 0 -1.21875 0.234375q-0.484375 0.234375 -1.078125 0.765625l0 5.671875l-1.296875 0l0 -11.046875l1.296875 0l0 4.34375q0.640625 -0.578125 1.21875 -0.84375q0.578125 -0.28125 1.421875 -0.28125zm11.630005 0.171875l-4.390625 11.0625l-1.3125 0l1.3125 -3.3125l-3.0312195 -7.75l1.3280945 0l2.390625 6.28125l2.328125 -6.28125l1.375 0zm3.9107056 7.828125q-0.703125 0 -1.390625 -0.203125q-0.671875 -0.21875 -1.28125 -0.609375l0 -1.359375q1.34375 1.03125 2.640625 1.03125q0.765625 0 1.234375 -0.3125q0.46875 -0.3125 0.46875 -0.84375q0 -0.359375 -0.234375 -0.59375q-0.21875 -0.234375 -0.5625 -0.359375q-0.328125 -0.140625 -0.96875 -0.34375q-0.765625 -0.21875 -1.28125 -0.421875q-0.5 -0.21875 -0.859375 -0.625q-0.34375 -0.421875 -0.34375 -1.09375q0 -1.03125 0.765625 -1.640625q0.78125 -0.625 2.046875 -0.625q1.265625 0 2.28125 0.65625l0 1.3125q-0.5625 -0.4375 -1.109375 -0.625q-0.53125 -0.203125 -1.109375 -0.203125q-0.734375 0 -1.15625 0.265625q-0.421875 0.265625 -0.421875 0.734375q0 0.34375 0.21875 0.5625q0.234375 0.21875 0.5625 0.359375q0.34375 0.125 0.96875 0.3125q0.796875 0.234375 1.296875 0.453125q0.5 0.203125 0.84375 0.640625q0.359375 0.421875 0.359375 1.109375q0 0.71875 -0.390625 1.265625q-0.375 0.546875 -1.046875 0.859375q-0.671875 0.296875 -1.53125 0.296875zm5.859375 -9.546875q-0.40625 0 -0.671875 -0.265625q-0.25 -0.265625 -0.25 -0.671875q0 -0.421875 0.25 -0.671875q0.265625 -0.265625 0.671875 -0.265625q0.421875 0 0.671875 0.265625q0.25 0.25 0.25 0.671875q0 0.40625 -0.25 0.671875q-0.25 0.265625 -0.671875 0.265625zm0.65625 1.71875l0 7.65625l-1.296875 0l0 -7.65625l1.296875 0zm5.79126 7.828125q-1.0625 0 -1.875 -0.5q-0.796875 -0.515625 -1.234375 -1.421875q-0.421875 -0.90625 -0.421875 -2.046875q0 -1.15625 0.421875 -2.0625q0.4375 -0.921875 1.234375 -1.4375q0.8125 -0.53125 1.890625 -0.53125q0.765625 0 1.328125 0.171875q0.578125 0.15625 1.09375 0.578125l0 1.25l-0.0625 0q-0.515625 -0.4375 -1.09375 -0.625q-0.5625 -0.203125 -1.28125 -0.203125q-1.03125 0 -1.59375 0.8125q-0.5625 0.796875 -0.5625 2.0625q0 1.21875 0.5625 2.0q0.5625 0.78125 1.578125 0.78125q0.765625 0 1.359375 -0.234375q0.609375 -0.25 1.203125 -0.78125l0.046875 0l0 1.25q-0.53125 0.515625 -1.15625 0.734375q-0.625 0.203125 -1.4375 0.203125zm9.758179 -0.171875l-0.203125 -1.09375q-0.578125 0.625 -1.25 0.953125q-0.65625 0.3125 -1.5 0.3125q-1.03125 0 -1.6875 -0.59375q-0.640625 -0.59375 -0.640625 -1.578125q0 -1.265625 1.015625 -1.859375q1.03125 -0.609375 2.640625 -0.609375q0.59375 0 1.296875 0.078125l0 -0.53125q0 -0.796875 -0.4375 -1.265625q-0.421875 -0.484375 -1.109375 -0.484375q-0.828125 0 -1.5 0.21875q-0.65625 0.21875 -1.359375 0.6875l0 -1.234375q0.6875 -0.453125 1.40625 -0.640625q0.71875 -0.1875 1.640625 -0.1875q1.171875 0 1.90625 0.75q0.75 0.75 0.75 1.984375l0 3.390625l0.3125 1.703125l-1.28125 0zm-2.6875 -0.90625q0.703125 0 1.25 -0.296875q0.5625 -0.296875 1.109375 -0.84375l0 -1.4375l-1.34375 0q-2.21875 0 -2.21875 1.421875q0 0.53125 0.328125 0.84375q0.34375 0.3125 0.875 0.3125zm6.3599854 -10.140625l1.296875 0l0 11.046875l-1.296875 0l0 -11.046875zm16.03003 3.21875q1.0 0 1.703125 0.53125q0.703125 0.53125 1.0625 1.4375q0.359375 0.90625 0.359375 2.046875q0 1.140625 -0.421875 2.046875q-0.40625 0.90625 -1.203125 1.421875q-0.78125 0.5 -1.84375 0.5q-0.546875 0 -1.015625 -0.125q-0.46875 -0.109375 -1.0 -0.328125l0 3.703125l-1.28125 0l0 -9.359375l-0.328125 -1.703125l1.296875 0l0.1875 0.984375q1.0 -1.15625 2.484375 -1.15625zm-0.484375 6.84375q1.0625 0 1.640625 -0.78125q0.578125 -0.796875 0.578125 -2.046875q0 -1.25 -0.453125 -2.03125q-0.4375 -0.796875 -1.390625 -0.796875q-0.671875 0 -1.21875 0.28125q-0.53125 0.28125 -1.03125 0.8125l0 4.265625q0.953125 0.296875 1.875 0.296875zm10.973816 0.984375l-0.203125 -1.09375q-0.578125 0.625 -1.25 0.953125q-0.65625 0.3125 -1.5 0.3125q-1.03125 0 -1.6875 -0.59375q-0.640625 -0.59375 -0.640625 -1.578125q0 -1.265625 1.015625 -1.859375q1.03125 -0.609375 2.640625 -0.609375q0.59375 0 1.296875 0.078125l0 -0.53125q0 -0.796875 -0.4375 -1.265625q-0.421875 -0.484375 -1.109375 -0.484375q-0.828125 0 -1.5 0.21875q-0.65625 0.21875 -1.359375 0.6875l0 -1.234375q0.6875 -0.453125 1.40625 -0.640625q0.71875 -0.1875 1.640625 -0.1875q1.171875 0 1.90625 0.75q0.75 0.75 0.75 1.984375l0 3.390625l0.3125 1.703125l-1.28125 0zm-2.6875 -0.90625q0.703125 0 1.25 -0.296875q0.5625 -0.296875 1.109375 -0.84375l0 -1.4375l-1.34375 0q-2.21875 0 -2.21875 1.421875q0 0.53125 0.328125 0.84375q0.34375 0.3125 0.875 0.3125zm13.016296 -6.765625l-0.328125 1.703125l0 5.46875q0 1.9375 -0.890625 3.0q-0.890625 1.078125 -2.65625 1.078125q-0.984375 0 -1.609375 -0.203125q-0.625 -0.1875 -1.296875 -0.75l0 -1.3125q0.71875 0.609375 1.34375 0.828125q0.625 0.234375 1.5625 0.234375q1.125 0 1.6875 -0.71875q0.578125 -0.703125 0.578125 -1.984375l0 -0.375q-0.484375 0.328125 -0.984375 0.46875q-0.484375 0.125 -1.15625 0.125q-1.65625 0 -2.5 -0.984375q-0.84375 -1.0 -0.84375 -2.8125q0 -1.859375 0.875 -2.890625q0.875 -1.03125 2.609375 -1.03125q0.625 0 1.09375 0.125q0.46875 0.125 1.125 0.421875l0.09375 -0.390625l1.296875 0zm-3.734375 6.375q0.640625 0 1.125 -0.15625q0.484375 -0.15625 1.0 -0.515625l0 -4.421875q-0.46875 -0.15625 -0.890625 -0.21875q-0.421875 -0.078125 -0.953125 -0.078125q-1.15625 0 -1.703125 0.734375q-0.546875 0.734375 -0.546875 2.046875q0 2.609375 1.96875 2.609375zm12.555664 -2.109375l-5.421875 0q0.109375 1.140625 0.75 1.8125q0.640625 0.65625 1.734375 0.65625q0.671875 0 1.28125 -0.265625q0.625 -0.28125 1.28125 -0.8125l0.046875 0l0 1.296875q-0.640625 0.46875 -1.28125 0.6875q-0.625 0.203125 -1.34375 0.203125q-1.171875 0 -2.03125 -0.5q-0.859375 -0.515625 -1.328125 -1.4375q-0.453125 -0.921875 -0.453125 -2.109375q0 -1.125 0.40625 -2.015625q0.421875 -0.90625 1.203125 -1.421875q0.78125 -0.515625 1.8125 -0.515625q1.0625 0 1.8125 0.53125q0.75 0.515625 1.140625 1.421875q0.390625 0.90625 0.390625 2.046875l0 0.421875zm-3.328125 -3.34375q-0.90625 0 -1.453125 0.65625q-0.53125 0.65625 -0.640625 1.703125l4.09375 0q-0.109375 -1.078125 -0.609375 -1.71875q-0.484375 -0.640625 -1.390625 -0.640625zm13.272522 0.46875q1.015625 0 1.78125 0.390625q0.78125 0.375 1.203125 1.078125q0.421875 0.703125 0.421875 1.625q0 0.984375 -0.46875 1.75q-0.453125 0.765625 -1.28125 1.1875q-0.8125 0.421875 -1.859375 0.421875q-1.8125 0 -2.8125 -1.3125q-1.0 -1.328125 -1.0 -3.703125q0 -1.703125 0.515625 -2.953125q0.515625 -1.25 1.484375 -1.90625q0.96875 -0.671875 2.265625 -0.671875q0.703125 0 1.390625 0.1875q0.6875 0.1875 1.28125 0.546875l0 1.28125l-0.0625 0q-0.59375 -0.421875 -1.25 -0.640625q-0.640625 -0.21875 -1.265625 -0.21875q-1.328125 0 -2.09375 1.015625q-0.765625 1.0 -0.84375 2.890625q0.59375 -0.5 1.21875 -0.734375q0.625 -0.234375 1.375 -0.234375zm-0.234375 5.296875q0.640625 0 1.15625 -0.265625q0.515625 -0.28125 0.8125 -0.78125q0.296875 -0.5 0.296875 -1.125q0 -0.890625 -0.59375 -1.421875q-0.59375 -0.53125 -1.5625 -0.53125q-1.203125 0 -2.46875 0.890625q0.09375 1.578125 0.6875 2.40625q0.609375 0.828125 1.671875 0.828125z" fill-rule="nonzero"/></g></svg>