<svg version="1.1" viewBox="0.0 0.0 600.0 371.0" fill="none" stroke="none" stroke-linecap="square" stroke-miterlimit="10" width="600" height="371" xmlns:xlink="http://www.w3.org/1999/xlink" xmlns="http://www.w3.org/2000/svg"><path fill="#ffffff" d="M0 0L600.0 0L600.0 371.0L0 371.0L0 0Z" fill-rule="nonzero"/><path stroke="#333333" stroke-width="1.0" stroke-linecap="butt" d="M48.5 330.5L581.5 330.5" fill-rule="nonzero"/><path stroke="#cccccc" stroke-width="1.0" stroke-linecap="butt" d="M48.5 275.5L581.5 275.5" fill-rule="nonzero"/><path stroke="#cccccc" stroke-width="1.0" stroke-linecap="butt" d="M48.5 220.5L581.5 220.5" fill-rule="nonzero"/><path stroke="#cccccc" stroke-width="1.0" stroke-linecap="butt" d="M48.5 165.5L581.5 165.5" fill-rule="nonzero"/><path stroke="#cccccc" stroke-width="1.0" stroke-linecap="butt" d="M48.5 110.5L581.5 110.5" fill-rule="nonzero"/><path stroke="#cccccc" stroke-width="1.0" stroke-linecap="butt" d="M48.5 54.5L581.5 54.5" fill-rule="nonzero"/><clipPath id="id_0"><path d="M48.55 54.916668L581.45 54.916668L581.45 330.45L48.55 330.45L48.55 54.916668Z" clip-rule="nonzero"/></clipPath><path stroke="#000000" stroke-width="2.0" stroke-linecap="butt" clip-path="url(#id_0)" d="M137.36667 220.23666L315.0 195.98973L492.63333 170.64067" fill-rule="nonzero"/><path stroke="#0000ff" stroke-width="2.0" stroke-linecap="butt" clip-path="url(#id_0)" d="M137.36667 220.23666L315.0 112.2276L492.63333 127.65746" fill-rule="nonzero"/><path stroke="#ff6f31" stroke-width="2.0" stroke-linecap="butt" clip-path="url(#id_0)" d="M137.36667 220.23666L315.0 106.716934L492.63333 144.18947" fill-rule="nonzero"/><path fill="#000000" clip-path="url(#id_0)" d="M143.36667 220.23666C143.36667 223.55037 140.68037 226.23666 137.36667 226.23666C134.05296 226.23666 131.36667 223.55037 131.36667 220.23666C131.36667 216.92296 134.05296 214.23666 137.36667 214.23666C140.68037 214.23666 143.36667 216.92296 143.36667 220.23666Z" fill-rule="nonzero"/><path fill="#000000" clip-path="url(#id_0)" d="M321.0 195.98973C321.0 199.30344 318.31372 201.98973 315.0 201.98973C311.68628 201.98973 309.0 199.30344 309.0 195.98973C309.0 192.67603 311.68628 189.98973 315.0 189.98973C318.31372 189.98973 321.0 192.67603 321.0 195.98973Z" fill-rule="nonzero"/><path fill="#000000" clip-path="url(#id_0)" d="M498.63333 170.64067C498.63333 173.95438 495.94705 176.64067 492.63333 176.64067C489.3196 176.64067 486.63333 173.95438 486.63333 170.64067C486.63333 167.32697 489.3196 164.64067 492.63333 164.64067C495.94705 164.64067 498.63333 167.32697 498.63333 170.64067Z" fill-rule="nonzero"/><path fill="#0000ff" clip-path="url(#id_0)" d="M143.36667 220.23666C143.36667 223.55037 140.68037 226.23666 137.36667 226.23666C134.05296 226.23666 131.36667 223.55037 131.36667 220.23666C131.36667 216.92296 134.05296 214.23666 137.36667 214.23666C140.68037 214.23666 143.36667 216.92296 143.36667 220.23666Z" fill-rule="nonzero"/><path fill="#0000ff" clip-path="url(#id_0)" d="M321.0 112.2276C321.0 115.541306 318.31372 118.2276 315.0 118.2276C311.68628 118.2276 309.0 115.541306 309.0 112.2276C309.0 108.913895 311.68628 106.2276 315.0 106.2276C318.31372 106.2276 321.0 108.913895 321.0 112.2276Z" fill-rule="nonzero"/><path fill="#0000ff" clip-path="url(#id_0)" d="M498.63333 127.65746C498.63333 130.97118 495.94705 133.65747 492.63333 133.65747C489.3196 133.65747 486.63333 130.97118 486.63333 127.65746C486.63333 124.34376 489.3196 121.65746 492.63333 121.65746C495.94705 121.65746 498.63333 124.34376 498.63333 127.65746Z" fill-rule="nonzero"/><path fill="#ff6f31" clip-path="url(#id_0)" d="M143.36667 220.23666C143.36667 223.55037 140.68037 226.23666 137.36667 226.23666C134.05296 226.23666 131.36667 223.55037 131.36667 220.23666C131.36667 216.92296 134.05296 214.23666 137.36667 214.23666C140.68037 214.23666 143.36667 216.92296 143.36667 220.23666Z" fill-rule="nonzero"/><path fill="#ff6f31" clip-path="url(#id_0)" d="M321.0 106.716934C321.0 110.03064 318.31372 112.716934 315.0 112.716934C311.68628 112.716934 309.0 110.03064 309.0 106.716934C309.0 103.40322 311.68628 100.716934 315.0 100.716934C318.31372 100.716934 321.0 103.40322 321.0 106.716934Z" fill-rule="nonzero"/><path fill="#ff6f31" clip-path="url(#id_0)" d="M498.63333 144.18947C498.63333 147.50317 495.94705 150.18947 492.63333 150.18947C489.3196 150.18947 486.63333 147.50317 486.63333 144.18947C486.63333 140.87576 489.3196 138.18947 492.63333 138.18947C495.94705 138.18947 498.63333 140.87576 498.63333 144.18947Z" fill-rule="nonzero"/><path fill="#000000" d="M29.39375 331.09064Q29.39375 333.4344 28.659374 334.54376Q27.925 335.6375 26.378124 335.6375Q24.8 335.6375 24.065624 334.52814Q23.346874 333.40314 23.346874 331.09064Q23.346874 328.7625 24.08125 327.65314Q24.815624 326.54376 26.378124 326.54376Q27.940624 326.54376 28.659374 327.6844Q29.39375 328.8094 29.39375 331.09064ZM27.846874 333.7469Q28.05 333.2625 28.128124 332.6219Q28.20625 331.98126 28.20625 331.09064Q28.20625 330.2 28.128124 329.54376Q28.05 328.8875 27.846874 328.41876Q27.64375 327.96564 27.284374 327.7469Q26.925 327.5125 26.378124 327.5125Q25.815624 327.5125 25.45625 327.7469Q25.096874 327.96564 24.89375 328.4344Q24.690624 328.8719 24.6125 329.575Q24.55 330.2625 24.55 331.09064Q24.55 332.0125 24.6125 332.6375Q24.675 333.2469 24.878124 333.73126Q25.08125 334.1844 25.425 334.4344Q25.784374 334.66876 26.378124 334.66876Q26.925 334.66876 27.284374 334.4344Q27.64375 334.2 27.846874 333.7469ZM33.440624 335.45L32.034374 335.45L32.034374 333.77814L33.440624 333.77814L33.440624 335.45ZM41.39375 331.09064Q41.39375 333.4344 40.659374 334.54376Q39.925 335.6375 38.378124 335.6375Q36.8 335.6375 36.065624 334.52814Q35.346874 333.40314 35.346874 331.09064Q35.346874 328.7625 36.08125 327.65314Q36.815624 326.54376 38.378124 326.54376Q39.940624 326.54376 40.659374 327.6844Q41.39375 328.8094 41.39375 331.09064ZM39.846874 333.7469Q40.05 333.2625 40.128124 332.6219Q40.20625 331.98126 40.20625 331.09064Q40.20625 330.2 40.128124 329.54376Q40.05 328.8875 39.846874 328.41876Q39.64375 327.96564 39.284374 327.7469Q38.925 327.5125 38.378124 327.5125Q37.815624 327.5125 37.45625 327.7469Q37.096874 327.96564 36.89375 328.4344Q36.690624 328.8719 36.6125 329.575Q36.55 330.2625 36.55 331.09064Q36.55 332.0125 36.6125 332.6375Q36.675 333.2469 36.878124 333.73126Q37.08125 334.1844 37.425 334.4344Q37.784374 334.66876 38.378124 334.66876Q38.925 334.66876 39.284374 334.4344Q39.64375 334.2 39.846874 333.7469Z" fill-rule="nonzero"/><path fill="#000000" d="M29.39375 275.98395Q29.39375 278.3277 28.659374 279.43707Q27.925 280.53082 26.378124 280.53082Q24.8 280.53082 24.065624 279.42145Q23.346874 278.29645 23.346874 275.98395Q23.346874 273.65582 24.08125 272.54645Q24.815624 271.43707 26.378124 271.43707Q27.940624 271.43707 28.659374 272.5777Q29.39375 273.7027 29.39375 275.98395ZM27.846874 278.6402Q28.05 278.15582 28.128124 277.5152Q28.20625 276.87457 28.20625 275.98395Q28.20625 275.09332 28.128124 274.43707Q28.05 273.78082 27.846874 273.31207Q27.64375 272.85895 27.284374 272.6402Q26.925 272.40582 26.378124 272.40582Q25.815624 272.40582 25.45625 272.6402Q25.096874 272.85895 24.89375 273.3277Q24.690624 273.7652 24.6125 274.46832Q24.55 275.15582 24.55 275.98395Q24.55 276.90582 24.6125 277.53082Q24.675 278.1402 24.878124 278.62457Q25.08125 279.0777 25.425 279.3277Q25.784374 279.56207 26.378124 279.56207Q26.925 279.56207 27.284374 279.3277Q27.64375 279.09332 27.846874 278.6402ZM33.440624 280.34332L32.034374 280.34332L32.034374 278.67145L33.440624 278.67145L33.440624 280.34332ZM41.33125 277.5777Q41.33125 278.18707 41.096874 278.74957Q40.878124 279.29645 40.503124 279.67145Q40.08125 280.0777 39.4875 280.31207Q38.909374 280.53082 38.14375 280.53082Q37.425 280.53082 36.753124 280.37457Q36.096874 280.21832 35.64375 280.0152L35.64375 278.78082L35.721874 278.78082Q36.20625 279.0777 36.846874 279.29645Q37.503124 279.5152 38.1125 279.5152Q38.534374 279.5152 38.925 279.40582Q39.315624 279.28082 39.6125 278.98395Q39.878124 278.73395 40.003124 278.3902Q40.14375 278.03082 40.14375 277.56207Q40.14375 277.10895 39.9875 276.81207Q39.83125 276.49957 39.55 276.31207Q39.253124 276.0777 38.815624 275.99957Q38.378124 275.90582 37.83125 275.90582Q37.315624 275.90582 36.83125 275.98395Q36.3625 276.04645 36.01875 276.10895L36.01875 271.62457L41.26875 271.62457L41.26875 272.6402L37.159374 272.6402L37.159374 274.96832Q37.409374 274.93707 37.659374 274.93707Q37.925 274.92145 38.128124 274.92145Q38.83125 274.92145 39.3625 275.04645Q39.89375 275.15582 40.346874 275.46832Q40.815624 275.78082 41.065624 276.29645Q41.33125 276.79645 41.33125 277.5777Z" fill-rule="nonzero"/><path fill="#000000" d="M28.909374 225.23666L24.175 225.23666L24.175 224.34604L26.003124 224.34604L26.003124 218.50229L24.175 218.50229L24.175 217.70541Q24.55 217.70541 24.971874 217.64291Q25.39375 217.58041 25.6125 217.45541Q25.878124 217.31479 26.034374 217.09604Q26.190624 216.86166 26.20625 216.48666L27.128124 216.48666L27.128124 224.34604L28.909374 224.34604L28.909374 225.23666ZM33.440624 225.23666L32.034374 225.23666L32.034374 223.56479L33.440624 223.56479L33.440624 225.23666ZM41.39375 220.87729Q41.39375 223.22104 40.659374 224.33041Q39.925 225.42416 38.378124 225.42416Q36.8 225.42416 36.065624 224.31479Q35.346874 223.18979 35.346874 220.87729Q35.346874 218.54916 36.08125 217.43979Q36.815624 216.33041 38.378124 216.33041Q39.940624 216.33041 40.659374 217.47104Q41.39375 218.59604 41.39375 220.87729ZM39.846874 223.53354Q40.05 223.04916 40.128124 222.40854Q40.20625 221.76791 40.20625 220.87729Q40.20625 219.98666 40.128124 219.33041Q40.05 218.67416 39.846874 218.20541Q39.64375 217.75229 39.284374 217.53354Q38.925 217.29916 38.378124 217.29916Q37.815624 217.29916 37.45625 217.53354Q37.096874 217.75229 36.89375 218.22104Q36.690624 218.65854 36.6125 219.36166Q36.55 220.04916 36.55 220.87729Q36.55 221.79916 36.6125 222.42416Q36.675 223.03354 36.878124 223.51791Q37.08125 223.97104 37.425 224.22104Q37.784374 224.45541 38.378124 224.45541Q38.925 224.45541 39.284374 224.22104Q39.64375 223.98666 39.846874 223.53354Z" fill-rule="nonzero"/><path fill="#000000" d="M28.909374 170.13L24.175 170.13L24.175 169.23938L26.003124 169.23938L26.003124 163.39563L24.175 163.39563L24.175 162.59875Q24.55 162.59875 24.971874 162.53625Q25.39375 162.47375 25.6125 162.34875Q25.878124 162.20813 26.034374 161.98938Q26.190624 161.755 26.20625 161.38L27.128124 161.38L27.128124 169.23938L28.909374 169.23938L28.909374 170.13ZM33.440624 170.13L32.034374 170.13L32.034374 168.45813L33.440624 168.45813L33.440624 170.13ZM41.33125 167.36438Q41.33125 167.97375 41.096874 168.53625Q40.878124 169.08313 40.503124 169.45813Q40.08125 169.86438 39.4875 170.09875Q38.909374 170.3175 38.14375 170.3175Q37.425 170.3175 36.753124 170.16125Q36.096874 170.005 35.64375 169.80188L35.64375 168.5675L35.721874 168.5675Q36.20625 168.86438 36.846874 169.08313Q37.503124 169.30188 38.1125 169.30188Q38.534374 169.30188 38.925 169.1925Q39.315624 169.0675 39.6125 168.77063Q39.878124 168.52063 40.003124 168.17688Q40.14375 167.8175 40.14375 167.34875Q40.14375 166.89563 39.9875 166.59875Q39.83125 166.28625 39.55 166.09875Q39.253124 165.86438 38.815624 165.78625Q38.378124 165.6925 37.83125 165.6925Q37.315624 165.6925 36.83125 165.77063Q36.3625 165.83313 36.01875 165.89563L36.01875 161.41125L41.26875 161.41125L41.26875 162.42688L37.159374 162.42688L37.159374 164.755Q37.409374 164.72375 37.659374 164.72375Q37.925 164.70813 38.128124 164.70813Q38.83125 164.70813 39.3625 164.83313Q39.89375 164.9425 40.346874 165.255Q40.815624 165.5675 41.065624 166.08313Q41.33125 166.58313 41.33125 167.36438Z" fill-rule="nonzero"/><path fill="#000000" d="M29.39375 115.02333L23.4875 115.02333L23.4875 113.80458Q24.1125 113.27333 24.721874 112.74208Q25.346874 112.21083 25.878124 111.695206Q27.003124 110.601456 27.409374 109.96083Q27.83125 109.320206 27.83125 108.570206Q27.83125 107.89833 27.378124 107.52333Q26.940624 107.132706 26.14375 107.132706Q25.596874 107.132706 24.971874 107.320206Q24.3625 107.507706 23.76875 107.89833L23.70625 107.89833L23.70625 106.663956Q24.128124 106.46083 24.815624 106.288956Q25.51875 106.11708 26.159374 106.11708Q27.503124 106.11708 28.26875 106.77333Q29.034374 107.413956 29.034374 108.52333Q29.034374 109.02333 28.909374 109.46083Q28.784374 109.882706 28.534374 110.257706Q28.3 110.632706 27.9875 110.99208Q27.690624 111.33583 27.253124 111.757706Q26.628124 112.36708 25.95625 112.945206Q25.284374 113.52333 24.70625 114.02333L29.39375 114.02333L29.39375 115.02333ZM33.440624 115.02333L32.034374 115.02333L32.034374 113.351456L33.440624 113.351456L33.440624 115.02333ZM41.39375 110.663956Q41.39375 113.007706 40.659374 114.11708Q39.925 115.21083 38.378124 115.21083Q36.8 115.21083 36.065624 114.101456Q35.346874 112.976456 35.346874 110.663956Q35.346874 108.33583 36.08125 107.226456Q36.815624 106.11708 38.378124 106.11708Q39.940624 106.11708 40.659374 107.257706Q41.39375 108.382706 41.39375 110.663956ZM39.846874 113.320206Q40.05 112.83583 40.128124 112.195206Q40.20625 111.55458 40.20625 110.663956Q40.20625 109.77333 40.128124 109.11708Q40.05 108.46083 39.846874 107.99208Q39.64375 107.538956 39.284374 107.320206Q38.925 107.08583 38.378124 107.08583Q37.815624 107.08583 37.45625 107.320206Q37.096874 107.538956 36.89375 108.007706Q36.690624 108.445206 36.6125 109.14833Q36.55 109.83583 36.55 110.663956Q36.55 111.58583 36.6125 112.21083Q36.675 112.820206 36.878124 113.30458Q37.08125 113.757706 37.425 114.007706Q37.784374 114.24208 38.378124 114.24208Q38.925 114.24208 39.284374 114.007706Q39.64375 113.77333 39.846874 113.320206Z" fill-rule="nonzero"/><path fill="#000000" d="M29.39375 59.916668L23.4875 59.916668L23.4875 58.697918Q24.1125 58.166668 24.721874 57.635418Q25.346874 57.104168 25.878124 56.588543Q27.003124 55.494793 27.409374 54.854168Q27.83125 54.213543 27.83125 53.463543Q27.83125 52.791668 27.378124 52.416668Q26.940624 52.026043 26.14375 52.026043Q25.596874 52.026043 24.971874 52.213543Q24.3625 52.401043 23.76875 52.791668L23.70625 52.791668L23.70625 51.557293Q24.128124 51.354168 24.815624 51.182293Q25.51875 51.010418 26.159374 51.010418Q27.503124 51.010418 28.26875 51.666668Q29.034374 52.307293 29.034374 53.416668Q29.034374 53.916668 28.909374 54.354168Q28.784374 54.776043 28.534374 55.151043Q28.3 55.526043 27.9875 55.885418Q27.690624 56.229168 27.253124 56.651043Q26.628124 57.260418 25.95625 57.838543Q25.284374 58.416668 24.70625 58.916668L29.39375 58.916668L29.39375 59.916668ZM33.440624 59.916668L32.034374 59.916668L32.034374 58.244793L33.440624 58.244793L33.440624 59.916668ZM41.33125 57.151043Q41.33125 57.760418 41.096874 58.322918Q40.878124 58.869793 40.503124 59.244793Q40.08125 59.651043 39.4875 59.885418Q38.909374 60.104168 38.14375 60.104168Q37.425 60.104168 36.753124 59.947918Q36.096874 59.791668 35.64375 59.588543L35.64375 58.354168L35.721874 58.354168Q36.20625 58.651043 36.846874 58.869793Q37.503124 59.088543 38.1125 59.088543Q38.534374 59.088543 38.925 58.979168Q39.315624 58.854168 39.6125 58.557293Q39.878124 58.307293 40.003124 57.963543Q40.14375 57.604168 40.14375 57.135418Q40.14375 56.682293 39.9875 56.385418Q39.83125 56.072918 39.55 55.885418Q39.253124 55.651043 38.815624 55.572918Q38.378124 55.479168 37.83125 55.479168Q37.315624 55.479168 36.83125 55.557293Q36.3625 55.619793 36.01875 55.682293L36.01875 51.197918L41.26875 51.197918L41.26875 52.213543L37.159374 52.213543L37.159374 54.541668Q37.409374 54.510418 37.659374 54.510418Q37.925 54.494793 38.128124 54.494793Q38.83125 54.494793 39.3625 54.619793Q39.89375 54.729168 40.346874 55.041668Q40.815624 55.354168 41.065624 55.869793Q41.33125 56.369793 41.33125 57.151043Z" fill-rule="nonzero"/><path fill="#000000" d="M110.13229 347.5594Q110.13229 348.46564 109.38229 349.04376Q108.64792 349.60626 107.36667 349.60626Q106.63229 349.60626 106.02292 349.4344Q105.42917 349.2625 105.00729 349.0594L105.00729 347.825L105.06979 347.825Q105.58542 348.21564 106.22604 348.45Q106.86667 348.66876 107.46042 348.66876Q108.17917 348.66876 108.58542 348.4344Q109.00729 348.2 109.00729 347.7Q109.00729 347.3094 108.77292 347.1219Q108.55417 346.91876 107.92917 346.77814Q107.69479 346.73126 107.30417 346.66876Q106.92917 346.59064 106.61667 346.4969Q105.75729 346.27814 105.39792 345.84064Q105.03854 345.3875 105.03854 344.7469Q105.03854 344.34064 105.21042 343.98126Q105.38229 343.6219 105.71042 343.34064Q106.03854 343.075 106.53854 342.91876Q107.05417 342.7469 107.67917 342.7469Q108.27292 342.7469 108.86667 342.8875Q109.47604 343.02814 109.86667 343.23126L109.86667 344.41876L109.80417 344.41876Q109.38229 344.10626 108.77292 343.90314Q108.17917 343.6844 107.60104 343.6844Q106.99167 343.6844 106.56979 343.91876Q106.16354 344.1375 106.16354 344.59064Q106.16354 344.9969 106.41354 345.2Q106.66354 345.41876 107.21042 345.54376Q107.52292 345.60626 107.89792 345.6844Q108.27292 345.7469 108.52292 345.8094Q109.28854 345.98126 109.71042 346.41876Q110.13229 346.84064 110.13229 347.5594ZM117.92917 346.29376L113.10104 346.29376Q113.10104 346.8875 113.28854 347.34064Q113.47604 347.79376 113.78854 348.075Q114.08542 348.35626 114.50729 348.4969Q114.92917 348.6375 115.42917 348.6375Q116.10104 348.6375 116.77292 348.3719Q117.46042 348.10626 117.74167 347.85626L117.80417 347.85626L117.80417 349.04376Q117.24167 349.27814 116.66354 349.45Q116.08542 349.60626 115.44479 349.60626Q113.81979 349.60626 112.89792 348.73126Q111.99167 347.84064 111.99167 346.21564Q111.99167 344.60626 112.86667 343.66876Q113.74167 342.71564 115.16354 342.71564Q116.49167 342.71564 117.21042 343.4969Q117.92917 344.2625 117.92917 345.7L117.92917 346.29376ZM116.85104 345.45Q116.85104 344.575 116.41354 344.10626Q115.99167 343.6375 115.11667 343.6375Q114.22604 343.6375 113.69479 344.15314Q113.17917 344.66876 113.10104 345.45L116.85104 345.45ZM125.75729 351.8719L124.66354 351.8719L124.66354 348.71564Q124.14792 349.15314 123.64792 349.3719Q123.14792 349.575 122.55417 349.575Q121.38229 349.575 120.69479 348.6844Q120.00729 347.77814 120.00729 346.2Q120.00729 345.35626 120.24167 344.71564Q120.49167 344.0594 120.88229 343.6219Q121.27292 343.1844 121.78854 342.95Q122.31979 342.71564 122.89792 342.71564Q123.42917 342.71564 123.83542 342.84064Q124.24167 342.95 124.66354 343.1844L124.72604 342.90314L125.75729 342.90314L125.75729 351.8719ZM124.66354 347.77814L124.66354 344.075Q124.19479 343.8719 123.83542 343.79376Q123.49167 343.71564 123.08542 343.71564Q122.13229 343.71564 121.63229 344.3719Q121.13229 345.0125 121.13229 346.1375Q121.13229 347.29376 121.53854 347.91876Q121.94479 348.52814 122.80417 348.52814Q123.28854 348.52814 123.75729 348.325Q124.24167 348.10626 124.66354 347.77814ZM133.8823 349.45L132.77292 349.45L132.77292 348.71564Q132.22604 349.16876 131.71042 349.40314Q131.1948 349.6375 130.58542 349.6375Q129.55417 349.6375 128.97604 349.0125Q128.39792 348.3719 128.39792 347.15314L128.39792 342.90314L129.5073 342.90314L129.5073 346.6375Q129.5073 347.1219 129.55417 347.48126Q129.60104 347.84064 129.7573 348.09064Q129.91354 348.34064 130.16354 348.46564Q130.41354 348.575 130.89792 348.575Q131.3198 348.575 131.8198 348.35626Q132.33542 348.1375 132.77292 347.79376L132.77292 342.90314L133.8823 342.90314L133.8823 349.45ZM141.92917 346.29376L137.10104 346.29376Q137.10104 346.8875 137.28854 347.34064Q137.47604 347.79376 137.78854 348.075Q138.08542 348.35626 138.5073 348.4969Q138.92917 348.6375 139.42917 348.6375Q140.10104 348.6375 140.77292 348.3719Q141.46042 348.10626 141.74167 347.85626L141.80417 347.85626L141.80417 349.04376Q141.24167 349.27814 140.66354 349.45Q140.08542 349.60626 139.4448 349.60626Q137.8198 349.60626 136.89792 348.73126Q135.99167 347.84064 135.99167 346.21564Q135.99167 344.60626 136.86667 343.66876Q137.74167 342.71564 139.16354 342.71564Q140.49167 342.71564 141.21042 343.4969Q141.92917 344.2625 141.92917 345.7L141.92917 346.29376ZM140.85104 345.45Q140.85104 344.575 140.41354 344.10626Q139.99167 343.6375 139.11667 343.6375Q138.22604 343.6375 137.6948 344.15314Q137.17917 344.66876 137.10104 345.45L140.85104 345.45ZM149.92917 349.45L148.8198 349.45L148.8198 345.71564Q148.8198 345.27814 148.7573 344.8875Q148.71042 344.48126 148.5698 344.2625Q148.42917 344.0125 148.14792 343.90314Q147.8823 343.77814 147.4448 343.77814Q146.99167 343.77814 146.49167 343.9969Q146.0073 344.21564 145.55417 344.5594L145.55417 349.45L144.4448 349.45L144.4448 342.90314L145.55417 342.90314L145.55417 343.6375Q146.0698 343.2 146.61667 342.96564Q147.16354 342.71564 147.7573 342.71564Q148.80417 342.71564 149.36667 343.35626Q149.92917 343.9969 149.92917 345.2L149.92917 349.45ZM155.85104 349.3875Q155.53854 349.48126 155.16354 349.52814Q154.80417 349.575 154.52292 349.575Q153.52292 349.575 152.99167 349.04376Q152.47604 348.4969 152.47604 347.3094L152.47604 343.825L151.72604 343.825L151.72604 342.90314L152.47604 342.90314L152.47604 341.02814L153.5698 341.02814L153.5698 342.90314L155.85104 342.90314L155.85104 343.825L153.5698 343.825L153.5698 346.8094Q153.5698 347.325 153.58542 347.6219Q153.61667 347.90314 153.7573 348.15314Q153.89792 348.3875 154.11667 348.4969Q154.35104 348.60626 154.80417 348.60626Q155.0698 348.60626 155.36667 348.52814Q155.66354 348.45 155.78854 348.40314L155.85104 348.40314L155.85104 349.3875ZM158.6323 341.8094L157.39792 341.8094L157.39792 340.66876L158.6323 340.66876L158.6323 341.8094ZM158.5698 349.45L157.46042 349.45L157.46042 342.90314L158.5698 342.90314L158.5698 349.45ZM165.53854 349.45L164.4448 349.45L164.4448 348.7469Q164.28854 348.85626 164.03854 349.04376Q163.80417 349.21564 163.5698 349.3094Q163.28854 349.45 162.92917 349.54376Q162.5698 349.6375 162.08542 349.6375Q161.21042 349.6375 160.58542 349.0594Q159.97604 348.46564 159.97604 347.54376Q159.97604 346.8094 160.28854 346.35626Q160.61667 345.8875 161.21042 345.6219Q161.80417 345.35626 162.6323 345.2625Q163.47604 345.16876 164.4448 345.1219L164.4448 344.95Q164.4448 344.575 164.30417 344.34064Q164.17917 344.09064 163.92917 343.95Q163.6948 343.8094 163.36667 343.7625Q163.03854 343.71564 162.67917 343.71564Q162.2573 343.71564 161.71042 343.84064Q161.17917 343.95 160.61667 344.16876L160.55417 344.16876L160.55417 343.04376Q160.8823 342.95 161.49167 342.85626Q162.10104 342.7469 162.6948 342.7469Q163.3823 342.7469 163.89792 342.8719Q164.41354 342.98126 164.78854 343.2469Q165.14792 343.5125 165.33542 343.95Q165.53854 344.3719 165.53854 345.0125L165.53854 349.45ZM164.4448 347.84064L164.4448 346.0125Q163.9448 346.04376 163.2573 346.10626Q162.5698 346.16876 162.17917 346.27814Q161.6948 346.40314 161.39792 346.7Q161.11667 346.98126 161.11667 347.48126Q161.11667 348.04376 161.4448 348.325Q161.78854 348.60626 162.49167 348.60626Q163.0698 348.60626 163.55417 348.3875Q164.03854 348.15314 164.4448 347.84064ZM169.5698 349.45L168.46042 349.45L168.46042 340.325L169.5698 340.325L169.5698 349.45Z" fill-rule="nonzero"/><path fill="#000000" d="M296.84375 346.09064Q296.84375 346.8875 296.60938 347.5594Q296.39062 348.21564 295.96875 348.66876Q295.57812 349.10626 295.04688 349.34064Q294.53125 349.575 293.95312 349.575Q293.4375 349.575 293.01562 349.46564Q292.60938 349.35626 292.1875 349.1219L292.1875 351.8719L291.07812 351.8719L291.07812 342.90314L292.1875 342.90314L292.1875 343.59064Q292.625 343.21564 293.17188 342.96564Q293.71875 342.71564 294.34375 342.71564Q295.53125 342.71564 296.1875 343.6219Q296.84375 344.5125 296.84375 346.09064ZM295.70312 346.1219Q295.70312 344.95 295.29688 344.3719Q294.90625 343.77814 294.0625 343.77814Q293.59375 343.77814 293.10938 343.98126Q292.625 344.1844 292.1875 344.5125L292.1875 348.23126Q292.65625 348.4344 292.98438 348.5125Q293.32812 348.59064 293.75 348.59064Q294.67188 348.59064 295.1875 347.96564Q295.70312 347.34064 295.70312 346.1219ZM302.48438 349.3875Q302.17188 349.48126 301.79688 349.52814Q301.4375 349.575 301.15625 349.575Q300.15625 349.575 299.625 349.04376Q299.10938 348.4969 299.10938 347.3094L299.10938 343.825L298.35938 343.825L298.35938 342.90314L299.10938 342.90314L299.10938 341.02814L300.20312 341.02814L300.20312 342.90314L302.48438 342.90314L302.48438 343.825L300.20312 343.825L300.20312 346.8094Q300.20312 347.325 300.21875 347.6219Q300.25 347.90314 300.39062 348.15314Q300.53125 348.3875 300.75 348.4969Q300.98438 348.60626 301.4375 348.60626Q301.70312 348.60626 302.0 348.52814Q302.29688 348.45 302.42188 348.40314L302.48438 348.40314L302.48438 349.3875ZM309.5625 349.45L308.45312 349.45L308.45312 345.71564Q308.45312 345.27814 308.39062 344.8875Q308.34375 344.48126 308.20312 344.2625Q308.0625 344.0125 307.78125 343.90314Q307.51562 343.77814 307.07812 343.77814Q306.625 343.77814 306.125 343.9969Q305.64062 344.21564 305.1875 344.5594L305.1875 349.45L304.07812 349.45L304.07812 340.325L305.1875 340.325L305.1875 343.6375Q305.70312 343.2 306.25 342.96564Q306.79688 342.71564 307.39062 342.71564Q308.4375 342.71564 309.0 343.35626Q309.5625 343.9969 309.5625 345.2L309.5625 349.45ZM316.17188 344.10626L316.10938 344.10626Q315.85938 344.04376 315.625 344.02814Q315.40625 343.9969 315.07812 343.9969Q314.57812 343.9969 314.09375 344.23126Q313.625 344.45 313.1875 344.8094L313.1875 349.45L312.07812 349.45L312.07812 342.90314L313.1875 342.90314L313.1875 343.8719Q313.84375 343.34064 314.34375 343.1219Q314.84375 342.90314 315.35938 342.90314Q315.65625 342.90314 315.78125 342.91876Q315.90625 342.9344 316.17188 342.98126L316.17188 344.10626ZM322.5625 346.29376L317.73438 346.29376Q317.73438 346.8875 317.92188 347.34064Q318.10938 347.79376 318.42188 348.075Q318.71875 348.35626 319.14062 348.4969Q319.5625 348.6375 320.0625 348.6375Q320.73438 348.6375 321.40625 348.3719Q322.09375 348.10626 322.375 347.85626L322.4375 347.85626L322.4375 349.04376Q321.875 349.27814 321.29688 349.45Q320.71875 349.60626 320.07812 349.60626Q318.45312 349.60626 317.53125 348.73126Q316.625 347.84064 316.625 346.21564Q316.625 344.60626 317.5 343.66876Q318.375 342.71564 319.79688 342.71564Q321.125 342.71564 321.84375 343.4969Q322.5625 344.2625 322.5625 345.7L322.5625 346.29376ZM321.48438 345.45Q321.48438 344.575 321.04688 344.10626Q320.625 343.6375 319.75 343.6375Q318.85938 343.6375 318.32812 344.15314Q317.8125 344.66876 317.73438 345.45L321.48438 345.45ZM330.17188 349.45L329.07812 349.45L329.07812 348.7469Q328.92188 348.85626 328.67188 349.04376Q328.4375 349.21564 328.20312 349.3094Q327.92188 349.45 327.5625 349.54376Q327.20312 349.6375 326.71875 349.6375Q325.84375 349.6375 325.21875 349.0594Q324.60938 348.46564 324.60938 347.54376Q324.60938 346.8094 324.92188 346.35626Q325.25 345.8875 325.84375 345.6219Q326.4375 345.35626 327.26562 345.2625Q328.10938 345.16876 329.07812 345.1219L329.07812 344.95Q329.07812 344.575 328.9375 344.34064Q328.8125 344.09064 328.5625 343.95Q328.32812 343.8094 328.0 343.7625Q327.67188 343.71564 327.3125 343.71564Q326.89062 343.71564 326.34375 343.84064Q325.8125 343.95 325.25 344.16876L325.1875 344.16876L325.1875 343.04376Q325.51562 342.95 326.125 342.85626Q326.73438 342.7469 327.32812 342.7469Q328.01562 342.7469 328.53125 342.8719Q329.04688 342.98126 329.42188 343.2469Q329.78125 343.5125 329.96875 343.95Q330.17188 344.3719 330.17188 345.0125L330.17188 349.45ZM329.07812 347.84064L329.07812 346.0125Q328.57812 346.04376 327.89062 346.10626Q327.20312 346.16876 326.8125 346.27814Q326.32812 346.40314 326.03125 346.7Q325.75 346.98126 325.75 347.48126Q325.75 348.04376 326.07812 348.325Q326.42188 348.60626 327.125 348.60626Q327.70312 348.60626 328.1875 348.3875Q328.67188 348.15314 329.07812 347.84064ZM338.39062 349.45L337.29688 349.45L337.29688 348.7625Q336.8125 349.16876 336.29688 349.40314Q335.78125 349.6375 335.1875 349.6375Q334.01562 349.6375 333.32812 348.73126Q332.64062 347.825 332.64062 346.23126Q332.64062 345.3875 332.875 344.7469Q333.10938 344.09064 333.51562 343.6375Q333.90625 343.1844 334.4375 342.95Q334.96875 342.71564 335.54688 342.71564Q336.0625 342.71564 336.45312 342.825Q336.85938 342.9344 337.29688 343.16876L337.29688 340.325L338.39062 340.325L338.39062 349.45ZM337.29688 347.84064L337.29688 344.075Q336.84375 343.8875 336.48438 343.8094Q336.14062 343.73126 335.73438 343.73126Q334.79688 343.73126 334.28125 344.3719Q333.76562 345.0125 333.76562 346.2Q333.76562 347.3719 334.15625 347.98126Q334.5625 348.575 335.45312 348.575Q335.92188 348.575 336.39062 348.3719Q336.875 348.16876 337.29688 347.84064Z" fill-rule="nonzero"/><path fill="#000000" d="M485.2427 341.40314L485.1802 341.40314Q484.9927 341.34064 484.69583 341.29376Q484.41458 341.23126 484.19583 341.23126Q483.47708 341.23126 483.14896 341.54376Q482.83646 341.85626 482.83646 342.6844L482.83646 342.90314L484.83646 342.90314L484.83646 343.825L482.88333 343.825L482.88333 349.45L481.77396 349.45L481.77396 343.825L481.03958 343.825L481.03958 342.90314L481.77396 342.90314L481.77396 342.6844Q481.77396 341.52814 482.35208 340.90314Q482.9302 340.27814 484.03958 340.27814Q484.39896 340.27814 484.69583 340.3094Q484.9927 340.34064 485.2427 340.3875L485.2427 341.40314ZM491.28958 346.1844Q491.28958 347.77814 490.46146 348.71564Q489.64896 349.6375 488.27396 349.6375Q486.88333 349.6375 486.07083 348.71564Q485.25833 347.77814 485.25833 346.1844Q485.25833 344.575 486.07083 343.65314Q486.88333 342.71564 488.27396 342.71564Q489.64896 342.71564 490.46146 343.65314Q491.28958 344.575 491.28958 346.1844ZM490.16458 346.1844Q490.16458 344.90314 489.66458 344.29376Q489.16458 343.66876 488.27396 343.66876Q487.38333 343.66876 486.88333 344.29376Q486.39896 344.90314 486.39896 346.1844Q486.39896 347.40314 486.88333 348.04376Q487.38333 348.6844 488.27396 348.6844Q489.16458 348.6844 489.66458 348.0594Q490.16458 347.41876 490.16458 346.1844ZM497.8052 344.10626L497.7427 344.10626Q497.4927 344.04376 497.25833 344.02814Q497.03958 343.9969 496.71146 343.9969Q496.21146 343.9969 495.72708 344.23126Q495.25833 344.45 494.82083 344.8094L494.82083 349.45L493.71146 349.45L493.71146 342.90314L494.82083 342.90314L494.82083 343.8719Q495.47708 343.34064 495.97708 343.1219Q496.47708 342.90314 496.9927 342.90314Q497.28958 342.90314 497.41458 342.91876Q497.53958 342.9344 497.8052 342.98126L497.8052 344.10626ZM504.66458 349.45L503.21146 349.45L500.58646 346.59064L499.8677 347.2625L499.8677 349.45L498.75833 349.45L498.75833 340.325L499.8677 340.325L499.8677 346.1844L503.0552 342.90314L504.4302 342.90314L501.39896 345.9344L504.66458 349.45Z" fill-rule="nonzero"/><path fill="#000000" d="M198.5 26.55C198.5 29.863708 195.8137 32.55 192.5 32.55C189.1863 32.55 186.5 29.863708 186.5 26.55C186.5 23.236292 189.1863 20.55 192.5 20.55C195.8137 20.55 198.5 23.236292 198.5 26.55Z" fill-rule="nonzero"/><path fill="#1a1a1a" d="M213.34375 28.190624Q213.34375 28.9875 213.10938 29.659374Q212.89062 30.315624 212.46875 30.76875Q212.07812 31.20625 211.54688 31.440624Q211.03125 31.675 210.45312 31.675Q209.9375 31.675 209.51562 31.565624Q209.10938 31.45625 208.6875 31.221874L208.6875 33.971874L207.57812 33.971874L207.57812 25.003124L208.6875 25.003124L208.6875 25.690624Q209.125 25.315624 209.67188 25.065624Q210.21875 24.815624 210.84375 24.815624Q212.03125 24.815624 212.6875 25.721874Q213.34375 26.6125 213.34375 28.190624ZM212.20312 28.221874Q212.20312 27.05 211.79688 26.471874Q211.40625 25.878124 210.5625 25.878124Q210.09375 25.878124 209.60938 26.08125Q209.125 26.284374 208.6875 26.6125L208.6875 30.33125Q209.15625 30.534374 209.48438 30.6125Q209.82812 30.690624 210.25 30.690624Q211.17188 30.690624 211.6875 30.065624Q212.20312 29.440624 212.20312 28.221874ZM219.67188 26.20625L219.60938 26.20625Q219.35938 26.14375 219.125 26.128124Q218.90625 26.096874 218.57812 26.096874Q218.07812 26.096874 217.59375 26.33125Q217.125 26.55 216.6875 26.909374L216.6875 31.55L215.57812 31.55L215.57812 25.003124L216.6875 25.003124L216.6875 25.971874Q217.34375 25.440624 217.84375 25.221874Q218.34375 25.003124 218.85938 25.003124Q219.15625 25.003124 219.28125 25.01875Q219.40625 25.034374 219.67188 25.08125L219.67188 26.20625ZM225.85938 31.55L221.125 31.55L221.125 30.659374L222.95312 30.659374L222.95312 24.815624L221.125 24.815624L221.125 24.01875Q221.5 24.01875 221.92188 23.95625Q222.34375 23.89375 222.5625 23.76875Q222.82812 23.628124 222.98438 23.409374Q223.14062 23.175 223.15625 22.8L224.07812 22.8L224.07812 30.659374L225.85938 30.659374L225.85938 31.55ZM234.34375 27.190624Q234.34375 29.534374 233.60938 30.64375Q232.875 31.7375 231.32812 31.7375Q229.75 31.7375 229.01562 30.628124Q228.29688 29.503124 228.29688 27.190624Q228.29688 24.8625 229.03125 23.753124Q229.76562 22.64375 231.32812 22.64375Q232.89062 22.64375 233.60938 23.784374Q234.34375 24.909374 234.34375 27.190624ZM232.79688 29.846874Q233.0 29.3625 233.07812 28.721874Q233.15625 28.08125 233.15625 27.190624Q233.15625 26.3 233.07812 25.64375Q233.0 24.9875 232.79688 24.51875Q232.59375 24.065624 232.23438 23.846874Q231.875 23.6125 231.32812 23.6125Q230.76562 23.6125 230.40625 23.846874Q230.04688 24.065624 229.84375 24.534374Q229.64062 24.971874 229.5625 25.675Q229.5 26.3625 229.5 27.190624Q229.5 28.1125 229.5625 28.7375Q229.625 29.346874 229.82812 29.83125Q230.03125 30.284374 230.375 30.534374Q230.73438 30.76875 231.32812 30.76875Q231.875 30.76875 232.23438 30.534374Q232.59375 30.3 232.79688 29.846874ZM242.34375 27.190624Q242.34375 29.534374 241.60938 30.64375Q240.875 31.7375 239.32812 31.7375Q237.75 31.7375 237.01562 30.628124Q236.29688 29.503124 236.29688 27.190624Q236.29688 24.8625 237.03125 23.753124Q237.76562 22.64375 239.32812 22.64375Q240.89062 22.64375 241.60938 23.784374Q242.34375 24.909374 242.34375 27.190624ZM240.79688 29.846874Q241.0 29.3625 241.07812 28.721874Q241.15625 28.08125 241.15625 27.190624Q241.15625 26.3 241.07812 25.64375Q241.0 24.9875 240.79688 24.51875Q240.59375 24.065624 240.23438 23.846874Q239.875 23.6125 239.32812 23.6125Q238.76562 23.6125 238.40625 23.846874Q238.04688 24.065624 237.84375 24.534374Q237.64062 24.971874 237.5625 25.675Q237.5 26.3625 237.5 27.190624Q237.5 28.1125 237.5625 28.7375Q237.625 29.346874 237.82812 29.83125Q238.03125 30.284374 238.375 30.534374Q238.73438 30.76875 239.32812 30.76875Q239.875 30.76875 240.23438 30.534374Q240.59375 30.3 240.79688 29.846874ZM250.34375 31.55L244.4375 31.55L244.4375 30.33125Q245.0625 29.8 245.67188 29.26875Q246.29688 28.7375 246.82812 28.221874Q247.95312 27.128124 248.35938 26.4875Q248.78125 25.846874 248.78125 25.096874Q248.78125 24.425 248.32812 24.05Q247.89062 23.659374 247.09375 23.659374Q246.54688 23.659374 245.92188 23.846874Q245.3125 24.034374 244.71875 24.425L244.65625 24.425L244.65625 23.190624Q245.07812 22.9875 245.76562 22.815624Q246.46875 22.64375 247.10938 22.64375Q248.45312 22.64375 249.21875 23.3Q249.98438 23.940624 249.98438 25.05Q249.98438 25.55 249.85938 25.9875Q249.73438 26.409374 249.48438 26.784374Q249.25 27.159374 248.9375 27.51875Q248.64062 27.8625 248.20312 28.284374Q247.57812 28.89375 246.90625 29.471874Q246.23438 30.05 245.65625 30.55L250.34375 30.55L250.34375 31.55Z" fill-rule="nonzero"/><path fill="#0000ff" d="M279.5 26.55C279.5 29.863708 276.81372 32.55 273.5 32.55C270.18628 32.55 267.5 29.863708 267.5 26.55C267.5 23.236292 270.18628 20.55 273.5 20.55C276.81372 20.55 279.5 23.236292 279.5 26.55Z" fill-rule="nonzero"/><path fill="#1a1a1a" d="M292.10938 23.503124L292.04688 23.503124Q291.85938 23.440624 291.5625 23.39375Q291.28125 23.33125 291.0625 23.33125Q290.34375 23.33125 290.01562 23.64375Q289.70312 23.95625 289.70312 24.784374L289.70312 25.003124L291.70312 25.003124L291.70312 25.925L289.75 25.925L289.75 31.55L288.64062 31.55L288.64062 25.925L287.90625 25.925L287.90625 25.003124L288.64062 25.003124L288.64062 24.784374Q288.64062 23.628124 289.21875 23.003124Q289.79688 22.378124 290.90625 22.378124Q291.26562 22.378124 291.5625 22.409374Q291.85938 22.440624 292.10938 22.4875L292.10938 23.503124ZM293.70312 31.55L292.59375 31.55L292.59375 22.425L293.70312 22.425L293.70312 31.55ZM300.57812 27.346874Q300.85938 27.596874 301.04688 27.9875Q301.23438 28.3625 301.23438 28.971874Q301.23438 29.565624 301.01562 30.065624Q300.79688 30.565624 300.40625 30.925Q299.96875 31.33125 299.35938 31.534374Q298.76562 31.7375 298.0625 31.7375Q297.34375 31.7375 296.64062 31.55Q295.9375 31.378124 295.48438 31.175L295.48438 29.95625L295.5625 29.95625Q296.0625 30.284374 296.73438 30.503124Q297.40625 30.721874 298.04688 30.721874Q298.40625 30.721874 298.8125 30.596874Q299.23438 30.471874 299.5 30.2375Q299.76562 29.971874 299.89062 29.659374Q300.03125 29.346874 300.03125 28.878124Q300.03125 28.409374 299.875 28.1125Q299.73438 27.8 299.46875 27.6125Q299.20312 27.440624 298.82812 27.378124Q298.45312 27.3 298.01562 27.3L297.5 27.3L297.5 26.33125L297.90625 26.33125Q298.79688 26.33125 299.32812 25.95625Q299.85938 25.58125 299.85938 24.8625Q299.85938 24.55 299.71875 24.315624Q299.59375 24.08125 299.34375 23.925Q299.09375 23.76875 298.79688 23.721874Q298.51562 23.659374 298.15625 23.659374Q297.59375 23.659374 296.96875 23.8625Q296.34375 24.05 295.79688 24.425L295.73438 24.425L295.73438 23.190624Q296.14062 22.9875 296.82812 22.815624Q297.53125 22.64375 298.1875 22.64375Q298.82812 22.64375 299.3125 22.76875Q299.79688 22.878124 300.1875 23.128124Q300.60938 23.409374 300.82812 23.815624Q301.04688 24.20625 301.04688 24.753124Q301.04688 25.471874 300.53125 26.01875Q300.01562 26.55 299.32812 26.690624L299.32812 26.784374Q299.60938 26.83125 299.96875 26.9875Q300.32812 27.128124 300.57812 27.346874ZM309.375 24.128124L305.42188 31.55L304.17188 31.55L308.375 23.846874L303.40625 23.846874L303.40625 22.83125L309.375 22.83125L309.375 24.128124ZM317.34375 26.659374Q317.34375 27.8 317.07812 28.7375Q316.8125 29.675 316.29688 30.33125Q315.75 30.9875 314.95312 31.3625Q314.15625 31.721874 313.0625 31.721874Q312.76562 31.721874 312.48438 31.690624Q312.21875 31.659374 312.01562 31.58125L312.01562 30.471874L312.07812 30.471874Q312.23438 30.55 312.54688 30.628124Q312.85938 30.70625 313.25 30.70625Q314.53125 30.70625 315.26562 29.940624Q316.01562 29.159374 316.125 27.8Q315.57812 28.128124 315.09375 28.26875Q314.625 28.409374 314.04688 28.409374Q313.51562 28.409374 313.07812 28.3Q312.64062 28.190624 312.20312 27.89375Q311.6875 27.534374 311.42188 26.9875Q311.15625 26.425 311.15625 25.659374Q311.15625 24.33125 312.03125 23.4875Q312.92188 22.64375 314.1875 22.64375Q314.8125 22.64375 315.34375 22.846874Q315.89062 23.034374 316.29688 23.440624Q316.79688 23.925 317.0625 24.690624Q317.34375 25.45625 317.34375 26.659374ZM316.15625 26.409374Q316.15625 25.503124 315.96875 24.95625Q315.78125 24.39375 315.45312 24.096874Q315.17188 23.83125 314.85938 23.721874Q314.54688 23.596874 314.17188 23.596874Q313.32812 23.596874 312.84375 24.128124Q312.35938 24.659374 312.35938 25.6125Q312.35938 26.175 312.51562 26.534374Q312.67188 26.878124 313.04688 27.14375Q313.3125 27.315624 313.625 27.378124Q313.9375 27.440624 314.32812 27.440624Q314.78125 27.440624 315.25 27.315624Q315.71875 27.190624 316.125 26.95625Q316.14062 26.83125 316.14062 26.721874Q316.15625 26.596874 316.15625 26.409374ZM325.28125 28.784374Q325.28125 29.39375 325.04688 29.95625Q324.82812 30.503124 324.45312 30.878124Q324.03125 31.284374 323.4375 31.51875Q322.85938 31.7375 322.09375 31.7375Q321.375 31.7375 320.70312 31.58125Q320.04688 31.425 319.59375 31.221874L319.59375 29.9875L319.67188 29.9875Q320.15625 30.284374 320.79688 30.503124Q321.45312 30.721874 322.0625 30.721874Q322.48438 30.721874 322.875 30.6125Q323.26562 30.4875 323.5625 30.190624Q323.82812 29.940624 323.95312 29.596874Q324.09375 29.2375 324.09375 28.76875Q324.09375 28.315624 323.9375 28.01875Q323.78125 27.70625 323.5 27.51875Q323.20312 27.284374 322.76562 27.20625Q322.32812 27.1125 321.78125 27.1125Q321.26562 27.1125 320.78125 27.190624Q320.3125 27.253124 319.96875 27.315624L319.96875 22.83125L325.21875 22.83125L325.21875 23.846874L321.10938 23.846874L321.10938 26.175Q321.35938 26.14375 321.60938 26.14375Q321.875 26.128124 322.07812 26.128124Q322.78125 26.128124 323.3125 26.253124Q323.84375 26.3625 324.29688 26.675Q324.76562 26.9875 325.01562 27.503124Q325.28125 28.003124 325.28125 28.784374Z" fill-rule="nonzero"/><path fill="#ff6f31" d="M354.5 26.55C354.5 29.863708 351.81372 32.55 348.5 32.55C345.18628 32.55 342.5 29.863708 342.5 26.55C342.5 23.236292 345.18628 20.55 348.5 20.55C351.81372 20.55 354.5 23.236292 354.5 26.55Z" fill-rule="nonzero"/><path fill="#1a1a1a" d="M369.34375 28.190624Q369.34375 28.9875 369.10938 29.659374Q368.89062 30.315624 368.46875 30.76875Q368.07812 31.20625 367.54688 31.440624Q367.03125 31.675 366.45312 31.675Q365.9375 31.675 365.51562 31.565624Q365.10938 31.45625 364.6875 31.221874L364.6875 33.971874L363.57812 33.971874L363.57812 25.003124L364.6875 25.003124L364.6875 25.690624Q365.125 25.315624 365.67188 25.065624Q366.21875 24.815624 366.84375 24.815624Q368.03125 24.815624 368.6875 25.721874Q369.34375 26.6125 369.34375 28.190624ZM368.20312 28.221874Q368.20312 27.05 367.79688 26.471874Q367.40625 25.878124 366.5625 25.878124Q366.09375 25.878124 365.60938 26.08125Q365.125 26.284374 364.6875 26.6125L364.6875 30.33125Q365.15625 30.534374 365.48438 30.6125Q365.82812 30.690624 366.25 30.690624Q367.17188 30.690624 367.6875 30.065624Q368.20312 29.440624 368.20312 28.221874ZM372.70312 31.55L371.59375 31.55L371.59375 22.425L372.70312 22.425L372.70312 31.55ZM379.67188 31.55L378.57812 31.55L378.57812 30.846874Q378.42188 30.95625 378.17188 31.14375Q377.9375 31.315624 377.70312 31.409374Q377.42188 31.55 377.0625 31.64375Q376.70312 31.7375 376.21875 31.7375Q375.34375 31.7375 374.71875 31.159374Q374.10938 30.565624 374.10938 29.64375Q374.10938 28.909374 374.42188 28.45625Q374.75 27.9875 375.34375 27.721874Q375.9375 27.45625 376.76562 27.3625Q377.60938 27.26875 378.57812 27.221874L378.57812 27.05Q378.57812 26.675 378.4375 26.440624Q378.3125 26.190624 378.0625 26.05Q377.82812 25.909374 377.5 25.8625Q377.17188 25.815624 376.8125 25.815624Q376.39062 25.815624 375.84375 25.940624Q375.3125 26.05 374.75 26.26875L374.6875 26.26875L374.6875 25.14375Q375.01562 25.05 375.625 24.95625Q376.23438 24.846874 376.82812 24.846874Q377.51562 24.846874 378.03125 24.971874Q378.54688 25.08125 378.92188 25.346874Q379.28125 25.6125 379.46875 26.05Q379.67188 26.471874 379.67188 27.1125L379.67188 31.55ZM378.57812 29.940624L378.57812 28.1125Q378.07812 28.14375 377.39062 28.20625Q376.70312 28.26875 376.3125 28.378124Q375.82812 28.503124 375.53125 28.8Q375.25 29.08125 375.25 29.58125Q375.25 30.14375 375.57812 30.425Q375.92188 30.70625 376.625 30.70625Q377.20312 30.70625 377.6875 30.4875Q378.17188 30.253124 378.57812 29.940624ZM388.375 24.128124L384.42188 31.55L383.17188 31.55L387.375 23.846874L382.40625 23.846874L382.40625 22.83125L388.375 22.83125L388.375 24.128124ZM395.57812 27.346874Q395.85938 27.596874 396.04688 27.9875Q396.23438 28.3625 396.23438 28.971874Q396.23438 29.565624 396.01562 30.065624Q395.79688 30.565624 395.40625 30.925Q394.96875 31.33125 394.35938 31.534374Q393.76562 31.7375 393.0625 31.7375Q392.34375 31.7375 391.64062 31.55Q390.9375 31.378124 390.48438 31.175L390.48438 29.95625L390.5625 29.95625Q391.0625 30.284374 391.73438 30.503124Q392.40625 30.721874 393.04688 30.721874Q393.40625 30.721874 393.8125 30.596874Q394.23438 30.471874 394.5 30.2375Q394.76562 29.971874 394.89062 29.659374Q395.03125 29.346874 395.03125 28.878124Q395.03125 28.409374 394.875 28.1125Q394.73438 27.8 394.46875 27.6125Q394.20312 27.440624 393.82812 27.378124Q393.45312 27.3 393.01562 27.3L392.5 27.3L392.5 26.33125L392.90625 26.33125Q393.79688 26.33125 394.32812 25.95625Q394.85938 25.58125 394.85938 24.8625Q394.85938 24.55 394.71875 24.315624Q394.59375 24.08125 394.34375 23.925Q394.09375 23.76875 393.79688 23.721874Q393.51562 23.659374 393.15625 23.659374Q392.59375 23.659374 391.96875 23.8625Q391.34375 24.05 390.79688 24.425L390.73438 24.425L390.73438 23.190624Q391.14062 22.9875 391.82812 22.815624Q392.53125 22.64375 393.1875 22.64375Q393.82812 22.64375 394.3125 22.76875Q394.79688 22.878124 395.1875 23.128124Q395.60938 23.409374 395.82812 23.815624Q396.04688 24.20625 396.04688 24.753124Q396.04688 25.471874 395.53125 26.01875Q395.01562 26.55 394.32812 26.690624L394.32812 26.784374Q394.60938 26.83125 394.96875 26.9875Q395.32812 27.128124 395.57812 27.346874ZM404.34375 26.659374Q404.34375 27.8 404.07812 28.7375Q403.8125 29.675 403.29688 30.33125Q402.75 30.9875 401.95312 31.3625Q401.15625 31.721874 400.0625 31.721874Q399.76562 31.721874 399.48438 31.690624Q399.21875 31.659374 399.01562 31.58125L399.01562 30.471874L399.07812 30.471874Q399.23438 30.55 399.54688 30.628124Q399.85938 30.70625 400.25 30.70625Q401.53125 30.70625 402.26562 29.940624Q403.01562 29.159374 403.125 27.8Q402.57812 28.128124 402.09375 28.26875Q401.625 28.409374 401.04688 28.409374Q400.51562 28.409374 400.07812 28.3Q399.64062 28.190624 399.20312 27.89375Q398.6875 27.534374 398.42188 26.9875Q398.15625 26.425 398.15625 25.659374Q398.15625 24.33125 399.03125 23.4875Q399.92188 22.64375 401.1875 22.64375Q401.8125 22.64375 402.34375 22.846874Q402.89062 23.034374 403.29688 23.440624Q403.79688 23.925 404.0625 24.690624Q404.34375 25.45625 404.34375 26.659374ZM403.15625 26.409374Q403.15625 25.503124 402.96875 24.95625Q402.78125 24.39375 402.45312 24.096874Q402.17188 23.83125 401.85938 23.721874Q401.54688 23.596874 401.17188 23.596874Q400.32812 23.596874 399.84375 24.128124Q399.35938 24.659374 399.35938 25.6125Q399.35938 26.175 399.51562 26.534374Q399.67188 26.878124 400.04688 27.14375Q400.3125 27.315624 400.625 27.378124Q400.9375 27.440624 401.32812 27.440624Q401.78125 27.440624 402.25 27.315624Q402.71875 27.190624 403.125 26.95625Q403.14062 26.83125 403.14062 26.721874Q403.15625 26.596874 403.15625 26.409374ZM412.375 24.128124L408.42188 31.55L407.17188 31.55L411.375 23.846874L406.40625 23.846874L406.40625 22.83125L412.375 22.83125L412.375 24.128124Z" fill-rule="nonzero"/></svg>